<svg id="l_d_857" xmlns="http://www.w3.org/2000/svg" xmlns:xlink="http://www.w3.org/1999/xlink" viewBox="0 0 45 45" width="45" height="45" preserveAspectRatio="xMidYMid meet" style="width: 100%; height: 100%; transform: translate3d(0px, 0px, 0px); content-visibility: visible;"><defs id="l_d_858"><clipPath id="__lottie_element_342"><rect id="l_d_861" width="45" height="45" x="0" y="0"></rect></clipPath></defs><g id="l_d_859" clip-path="url(#__lottie_element_342)"><g id="l_d_880" transform="matrix(1,0,0,1,-26.75,-17.75)" opacity="1" style="display: block;"><g id="l_d_884" opacity="1" transform="matrix(1,0,0,1,40,44)"><path id="l_d_885" stroke-linecap="butt" stroke-linejoin="miter" fill-opacity="0" stroke-miterlimit="4" stroke="rgb(34,34,34)" stroke-opacity="1" stroke-width="2" d=" M0,-11 C3.313999891281128,-11 6,-8.314000129699707 6,-5 C6,-5 6,-5 6,-5 C6,-5 6,10 6,10 C6,10.552000045776367 5.552000045776367,11 5,11 C5,11 -5,11 -5,11 C-5.552000045776367,11 -6,10.552000045776367 -6,10 C-6,10 -6,-5 -6,-5 C-6,-5 -5.995999813079834,-5.224999904632568 -5.995999813079834,-5.224999904632568 C-5.877999782562256,-8.434000015258789 -3.23799991607666,-11 0,-11z"></path></g><g id="l_d_886" opacity="1" transform="matrix(1,0,0,1,33,47)"><path id="l_d_887" stroke-linecap="butt" stroke-linejoin="miter" fill-opacity="0" stroke-miterlimit="4" stroke="rgb(34,34,34)" stroke-opacity="1" stroke-width="2" d=" M-2,0 C-2,0 2,0 2,0 C2,0 -2,0 -2,0z"></path></g><g id="l_d_888" opacity="1" transform="matrix(1,0,0,1,40,31)"><path id="l_d_889" stroke-linecap="butt" stroke-linejoin="miter" fill-opacity="0" stroke-miterlimit="4" stroke="rgb(34,34,34)" stroke-opacity="1" stroke-width="2" d=" M0,-2 C0,-2 0,2 0,2 C0,2 0,-2 0,-2z"></path></g><g id="l_d_890" opacity="1" transform="matrix(1,0,0,1,38.5,40.5)"><path id="l_d_891" stroke-linecap="butt" stroke-linejoin="miter" fill-opacity="0" stroke-miterlimit="4" stroke="rgb(34,34,34)" stroke-opacity="1" stroke-width="2" d=" M8.5,-11.5 C8.5,-11.5 1.5,-11.5 1.5,-11.5 C-4.0229997634887695,-11.5 -8.5,-7.0229997634887695 -8.5,-1.5 C-8.5,-1.5 -8.5,11.5 -8.5,11.5"></path></g><g id="l_d_892" opacity="1" transform="matrix(1,0,0,1,42.5,27)"><path id="l_d_893" stroke-linecap="butt" stroke-linejoin="miter" fill-opacity="0" stroke-miterlimit="4" stroke="rgb(34,34,34)" stroke-opacity="1" stroke-width="2" d=" M-2.5,2 C-2.5,2 2.5,-2 2.5,-2 C2.5,-2 -2.5,2 -2.5,2z"></path></g><g id="l_d_894" opacity="1" transform="matrix(1,0,0,1,40,29)"><path id="l_d_895" fill="rgb(255,255,255)" fill-opacity="1" d=" M0,2 C1.1050000190734863,2 2,1.1050000190734863 2,0 C2,-1.1050000190734863 1.1050000190734863,-2 0,-2 C-1.1050000190734863,-2 -2,-1.1050000190734863 -2,0 C-2,1.1050000190734863 -1.1050000190734863,2 0,2z"></path><path id="l_d_896" stroke-linecap="butt" stroke-linejoin="miter" fill-opacity="0" stroke-miterlimit="4" stroke="rgb(34,34,34)" stroke-opacity="1" stroke-width="2" d=" M0,2 C1.1050000190734863,2 2,1.1050000190734863 2,0 C2,-1.1050000190734863 1.1050000190734863,-2 0,-2 C-1.1050000190734863,-2 -2,-1.1050000190734863 -2,0 C-2,1.1050000190734863 -1.1050000190734863,2 0,2z"></path></g></g><g id="l_d_874" style="display: none;" transform="matrix(0.6300820112228394,-0.1122347041964531,0.1122347041964531,0.6300820112228394,17.75458526611328,19.26364517211914)" opacity="1"><g id="l_d_878" opacity="1" transform="matrix(1,0,0,1,13,-17.25)"><path id="l_d_879" stroke-linecap="butt" stroke-linejoin="miter" fill-opacity="0" stroke-miterlimit="4" stroke="rgb(34,34,34)" stroke-opacity="1" stroke-width="0" d=" M-6.552000045776367,-6.552000045776367 C-4.875,-8.229999542236328 -2.558000087738037,-9.269000053405762 0,-9.269000053405762 C0,-9.269000053405762 0,-9.269000053405762 0,-9.269000053405762 C3.7249999046325684,-9.269000053405762 6.940000057220459,-7.065999984741211 8.411999702453613,-3.8940000534057617"></path></g></g><g id="l_d_868" style="display: none;" transform="matrix(0.6300820112228394,-0.1122347041964531,0.1122347041964531,0.6300820112228394,22.085464477539062,20.76764678955078)" opacity="1"><g id="l_d_872" opacity="1" transform="matrix(1,0,0,1,13,-17.25)"><path id="l_d_873" stroke-linecap="butt" stroke-linejoin="miter" fill-opacity="0" stroke-miterlimit="4" stroke="rgb(34,34,34)" stroke-opacity="1" stroke-width="0" d=" M0.7599999904632568,-7.831999778747559 C4.747000217437744,-7.448999881744385 7.86899995803833,-4.085999965667725 7.86899995803833,0 C7.86899995803833,3.743000030517578 5.249000072479248,6.879000186920166 1.746000051498413,7.673999786376953"></path></g></g><g id="l_d_862" style="display: none;" transform="matrix(0.6300820112228394,-0.1122347041964531,0.1122347041964531,0.6300820112228394,18.955223083496094,25.550365447998047)" opacity="1"><g id="l_d_866" opacity="1" transform="matrix(1,0,0,1,13,-17.25)"><path id="l_d_867" stroke-linecap="butt" stroke-linejoin="miter" fill-opacity="0" stroke-miterlimit="4" stroke="rgb(34,34,34)" stroke-opacity="1" stroke-width="0" d=" M3.184999942779541,-7.360000133514404 C6.0279998779296875,-6.126999855041504 8.019000053405762,-3.2939999103546143 8.019000053405762,0 C8.018500328063965,4.425410270690918 4.425410270690918,8.018500328063965 0,8.018500328063965 C-0.2370000034570694,8.019000053405762 -0.47200000286102295,8.008000373840332 -0.7039999961853027,7.98799991607666"></path></g></g></g></svg>