<svg id="l_d_1263" xmlns="http://www.w3.org/2000/svg" xmlns:xlink="http://www.w3.org/1999/xlink" viewBox="0 0 45 45" width="45" height="45" preserveAspectRatio="xMidYMid meet" style="width: 100%; height: 100%; transform: translate3d(0px, 0px, 0px); content-visibility: visible;"><defs id="l_d_1264"><clipPath id="__lottie_element_515"><rect id="l_d_1267" width="45" height="45" x="0" y="0"></rect></clipPath><g id="__lottie_element_518"><g id="l_d_1268" style="display: none;" transform="matrix(1,0,0,1,-22.625,-17.5)" opacity="1"><g id="l_d_1273" opacity="1" transform="matrix(1,0,0,1,40,40)"><path id="l_d_1274" fill="rgb(255,0,0)" fill-opacity="1" d=" M-10.014113426208496,-11.923127174377441 C-10.014113426208496,-11.923127174377441 10.014113426208496,-11.923127174377441 10.014113426208496,-11.923127174377441 C12.223113059997559,-11.923127174377441 14.014113426208496,-10.137861251831055 14.014113426208496,-7.93593692779541 C14.014113426208496,-7.93593692779541 14.010300636291504,-16.14449119567871 14.010300636291504,-16.14449119567871 C14.010300636291504,-13.942566871643066 12.219300270080566,-12.157304763793945 10.010300636291504,-12.157304763793945 C10.010300636291504,-12.157304763793945 -10.015918731689453,-12.157304763793945 -10.015918731689453,-12.157304763793945 C-12.224918365478516,-12.157304763793945 -14.015918731689453,-13.942566871643066 -14.015918731689453,-16.14449119567871 C-14.015918731689453,-16.14449119567871 -14.014113426208496,-7.93593692779541 -14.014113426208496,-7.93593692779541 C-14.014113426208496,-10.137861251831055 -12.223113059997559,-11.923127174377441 -10.014113426208496,-11.923127174377441z"></path></g></g></g><mask id="__lottie_element_518_1" mask-type="alpha"><use id="l_d_1287" xlink:href="#__lottie_element_518"></use></mask><g id="__lottie_element_533"><g id="l_d_1306" style="display: none;" transform="matrix(1,0,0,1,-22.625,-17.5)" opacity="1"><g id="l_d_1311" opacity="1" transform="matrix(1,0,0,1,40,40)"><path id="l_d_1312" fill="rgb(255,0,0)" fill-opacity="1" d=" M-10.014113426208496,-11.923127174377441 C-10.014113426208496,-11.923127174377441 10.014113426208496,-11.923127174377441 10.014113426208496,-11.923127174377441 C12.223113059997559,-11.923127174377441 14.014113426208496,-10.137861251831055 14.014113426208496,-7.93593692779541 C14.014113426208496,-7.93593692779541 14.010300636291504,-16.14449119567871 14.010300636291504,-16.14449119567871 C14.010300636291504,-13.942566871643066 12.219300270080566,-12.157304763793945 10.010300636291504,-12.157304763793945 C10.010300636291504,-12.157304763793945 -10.015918731689453,-12.157304763793945 -10.015918731689453,-12.157304763793945 C-12.224918365478516,-12.157304763793945 -14.015918731689453,-13.942566871643066 -14.015918731689453,-16.14449119567871 C-14.015918731689453,-16.14449119567871 -14.014113426208496,-7.93593692779541 -14.014113426208496,-7.93593692779541 C-14.014113426208496,-10.137861251831055 -12.223113059997559,-11.923127174377441 -10.014113426208496,-11.923127174377441z"></path></g></g></g><mask id="__lottie_element_533_1" mask-type="alpha"><use id="l_d_1320" xlink:href="#__lottie_element_533"></use></mask></defs><g id="l_d_1265" clip-path="url(#__lottie_element_515)"><g id="l_d_1314" mask="url(#__lottie_element_533_1)" style="display: none;"><g id="l_d_1313" transform="matrix(1,0,0,1,-22.625,-17.5)" opacity="1"><g id="l_d_1317" opacity="1" transform="matrix(1,0,0,1,40,40)"><path id="l_d_1318" stroke-linecap="butt" stroke-linejoin="miter" fill-opacity="0" stroke-miterlimit="4" stroke="rgb(34,34,34)" stroke-opacity="1" stroke-width="2" d=" M-10,-12 C-10,-12 10,-12 10,-12 C12.208999633789062,-12 14,-10.208999633789062 14,-8 C14,-8 14,8 14,8 C14,10.208999633789062 12.208999633789062,12 10,12 C10,12 -10,12 -10,12 C-12.208999633789062,12 -14,10.208999633789062 -14,8 C-14,8 -14,-8 -14,-8 C-14,-10.208999633789062 -12.208999633789062,-12 -10,-12z"></path></g></g></g><g id="l_d_1300" transform="matrix(1,0,0,1,-22.625,-17.5)" opacity="1" style="display: block;"><g id="l_d_1304" opacity="1" transform="matrix(1,0,0,1,40,40)"><path id="l_d_1305" stroke-linecap="butt" stroke-linejoin="miter" fill-opacity="0" stroke-miterlimit="4" stroke="rgb(34,34,34)" stroke-opacity="1" stroke-width="2" d=" M-10,-12 C-10,-12 10,-12 10,-12 C12.208999633789062,-12 14,-10.208999633789062 14,-8 C14,-8 14,8 14,8 C14,10.208999633789062 12.208999633789062,12 10,12 C10,12 -10,12 -10,12 C-12.208999633789062,12 -14,10.208999633789062 -14,8 C-14,8 -14,-8 -14,-8 C-14,-10.208999633789062 -12.208999633789062,-12 -10,-12z"></path></g></g><g id="l_d_1294" transform="matrix(0.9388951063156128,0,0,0.9388951063156128,-20.180809020996094,-15.055809020996094)" opacity="1" style="display: none;"><g id="l_d_1298" opacity="1" transform="matrix(1,0,0,1,40,40)"><path id="l_d_1299" stroke-linecap="butt" stroke-linejoin="miter" fill-opacity="0" stroke-miterlimit="4" stroke="rgb(34,34,34)" stroke-opacity="1" stroke-width="2" d=" M-2,11.408695220947266 C-2,11.408695220947266 -2,11.6450834274292 -2,11.6450834274292 C-2,11.6450834274292 2,11.6450834274292 2,11.6450834274292 C2,11.6450834274292 2,11.408695220947266 2,11.408695220947266 C2,11.408695220947266 6,11.408695220947266 6,11.408695220947266 C6,11.408695220947266 6.134152889251709,11.172306060791016 6.134152889251709,11.172306060791016 C6.134152889251709,11.172306060791016 2.214478015899658,11.172306060791016 2.214478015899658,11.172306060791016 C2.214478015899658,11.172306060791016 2.34879732131958,10.935084342956543 2.34879732131958,10.935084342956543 C2.34879732131958,10.935084342956543 -2.34879732131958,10.935084342956543 -2.34879732131958,10.935084342956543 C-2.34879732131958,10.935084342956543 -2.214478015899658,11.172306060791016 -2.214478015899658,11.172306060791016 C-2.214478015899658,11.172306060791016 -6.134152889251709,11.172306060791016 -6.134152889251709,11.172306060791016 C-6.134152889251709,11.172306060791016 -6,11.408695220947266 -6,11.408695220947266 C-6,11.408695220947266 -2,11.408695220947266 -2,11.408695220947266z"></path></g></g><g id="l_d_1288" style="display: block;" transform="matrix(1,0,0,1,-22.625,-17.5)" opacity="1"><g id="l_d_1292" opacity="1" transform="matrix(1,0,0,1,40,40)"><path id="l_d_1293" stroke-linecap="butt" stroke-linejoin="miter" fill-opacity="0" stroke-miterlimit="4" stroke="rgb(34,34,34)" stroke-opacity="1" stroke-width="2" d=" M-2,2 C-2.062000036239624,2.875 -2,6 -2,6 C-2,6 2,6 2,6 C2,6 2,2 2,2 C2,2 6,2 6,2 C6,2 6,-2 6,-2 C6,-2 2,-2 2,-2 C2,-2 2,-6 2,-6 C2,-6 -2,-6 -2,-6 C-2,-6 -2,-2 -2,-2 C-2,-2 -6,-2 -6,-2 C-6,-2 -6,2 -6,2 C-6,2 -3,1.937999963760376 -2,2z"></path></g></g><g id="l_d_1276" mask="url(#__lottie_element_518_1)" style="display: none;"><g id="l_d_1275" transform="matrix(1,0,0,1,-62.625,-57.5)" opacity="1"><g id="l_d_1279" opacity="1" transform="matrix(1,0,0,1,0,0)"><g id="l_d_1280" opacity="1" transform="matrix(1,0,0,1,80,80)"><path id="l_d_1281" stroke-linecap="butt" stroke-linejoin="round" fill-opacity="0" stroke="rgb(34,34,34)" stroke-opacity="1" stroke-width="2" d=" M-3,-4 C-3,-4 3,-4 3,-4 C3,-4 3,4 3,4 C3,4 -3,4 -3,4 C-3,4 -3,-4 -3,-4z"></path></g><g id="l_d_1282" opacity="1" transform="matrix(1,0,0,1,80,80)"><path id="l_d_1283" stroke-linecap="butt" stroke-linejoin="round" fill-opacity="0" stroke="rgb(34,34,34)" stroke-opacity="1" stroke-width="2" d=" M-11,-4 C-11,-4 11,-4 11,-4 C11,-4 11,4 11,4 C11,4 -11,4 -11,4 C-11,4 -11,-4 -11,-4z"></path></g><g id="l_d_1284" opacity="1" transform="matrix(1,0,0,1,80,80)"><path id="l_d_1285" fill="rgb(34,34,34)" fill-opacity="1" d=" M-7,-1 C-6.447999954223633,-1 -6,-0.5519999861717224 -6,0 C-6,0.5519999861717224 -6.447999954223633,1 -7,1 C-7.552000045776367,1 -8,0.5519999861717224 -8,0 C-8,-0.5519999861717224 -7.552000045776367,-1 -7,-1z M7,-1 C7.552000045776367,-1 8,-0.5519999861717224 8,0 C8,0.5519999861717224 7.552000045776367,1 7,1 C6.447999954223633,1 6,0.5519999861717224 6,0 C6,-0.5519999861717224 6.447999954223633,-1 7,-1z"></path></g></g></g></g></g></svg>