<svg id="l_d_242" xmlns="http://www.w3.org/2000/svg" xmlns:xlink="http://www.w3.org/1999/xlink" viewBox="0 0 45 45" width="45" height="45" preserveAspectRatio="xMidYMid meet" style="width: 100%; height: 100%; transform: translate3d(0px, 0px, 0px); content-visibility: visible;"><defs id="l_d_243"><clipPath id="__lottie_element_89"><rect id="l_d_246" width="45" height="45" x="0" y="0"></rect></clipPath><clipPath id="__lottie_element_91"><path id="l_d_249" fill="#ffffff" clip-rule="nonzero" d=" M11.722000122070312,2.2880001068115234 C11.722000122070312,2.2880001068115234 -10.972000122070312,2.2880001068115234 -10.972000122070312,2.2880001068115234 C-10.972000122070312,2.2880001068115234 -10.972000122070312,6.083000183105469 -10.972000122070312,6.083000183105469 C-10.972000122070312,6.083000183105469 11.722000122070312,6.083000183105469 11.722000122070312,6.083000183105469 C11.722000122070312,6.083000183105469 11.722000122070312,2.2880001068115234 11.722000122070312,2.2880001068115234" fill-opacity="1"></path><path id="l_d_250" fill="#ffffff" clip-rule="nonzero" d=" M11.722000122070312,2.2880001068115234 C11.722000122070312,2.2880001068115234 -10.972000122070312,2.2880001068115234 -10.972000122070312,2.2880001068115234 C-10.972000122070312,2.2880001068115234 -10.972000122070312,6.083000183105469 -10.972000122070312,6.083000183105469 C-10.972000122070312,6.083000183105469 11.722000122070312,6.083000183105469 11.722000122070312,6.083000183105469 C11.722000122070312,6.083000183105469 11.722000122070312,2.2880001068115234 11.722000122070312,2.2880001068115234" fill-opacity="1"></path></clipPath><clipPath id="__lottie_element_94"><path id="l_d_257" fill="#ffffff" clip-rule="nonzero" d=" M11.722000122070312,2.2880001068115234 C11.722000122070312,2.2880001068115234 -10.972000122070312,2.2880001068115234 -10.972000122070312,2.2880001068115234 C-10.972000122070312,2.2880001068115234 -10.972000122070312,6.083000183105469 -10.972000122070312,6.083000183105469 C-10.972000122070312,6.083000183105469 11.722000122070312,6.083000183105469 11.722000122070312,6.083000183105469 C11.722000122070312,6.083000183105469 11.722000122070312,2.2880001068115234 11.722000122070312,2.2880001068115234" fill-opacity="1"></path><path id="l_d_258" fill="#ffffff" clip-rule="nonzero" d=" M11.722000122070312,2.2880001068115234 C11.722000122070312,2.2880001068115234 -10.972000122070312,2.2880001068115234 -10.972000122070312,2.2880001068115234 C-10.972000122070312,2.2880001068115234 -10.972000122070312,6.083000183105469 -10.972000122070312,6.083000183105469 C-10.972000122070312,6.083000183105469 11.722000122070312,6.083000183105469 11.722000122070312,6.083000183105469 C11.722000122070312,6.083000183105469 11.722000122070312,2.2880001068115234 11.722000122070312,2.2880001068115234" fill-opacity="1"></path></clipPath><clipPath id="__lottie_element_97"><path id="l_d_265" fill="#ffffff" clip-rule="nonzero" d=" M11.722000122070312,2.2880001068115234 C11.722000122070312,2.2880001068115234 -10.972000122070312,2.2880001068115234 -10.972000122070312,2.2880001068115234 C-10.972000122070312,2.2880001068115234 -10.972000122070312,6.083000183105469 -10.972000122070312,6.083000183105469 C-10.972000122070312,6.083000183105469 11.722000122070312,6.083000183105469 11.722000122070312,6.083000183105469 C11.722000122070312,6.083000183105469 11.722000122070312,2.2880001068115234 11.722000122070312,2.2880001068115234" fill-opacity="1"></path><path id="l_d_266" fill="#ffffff" clip-rule="nonzero" d=" M11.722000122070312,2.2880001068115234 C11.722000122070312,2.2880001068115234 -10.972000122070312,2.2880001068115234 -10.972000122070312,2.2880001068115234 C-10.972000122070312,2.2880001068115234 -10.972000122070312,6.083000183105469 -10.972000122070312,6.083000183105469 C-10.972000122070312,6.083000183105469 11.722000122070312,6.083000183105469 11.722000122070312,6.083000183105469 C11.722000122070312,6.083000183105469 11.722000122070312,2.2880001068115234 11.722000122070312,2.2880001068115234" fill-opacity="1"></path></clipPath><clipPath id="__lottie_element_100"><path id="l_d_273" fill="#ffffff" clip-rule="nonzero" d=" M11.722000122070312,2.2880001068115234 C11.722000122070312,2.2880001068115234 -10.972000122070312,2.2880001068115234 -10.972000122070312,2.2880001068115234 C-10.972000122070312,2.2880001068115234 -10.972000122070312,6.083000183105469 -10.972000122070312,6.083000183105469 C-10.972000122070312,6.083000183105469 11.722000122070312,6.083000183105469 11.722000122070312,6.083000183105469 C11.722000122070312,6.083000183105469 11.722000122070312,2.2880001068115234 11.722000122070312,2.2880001068115234" fill-opacity="1"></path><path id="l_d_274" fill="#ffffff" clip-rule="nonzero" d=" M11.722000122070312,2.2880001068115234 C11.722000122070312,2.2880001068115234 -10.972000122070312,2.2880001068115234 -10.972000122070312,2.2880001068115234 C-10.972000122070312,2.2880001068115234 -10.972000122070312,6.083000183105469 -10.972000122070312,6.083000183105469 C-10.972000122070312,6.083000183105469 11.722000122070312,6.083000183105469 11.722000122070312,6.083000183105469 C11.722000122070312,6.083000183105469 11.722000122070312,2.2880001068115234 11.722000122070312,2.2880001068115234" fill-opacity="1"></path></clipPath><clipPath id="__lottie_element_103"><path id="l_d_281" fill="#ffffff" clip-rule="nonzero" d=" M11.722000122070312,2.2880001068115234 C11.722000122070312,2.2880001068115234 -10.972000122070312,2.2880001068115234 -10.972000122070312,2.2880001068115234 C-10.972000122070312,2.2880001068115234 -10.972000122070312,6.083000183105469 -10.972000122070312,6.083000183105469 C-10.972000122070312,6.083000183105469 11.722000122070312,6.083000183105469 11.722000122070312,6.083000183105469 C11.722000122070312,6.083000183105469 11.722000122070312,2.2880001068115234 11.722000122070312,2.2880001068115234" fill-opacity="1"></path><path id="l_d_282" fill="#ffffff" clip-rule="nonzero" d=" M11.722000122070312,2.2880001068115234 C11.722000122070312,2.2880001068115234 -10.972000122070312,2.2880001068115234 -10.972000122070312,2.2880001068115234 C-10.972000122070312,2.2880001068115234 -10.972000122070312,6.083000183105469 -10.972000122070312,6.083000183105469 C-10.972000122070312,6.083000183105469 11.722000122070312,6.083000183105469 11.722000122070312,6.083000183105469 C11.722000122070312,6.083000183105469 11.722000122070312,2.2880001068115234 11.722000122070312,2.2880001068115234" fill-opacity="1"></path></clipPath><clipPath id="__lottie_element_106"><path id="l_d_289" fill="#ffffff" clip-rule="nonzero" d=" M11.722000122070312,2.2880001068115234 C11.722000122070312,2.2880001068115234 -10.972000122070312,2.2880001068115234 -10.972000122070312,2.2880001068115234 C-10.972000122070312,2.2880001068115234 -10.972000122070312,6.083000183105469 -10.972000122070312,6.083000183105469 C-10.972000122070312,6.083000183105469 11.722000122070312,6.083000183105469 11.722000122070312,6.083000183105469 C11.722000122070312,6.083000183105469 11.722000122070312,2.2880001068115234 11.722000122070312,2.2880001068115234" fill-opacity="1"></path><path id="l_d_290" fill="#ffffff" clip-rule="nonzero" d=" M11.722000122070312,2.2880001068115234 C11.722000122070312,2.2880001068115234 -10.972000122070312,2.2880001068115234 -10.972000122070312,2.2880001068115234 C-10.972000122070312,2.2880001068115234 -10.972000122070312,6.083000183105469 -10.972000122070312,6.083000183105469 C-10.972000122070312,6.083000183105469 11.722000122070312,6.083000183105469 11.722000122070312,6.083000183105469 C11.722000122070312,6.083000183105469 11.722000122070312,2.2880001068115234 11.722000122070312,2.2880001068115234" fill-opacity="1"></path></clipPath><clipPath id="__lottie_element_109"><path id="l_d_297" fill="#ffffff" clip-rule="nonzero" d=" M11.722000122070312,2.2880001068115234 C11.722000122070312,2.2880001068115234 -10.972000122070312,2.2880001068115234 -10.972000122070312,2.2880001068115234 C-10.972000122070312,2.2880001068115234 -10.972000122070312,6.083000183105469 -10.972000122070312,6.083000183105469 C-10.972000122070312,6.083000183105469 11.722000122070312,6.083000183105469 11.722000122070312,6.083000183105469 C11.722000122070312,6.083000183105469 11.722000122070312,2.2880001068115234 11.722000122070312,2.2880001068115234" fill-opacity="1"></path><path id="l_d_298" fill="#ffffff" clip-rule="nonzero" d=" M11.722000122070312,2.2880001068115234 C11.722000122070312,2.2880001068115234 -10.972000122070312,2.2880001068115234 -10.972000122070312,2.2880001068115234 C-10.972000122070312,2.2880001068115234 -10.972000122070312,6.083000183105469 -10.972000122070312,6.083000183105469 C-10.972000122070312,6.083000183105469 11.722000122070312,6.083000183105469 11.722000122070312,6.083000183105469 C11.722000122070312,6.083000183105469 11.722000122070312,2.2880001068115234 11.722000122070312,2.2880001068115234" fill-opacity="1"></path></clipPath></defs><g id="l_d_244" clip-path="url(#__lottie_element_89)"><g id="l_d_321" transform="matrix(1.0000008344650269,0,0,1.0000008344650269,-24.00003433227539,-18.374406814575195)" opacity="1" style="display: block;"><g id="l_d_325" opacity="1" transform="matrix(1,0,0,1,51,50)"><path id="l_d_326" stroke-linecap="butt" stroke-linejoin="miter" fill-opacity="0" stroke-miterlimit="4" stroke="rgb(34,34,34)" stroke-opacity="1" stroke-width="2" d=" M-2,-2 C-2,-2 2,-2 2,-2 C2,-2 2,1 2,1 C2,1.5520000457763672 1.5520000457763672,2 1,2 C1,2 -1,2 -1,2 C-1.5520000457763672,2 -2,1.5520000457763672 -2,1 C-2,1 -2,-2 -2,-2 C-2,-2 -2,-2 -2,-2z"></path></g><g id="l_d_327" opacity="1" transform="matrix(1,0,0,1,29,50)"><path id="l_d_328" stroke-linecap="butt" stroke-linejoin="miter" fill-opacity="0" stroke-miterlimit="4" stroke="rgb(34,34,34)" stroke-opacity="1" stroke-width="2" d=" M-2,-2 C-2,-2 2,-2 2,-2 C2,-2 2,1 2,1 C2,1.5520000457763672 1.5520000457763672,2 1,2 C1,2 -1,2 -1,2 C-1.5520000457763672,2 -2,1.5520000457763672 -2,1 C-2,1 -2,-2 -2,-2 C-2,-2 -2,-2 -2,-2z"></path></g></g><g id="l_d_303" transform="matrix(1.0000008344650269,0,0,1.0000008344650269,-24.00003433227539,-19.108909606933594)" opacity="1" style="display: block;"><g id="l_d_307" opacity="1" transform="matrix(1,0,0,1,40,43)"><path id="l_d_308" stroke-linecap="butt" stroke-linejoin="miter" fill-opacity="0" stroke-miterlimit="4" stroke="rgb(34,34,34)" stroke-opacity="1" stroke-width="2" d=" M-9,-5 C-9,-5 9,-5 9,-5 C11.208999633789062,-5 13,-3.2090001106262207 13,-1 C13,-1 13,4 13,4 C13,4.552000045776367 12.552000045776367,5 12,5 C12,5 -12,5 -12,5 C-12.552000045776367,5 -13,4.552000045776367 -13,4 C-13,4 -13,-1 -13,-1 C-13,-3.2090001106262207 -11.208999633789062,-5 -9,-5z"></path></g><g id="l_d_309" opacity="1" transform="matrix(1,0,0,1,49,43)"><path id="l_d_310" fill="rgb(34,34,34)" fill-opacity="1" d=" M0,-1 C0.5519999861717224,-1 1,-0.5519999861717224 1,0 C1,0.5519999861717224 0.5519999861717224,1 0,1 C-0.5519999861717224,1 -1,0.5519999861717224 -1,0 C-1,-0.5519999861717224 -0.5519999861717224,-1 0,-1z"></path></g><g id="l_d_311" opacity="1" transform="matrix(1,0,0,1,31,43)"><path id="l_d_312" fill="rgb(34,34,34)" fill-opacity="1" d=" M0,-1 C0.5519999861717224,-1 1,-0.5519999861717224 1,0 C1,0.5519999861717224 0.5519999861717224,1 0,1 C-0.5519999861717224,1 -1,0.5519999861717224 -1,0 C-1,-0.5519999861717224 -0.5519999861717224,-1 0,-1z"></path></g><g id="l_d_313" opacity="1" transform="matrix(1,0,0,1,40,34)"><path id="l_d_314" stroke-linecap="butt" stroke-linejoin="miter" fill-opacity="0" stroke-miterlimit="4" stroke="rgb(34,34,34)" stroke-opacity="1" stroke-width="2" d=" M-7.307000160217285,-4 C-7.307000160217285,-4 7.307000160217285,-4 7.307000160217285,-4 C7.723999977111816,-4 8.097000122070312,-3.740999937057495 8.243000030517578,-3.3510000705718994 C8.243000030517578,-3.3510000705718994 11,4 11,4 C11,4 11,4 11,4 C11,4 -11,4 -11,4 C-11,4 -8.243000030517578,-3.3510000705718994 -8.243000030517578,-3.3510000705718994 C-8.097000122070312,-3.740999937057495 -7.723999977111816,-4 -7.307000160217285,-4z"></path></g><g id="l_d_315" opacity="1" transform="matrix(1,0,0,1,27.5,36)"><path id="l_d_316" fill="rgb(34,34,34)" fill-opacity="1" d=" M-1.5,-1 C-1.5,-1 1.5,-1 1.5,-1 C1.5,-1 1.5,1 1.5,1 C1.5,1 -1.5,1 -1.5,1 C-1.5,1 -1.5,-1 -1.5,-1z"></path></g><g id="l_d_317" opacity="1" transform="matrix(1,0,0,1,52.5,36)"><path id="l_d_318" fill="rgb(34,34,34)" fill-opacity="1" d=" M-1.5,-1 C-1.5,-1 1.5,-1 1.5,-1 C1.5,-1 1.5,1 1.5,1 C1.5,1 -1.5,1 -1.5,1 C-1.5,1 -1.5,-1 -1.5,-1z"></path></g><g id="l_d_319" opacity="1" transform="matrix(1,0,0,1,40,43)"><path id="l_d_320" stroke-linecap="butt" stroke-linejoin="miter" fill-opacity="0" stroke-miterlimit="4" stroke="rgb(34,34,34)" stroke-opacity="1" stroke-width="2" d=" M-6,0 C-6,0 6,0 6,0"></path></g></g><g id="l_d_295" clip-path="url(#__lottie_element_109)" style="display: none;" transform="matrix(1,0,0,1,16,21.625)" opacity="1"><g id="l_d_301" opacity="1" transform="matrix(1,0,0,1,0,0)"><path id="l_d_302" fill="rgb(34,34,34)" fill-opacity="1" d=" M-0.847000002861023,8 C-0.847000002861023,8 -3.4170000553131104,20.75 -3.4170000553131104,20.75 C-3.4170000553131104,20.75 3.0829999446868896,20.75 3.0829999446868896,20.75 C3.0829999446868896,20.75 0.3190000057220459,8.083000183105469 0.3190000057220459,8.083000183105469"></path></g></g><g id="l_d_287" clip-path="url(#__lottie_element_106)" style="display: none;" transform="matrix(1,0,0,1,16,21.625)" opacity="1"><g id="l_d_293" opacity="1" transform="matrix(1,0,0,1,0,0)"><path id="l_d_294" fill="rgb(34,34,34)" fill-opacity="1" d=" M-0.847000002861023,8 C-0.847000002861023,8 -3.4170000553131104,20.75 -3.4170000553131104,20.75 C-3.4170000553131104,20.75 3.0829999446868896,20.75 3.0829999446868896,20.75 C3.0829999446868896,20.75 0.3190000057220459,8.083000183105469 0.3190000057220459,8.083000183105469"></path></g></g><g id="l_d_279" clip-path="url(#__lottie_element_103)" style="display: none;" transform="matrix(1,0,0,1,16,21.625)" opacity="1"><g id="l_d_285" opacity="1" transform="matrix(1,0,0,1,0,0)"><path id="l_d_286" fill="rgb(34,34,34)" fill-opacity="1" d=" M-0.847000002861023,8 C-0.847000002861023,8 -3.4170000553131104,20.75 -3.4170000553131104,20.75 C-3.4170000553131104,20.75 3.0829999446868896,20.75 3.0829999446868896,20.75 C3.0829999446868896,20.75 0.3190000057220459,8.083000183105469 0.3190000057220459,8.083000183105469"></path></g></g><g id="l_d_271" clip-path="url(#__lottie_element_100)" style="display: none;" transform="matrix(1,0,0,1,16,21.625)" opacity="1"><g id="l_d_277" opacity="1" transform="matrix(1,0,0,1,0,0)"><path id="l_d_278" fill="rgb(34,34,34)" fill-opacity="1" d=" M-0.847000002861023,8 C-0.847000002861023,8 -3.4170000553131104,20.75 -3.4170000553131104,20.75 C-3.4170000553131104,20.75 3.0829999446868896,20.75 3.0829999446868896,20.75 C3.0829999446868896,20.75 0.3190000057220459,8.083000183105469 0.3190000057220459,8.083000183105469"></path></g></g><g id="l_d_263" clip-path="url(#__lottie_element_97)" style="display: none;" transform="matrix(1,0,0,1,16,21.625)" opacity="1"><g id="l_d_269" opacity="1" transform="matrix(1,0,0,1,0,0)"><path id="l_d_270" fill="rgb(34,34,34)" fill-opacity="1" d=" M-0.847000002861023,8 C-0.847000002861023,8 -3.4170000553131104,20.75 -3.4170000553131104,20.75 C-3.4170000553131104,20.75 3.0829999446868896,20.75 3.0829999446868896,20.75 C3.0829999446868896,20.75 0.3190000057220459,8.083000183105469 0.3190000057220459,8.083000183105469"></path></g></g><g id="l_d_255" clip-path="url(#__lottie_element_94)" style="display: none;" transform="matrix(1,0,0,1,16,21.625)" opacity="1"><g id="l_d_261" opacity="1" transform="matrix(1,0,0,1,0,0)"><path id="l_d_262" fill="rgb(34,34,34)" fill-opacity="1" d=" M-0.847000002861023,8 C-0.847000002861023,8 -3.4170000553131104,20.75 -3.4170000553131104,20.75 C-3.4170000553131104,20.75 3.0829999446868896,20.75 3.0829999446868896,20.75 C3.0829999446868896,20.75 0.3190000057220459,8.083000183105469 0.3190000057220459,8.083000183105469"></path></g></g><g id="l_d_247" clip-path="url(#__lottie_element_91)" style="display: none;" transform="matrix(1,0,0,1,16,21.625)" opacity="1"><g id="l_d_253" opacity="1" transform="matrix(1,0,0,1,0,0)"><path id="l_d_254" fill="rgb(34,34,34)" fill-opacity="1" d=" M-0.847000002861023,8 C-0.847000002861023,8 -3.4170000553131104,20.75 -3.4170000553131104,20.75 C-3.4170000553131104,20.75 3.0829999446868896,20.75 3.0829999446868896,20.75 C3.0829999446868896,20.75 0.3190000057220459,8.083000183105469 0.3190000057220459,8.083000183105469"></path></g></g></g></svg>