<svg id="l_d_518" xmlns="http://www.w3.org/2000/svg" xmlns:xlink="http://www.w3.org/1999/xlink" viewBox="0 0 45 45" width="45" height="45" preserveAspectRatio="xMidYMid meet" style="width: 100%; height: 100%; transform: translate3d(0px, 0px, 0px); content-visibility: visible;"><defs id="l_d_519"><clipPath id="__lottie_element_194"><rect id="l_d_522" width="45" height="45" x="0" y="0"></rect></clipPath></defs><g id="l_d_520" clip-path="url(#__lottie_element_194)"><g id="l_d_545" transform="matrix(1,0,0,1,-22.875,-16.75)" opacity="1" style="display: block;"><g id="l_d_549" opacity="1" transform="matrix(1,0,0,1,0,0)"><g id="l_d_550" opacity="1" transform="matrix(1,0,0,1,40,42)"><path id="l_d_551" stroke-linecap="butt" stroke-linejoin="miter" fill-opacity="0" stroke-miterlimit="4" stroke="rgb(34,34,34)" stroke-opacity="1" stroke-width="2" d=" M-8,-4 C-8,-4 -8,11 -8,11 C-8,11 -8,11 -8,11 C-8,11 -12,11 -12,11 C-12,11 -12,-11 -12,-11 C-12,-11 12,-11 12,-11 C12,-11 12,11 12,11 C12,11 8,11 8,11 C8,11 8,-4 8,-4 C8,-4.552000045776367 7.552000045776367,-5 7,-5 C7,-5 -7,-5 -7,-5 C-7.552000045776367,-5 -8,-4.552000045776367 -8,-4z"></path></g><g id="l_d_552" opacity="1" transform="matrix(1,0,0,1,40,31)"><path id="l_d_553" stroke-linecap="butt" stroke-linejoin="round" fill-opacity="0" stroke="rgb(34,34,34)" stroke-opacity="1" stroke-width="2" d=" M-15,0 C-15,0 15,0 15,0"></path></g><g id="l_d_554" opacity="1" transform="matrix(1,0,0,1,40,27)"><path id="l_d_555" stroke-linecap="butt" stroke-linejoin="round" fill-opacity="0" stroke="rgb(34,34,34)" stroke-opacity="1" stroke-width="2" d=" M-15,0 C-15,0 15,0 15,0"></path></g></g></g><g id="l_d_538" style="display: block;" transform="matrix(1.0333000421524048,0,0,0.8582212924957275,-24.207000732421875,-9.235729217529297)" opacity="1"><g id="l_d_542" opacity="1" transform="matrix(1,0,0,1,0,0)"><g id="l_d_543" opacity="1" transform="matrix(1,0,0,1,40,47.63399887084961)"><path id="l_d_544" stroke-linecap="butt" stroke-linejoin="miter" fill-opacity="0" stroke-miterlimit="4" stroke="rgb(34,34,34)" stroke-opacity="1" stroke-width="2" d=" M0,-5.363999843597412 C2.6670000553131104,-3.061000108718872 4,-0.8180000185966492 4,1.3639999628067017 C4,3.572999954223633 2.2090001106262207,5.363999843597412 0,5.363999843597412 C-2.2090001106262207,5.363999843597412 -4,3.5460000038146973 -4,1.3639999628067017 C-4,-0.8180000185966492 -2.6670000553131104,-3.061000108718872 0,-5.363999843597412z"></path></g></g></g><g id="l_d_532" style="display: block;" transform="matrix(1.0333000421524048,0,0,0.8387541174888611,-24.207000732421875,-8.203971862792969)" opacity="1"><g id="l_d_536" opacity="1" transform="matrix(1,0,0,1,40,51)"><path id="l_d_537" stroke-linecap="butt" stroke-linejoin="round" fill-opacity="0" stroke="rgb(34,34,34)" stroke-opacity="1" stroke-width="2" d=" M0.007000000216066837,-2.7039999961853027 C1.309000015258789,-2.7039999961853027 2.364000082015991,-1.6490000486373901 2.364000082015991,-0.34700000286102295 C2.364000082015991,0.9549999833106995 1.309000015258789,2.009999990463257 0.007000000216066837,2.009999990463257 C-1.2949999570846558,2.009999990463257 -2.3499999046325684,0.9549999833106995 -2.3499999046325684,-0.34700000286102295 C-2.3499999046325684,-1.6490000486373901 -1.2949999570846558,-2.7039999961853027 0.007000000216066837,-2.7039999961853027z"></path></g></g><g id="l_d_523" transform="matrix(0.3343583047389984,0,0,0.3343583047389984,3.750666618347168,11.383673667907715)" opacity="1" style="display: none;"><g id="l_d_527" opacity="1" transform="matrix(1,0,0,1,0,0)"><g id="l_d_528" opacity="1" transform="matrix(1,0,0,1,40,47.63399887084961)"><path id="l_d_529" stroke-linecap="butt" stroke-linejoin="miter" fill-opacity="0" stroke-miterlimit="4" stroke="rgb(34,34,34)" stroke-opacity="1" stroke-width="2" d=" M0,-5.363999843597412 C2.6670000553131104,-3.061000108718872 4,-0.8180000185966492 4,1.3639999628067017 C4,3.572999954223633 2.2090001106262207,5.363999843597412 0,5.363999843597412 C-2.2090001106262207,5.363999843597412 -4,3.5460000038146973 -4,1.3639999628067017 C-4,-0.8180000185966492 -2.6670000553131104,-3.061000108718872 0,-5.363999843597412z"></path></g></g><g id="l_d_530" opacity="1" transform="matrix(1,0,0,1,40,51)"><path id="l_d_531" stroke-linecap="butt" stroke-linejoin="round" fill-opacity="0" stroke="rgb(34,34,34)" stroke-opacity="1" stroke-width="2" d=" M0,-2.25 C1.2430000305175781,-2.25 2.25,-1.2430000305175781 2.25,0 C2.25,1.2430000305175781 1.2430000305175781,2.25 0,2.25 C-1.2430000305175781,2.25 -2.25,1.2430000305175781 -2.25,0 C-2.25,-1.2430000305175781 -1.2430000305175781,-2.25 0,-2.25z"></path></g></g></g></svg>