<svg id="l_d_53" xmlns="http://www.w3.org/2000/svg" xmlns:xlink="http://www.w3.org/1999/xlink" viewBox="0 0 45 45" width="45" height="45" preserveAspectRatio="xMidYMid meet" style="width: 100%; height: 100%; transform: translate3d(0px, 0px, 0px); content-visibility: visible;"><defs id="l_d_54"><clipPath id="__lottie_element_26"><rect id="l_d_57" width="45" height="45" x="0" y="0"></rect></clipPath><g id="__lottie_element_37"><g id="l_d_91" style="display: none;" transform="matrix(1,0,0,1,-23.5,-17.5)" opacity="1"><g id="l_d_96" opacity="1" transform="matrix(1,0,0,1,40,40)"><path id="l_d_97" fill="rgb(255,0,0)" fill-opacity="1" d=" M-12.000612258911133,-4.998057842254639 C-12.000612258911133,-4.998057842254639 12.0006103515625,-4.998057842254639 12.0006103515625,-4.998057842254639 C12.552610397338867,-4.998057842254639 13.0006103515625,-4.5501179695129395 13.0006103515625,-3.998188018798828 C13.0006103515625,-3.998188018798828 12.999956130981445,11.966611862182617 12.999956130981445,11.966611862182617 C12.999956130981445,12.518542289733887 12.551956176757812,12.966482162475586 11.999956130981445,12.966482162475586 C11.999956130981445,12.966482162475586 -12.000043869018555,12.966482162475586 -12.000043869018555,12.966482162475586 C-12.552043914794922,12.966482162475586 -13.000043869018555,12.518542289733887 -13.000043869018555,11.966611862182617 C-13.000043869018555,11.966611862182617 -13.000612258911133,-3.998188018798828 -13.000612258911133,-3.998188018798828 C-13.000612258911133,-4.5501179695129395 -12.5526123046875,-4.998057842254639 -12.000612258911133,-4.998057842254639z"></path></g></g></g><mask id="__lottie_element_37_1" mask-type="alpha"><use id="l_d_105" xlink:href="#__lottie_element_37"></use></mask><g id="__lottie_element_43"><g id="l_d_106" style="display: none;" transform="matrix(1,0,0,1,-23.5,-17.5)" opacity="1"><g id="l_d_111" opacity="1" transform="matrix(1,0,0,1,40,40)"><path id="l_d_112" fill="rgb(255,0,0)" fill-opacity="1" d=" M-12.016473770141602,-4.995359897613525 C-12.016473770141602,-4.995359897613525 12.0129976272583,-4.995237827301025 12.0129976272583,-4.995237827301025 C12.564997673034668,-4.995237827301025 13.0129976272583,-4.547297954559326 13.0129976272583,-3.995368003845215 C13.0129976272583,-3.995368003845215 13.01370620727539,11.938220024108887 13.01370620727539,11.938220024108887 C13.01370620727539,12.490150451660156 12.565706253051758,12.938090324401855 12.01370620727539,12.938090324401855 C12.01370620727539,12.938090324401855 -12.022543907165527,12.938090324401855 -12.022543907165527,12.938090324401855 C-12.574543952941895,12.938090324401855 -13.022543907165527,12.490150451660156 -13.022543907165527,11.938220024108887 C-13.022543907165527,11.938220024108887 -13.016473770141602,-3.995487928390503 -13.016473770141602,-3.995487928390503 C-13.016473770141602,-4.547418117523193 -12.568473815917969,-4.995359897613525 -12.016473770141602,-4.995359897613525z"></path></g></g></g><mask id="__lottie_element_43_1" mask-type="alpha"><use id="l_d_131" xlink:href="#__lottie_element_43"></use></mask></defs><g id="l_d_55" clip-path="url(#__lottie_element_26)"><g id="l_d_132" transform="matrix(0.8532226085662842,0,0,0.8532226085662842,-17.628902435302734,-11.62890338897705)" opacity="1" style="display: none;"><g id="l_d_136" opacity="1" transform="matrix(1,0,0,1,40,40)"></g><g id="l_d_137" opacity="1" transform="matrix(1,0,0,1,40,40)"><path id="l_d_138" stroke-linecap="butt" stroke-linejoin="miter" fill-opacity="0" stroke-miterlimit="4" stroke="rgb(34,34,34)" stroke-opacity="1" stroke-width="2" d=" M-12,-13 C-12,-13 12,-13 12,-13 C12.552000045776367,-13 13,-12.552000045776367 13,-12 C13,-12 13,12 13,12 C13,12.552000045776367 12.552000045776367,13 12,13 C12,13 -12,13 -12,13 C-12.552000045776367,13 -13,12.552000045776367 -13,12 C-13,12 -13,-12 -13,-12 C-13,-12.552000045776367 -12.552000045776367,-13 -12,-13z"></path></g><g id="l_d_139" opacity="1" transform="matrix(1,0,0,1,40,35)"><path id="l_d_140" stroke-linecap="butt" stroke-linejoin="miter" fill-opacity="0" stroke-miterlimit="4" stroke="rgb(34,34,34)" stroke-opacity="1" stroke-width="2" d=" M13,0 C13,0 -13,0 -13,0"></path></g><g id="l_d_141" opacity="1" transform="matrix(1,0,0,1,49,31)"><path id="l_d_142" fill="rgb(0,0,0)" fill-opacity="1" d=" M0,-1 C0.5519999861717224,-1 1,-0.5519999861717224 1,0 C1,0.5519999861717224 0.5519999861717224,1 0,1 C-0.5519999861717224,1 -1,0.5519999861717224 -1,0 C-1,-0.5519999861717224 -0.5519999861717224,-1 0,-1z"></path></g><g id="l_d_143" opacity="1" transform="matrix(1,0,0,1,43,31)"><path id="l_d_144" fill="rgb(0,0,0)" fill-opacity="1" d=" M0,-1 C0.5519999861717224,-1 1,-0.5519999861717224 1,0 C1,0.5519999861717224 0.5519999861717224,1 0,1 C-0.5519999861717224,1 -1,0.5519999861717224 -1,0 C-1,-0.5519999861717224 -0.5519999861717224,-1 0,-1z"></path></g><g id="l_d_145" opacity="1" transform="matrix(1,0,0,1,37,31)"><path id="l_d_146" fill="rgb(0,0,0)" fill-opacity="1" d=" M0,-1 C0.5519999861717224,-1 1,-0.5519999861717224 1,0 C1,0.5519999861717224 0.5519999861717224,1 0,1 C-0.5519999861717224,1 -1,0.5519999861717224 -1,0 C-1,-0.5519999861717224 -0.5519999861717224,-1 0,-1z"></path></g><g id="l_d_147" opacity="1" transform="matrix(1,0,0,1,31,31)"><path id="l_d_148" fill="rgb(0,0,0)" fill-opacity="1" d=" M0,-1 C0.5519999861717224,-1 1,-0.5519999861717224 1,0 C1,0.5519999861717224 0.5519999861717224,1 0,1 C-0.5519999861717224,1 -1,0.5519999861717224 -1,0 C-1,-0.5519999861717224 -0.5519999861717224,-1 0,-1z"></path></g></g><g id="l_d_114" mask="url(#__lottie_element_43_1)" style="display: none;"><g id="l_d_113" transform="matrix(1,0,0,1,-23.5,-17.5)" opacity="1"><g id="l_d_117" opacity="1" transform="matrix(1,0,0,1,40,40)"></g><g id="l_d_118" opacity="1" transform="matrix(1,0,0,1,40,40)"><path id="l_d_119" stroke-linecap="butt" stroke-linejoin="miter" fill-opacity="0" stroke-miterlimit="4" stroke="rgb(34,34,34)" stroke-opacity="1" stroke-width="2" d=" M-12,-13 C-12,-13 12,-13 12,-13 C12.552000045776367,-13 13,-12.552000045776367 13,-12 C13,-12 13,12 13,12 C13,12.552000045776367 12.552000045776367,13 12,13 C12,13 -12,13 -12,13 C-12.552000045776367,13 -13,12.552000045776367 -13,12 C-13,12 -13,-12 -13,-12 C-13,-12.552000045776367 -12.552000045776367,-13 -12,-13z"></path></g><g id="l_d_120" opacity="1" transform="matrix(1,0,0,1,40,35)"><path id="l_d_121" stroke-linecap="butt" stroke-linejoin="miter" fill-opacity="0" stroke-miterlimit="4" stroke="rgb(34,34,34)" stroke-opacity="1" stroke-width="2" d=" M13,0 C13,0 -13,0 -13,0"></path></g><g id="l_d_122" opacity="1" transform="matrix(1,0,0,1,49,31)"><path id="l_d_123" fill="rgb(0,0,0)" fill-opacity="1" d=" M0,-1 C0.5519999861717224,-1 1,-0.5519999861717224 1,0 C1,0.5519999861717224 0.5519999861717224,1 0,1 C-0.5519999861717224,1 -1,0.5519999861717224 -1,0 C-1,-0.5519999861717224 -0.5519999861717224,-1 0,-1z"></path></g><g id="l_d_124" opacity="1" transform="matrix(1,0,0,1,43,31)"><path id="l_d_125" fill="rgb(0,0,0)" fill-opacity="1" d=" M0,-1 C0.5519999861717224,-1 1,-0.5519999861717224 1,0 C1,0.5519999861717224 0.5519999861717224,1 0,1 C-0.5519999861717224,1 -1,0.5519999861717224 -1,0 C-1,-0.5519999861717224 -0.5519999861717224,-1 0,-1z"></path></g><g id="l_d_126" opacity="1" transform="matrix(1,0,0,1,37,31)"><path id="l_d_127" fill="rgb(0,0,0)" fill-opacity="1" d=" M0,-1 C0.5519999861717224,-1 1,-0.5519999861717224 1,0 C1,0.5519999861717224 0.5519999861717224,1 0,1 C-0.5519999861717224,1 -1,0.5519999861717224 -1,0 C-1,-0.5519999861717224 -0.5519999861717224,-1 0,-1z"></path></g><g id="l_d_128" opacity="1" transform="matrix(1,0,0,1,31,31)"><path id="l_d_129" fill="rgb(0,0,0)" fill-opacity="1" d=" M0,-1 C0.5519999861717224,-1 1,-0.5519999861717224 1,0 C1,0.5519999861717224 0.5519999861717224,1 0,1 C-0.5519999861717224,1 -1,0.5519999861717224 -1,0 C-1,-0.5519999861717224 -0.5519999861717224,-1 0,-1z"></path></g></g></g><g id="l_d_99" mask="url(#__lottie_element_37_1)" style="display: none;"><g id="l_d_98" transform="matrix(1,0,0,1,-23.5,-15.999000549316406)" opacity="1"><g id="l_d_102" opacity="1" transform="matrix(1,0,0,1,33.5,43.5)"><path id="l_d_103" stroke-linecap="butt" stroke-linejoin="round" fill-opacity="0" stroke="rgb(34,34,34)" stroke-opacity="1" stroke-width="2" d=" M1.4390000104904175,-5.216000080108643 C1.4390000104904175,-5.216000080108643 11.713000297546387,-5.216000080108643 11.713000297546387,-5.216000080108643 C14.218000411987305,-5.216000080108643 16.30500030517578,-3.2950000762939453 16.51300048828125,-0.7990000247955322 C16.51300048828125,-0.7990000247955322 16.614999771118164,0.42800000309944153 16.614999771118164,0.42800000309944153 C16.75,2.0480000972747803 15.545000076293945,3.4719998836517334 13.925000190734863,3.6070001125335693 C13.843999862670898,3.614000082015991 13.762999534606934,3.617000102996826 13.680999755859375,3.617000102996826 C13.680999755859375,3.617000102996826 -0.5289999842643738,3.617000102996826 -0.5289999842643738,3.617000102996826 C-2.1549999713897705,3.617000102996826 -3.4730000495910645,2.2990000247955322 -3.4730000495910645,0.6729999780654907 C-3.4730000495910645,0.5910000205039978 -3.4700000286102295,0.5090000033378601 -3.4630000591278076,0.42800000309944153 C-3.4630000591278076,0.42800000309944153 -3.3610000610351562,-0.7990000247955322 -3.3610000610351562,-0.7990000247955322 C-3.1530001163482666,-3.2950000762939453 -1.065999984741211,-5.216000080108643 1.4390000104904175,-5.216000080108643z M5.104000091552734,-5.216000080108643 C5.104000091552734,-5.216000080108643 7.311999797821045,-1.534999966621399 7.311999797821045,-1.534999966621399 M9.520000457763672,-5.216000080108643 C9.520000457763672,-5.216000080108643 11.727999687194824,-1.534999966621399 11.727999687194824,-1.534999966621399 M0.6880000233650208,-5.216000080108643 C0.6880000233650208,-5.216000080108643 2.8959999084472656,-1.534999966621399 2.8959999084472656,-1.534999966621399"></path></g></g></g><g id="l_d_74" style="display: block;" transform="matrix(1,0,0,1,-23.5,-17.5)" opacity="1"><g id="l_d_78" opacity="1" transform="matrix(1,0,0,1,40,40)"></g><g id="l_d_79" opacity="1" transform="matrix(1,0,0,1,40,40)"><path id="l_d_80" stroke-linecap="butt" stroke-linejoin="miter" fill-opacity="0" stroke-miterlimit="4" stroke="rgb(34,34,34)" stroke-opacity="1" stroke-width="2" d=" M-12,-13 C-12,-13 12,-13 12,-13 C12.552000045776367,-13 13,-12.552000045776367 13,-12 C13,-12 13,12 13,12 C13,12.552000045776367 12.552000045776367,13 12,13 C12,13 -12,13 -12,13 C-12.552000045776367,13 -13,12.552000045776367 -13,12 C-13,12 -13,-12 -13,-12 C-13,-12.552000045776367 -12.552000045776367,-13 -12,-13z"></path></g><g id="l_d_81" opacity="1" transform="matrix(1,0,0,1,40,35)"><path id="l_d_82" stroke-linecap="butt" stroke-linejoin="miter" fill-opacity="0" stroke-miterlimit="4" stroke="rgb(34,34,34)" stroke-opacity="1" stroke-width="2" d=" M13,0 C13,0 -13,0 -13,0"></path></g><g id="l_d_83" opacity="1" transform="matrix(1,0,0,1,49,31)"><path id="l_d_84" fill="rgb(0,0,0)" fill-opacity="1" d=" M0,-1 C0.5519999861717224,-1 1,-0.5519999861717224 1,0 C1,0.5519999861717224 0.5519999861717224,1 0,1 C-0.5519999861717224,1 -1,0.5519999861717224 -1,0 C-1,-0.5519999861717224 -0.5519999861717224,-1 0,-1z"></path></g><g id="l_d_85" opacity="1" transform="matrix(1,0,0,1,43,31)"><path id="l_d_86" fill="rgb(0,0,0)" fill-opacity="1" d=" M0,-1 C0.5519999861717224,-1 1,-0.5519999861717224 1,0 C1,0.5519999861717224 0.5519999861717224,1 0,1 C-0.5519999861717224,1 -1,0.5519999861717224 -1,0 C-1,-0.5519999861717224 -0.5519999861717224,-1 0,-1z"></path></g><g id="l_d_87" opacity="1" transform="matrix(1,0,0,1,37,31)"><path id="l_d_88" fill="rgb(0,0,0)" fill-opacity="1" d=" M0,-1 C0.5519999861717224,-1 1,-0.5519999861717224 1,0 C1,0.5519999861717224 0.5519999861717224,1 0,1 C-0.5519999861717224,1 -1,0.5519999861717224 -1,0 C-1,-0.5519999861717224 -0.5519999861717224,-1 0,-1z"></path></g><g id="l_d_89" opacity="1" transform="matrix(1,0,0,1,31,31)"><path id="l_d_90" fill="rgb(0,0,0)" fill-opacity="1" d=" M0,-1 C0.5519999861717224,-1 1,-0.5519999861717224 1,0 C1,0.5519999861717224 0.5519999861717224,1 0,1 C-0.5519999861717224,1 -1,0.5519999861717224 -1,0 C-1,-0.5519999861717224 -0.5519999861717224,-1 0,-1z"></path></g></g><g id="l_d_66" style="display: block;" transform="matrix(1,0,0,1,-23.5,-17.5)" opacity="1"><g id="l_d_70" opacity="1" transform="matrix(1,0,0,1,40,44)"><path id="l_d_71" stroke-linecap="butt" stroke-linejoin="miter" fill-opacity="0" stroke-miterlimit="4" stroke="rgb(34,34,34)" stroke-opacity="1" stroke-width="2" d="M0 0"></path></g><g id="l_d_72" opacity="1" transform="matrix(1,0,0,1,40,40)"><path id="l_d_73" stroke-linecap="butt" stroke-linejoin="miter" fill-opacity="0" stroke-miterlimit="4" stroke="rgb(34,34,34)" stroke-opacity="1" stroke-width="2" d=" M-9,-1 C-9,-1 9,-1 9,-1 C9,-1 9,9 9,9 C9,9 -9,9 -9,9 C-9,9 -9,-1 -9,-1z M-12,-4.997000217437744 C-12,-4.997000217437744 12,-4.997000217437744 12,-4.997000217437744 C12.552000045776367,-4.997000217437744 13,-4.548999786376953 13,-3.996999979019165 C13,-3.996999979019165 13,12 13,12 C13,12.552000045776367 12.552000045776367,13 12,13 C12,13 -12,13 -12,13 C-12.552000045776367,13 -13,12.552000045776367 -13,12 C-13,12 -13,-3.996999979019165 -13,-3.996999979019165 C-13,-4.548999786376953 -12.552000045776367,-4.997000217437744 -12,-4.997000217437744z"></path></g></g><g id="l_d_58" transform="matrix(0.8532226085662842,0,0,0.8532226085662842,-17.628902435302734,-11.62890338897705)" opacity="1" style="display: none;"><g id="l_d_62" opacity="1" transform="matrix(1,0,0,1,40,44)"><path id="l_d_63" stroke-linecap="butt" stroke-linejoin="miter" fill-opacity="0" stroke-miterlimit="4" stroke="rgb(34,34,34)" stroke-opacity="1" stroke-width="2" d=" M-9,-5 C-9,-5 9,-5 9,-5 C9,-5 9,5 9,5 C9,5 -9,5 -9,5 C-9,5 -9,-5 -9,-5z"></path></g><g id="l_d_64" opacity="1" transform="matrix(1,0,0,1,40,35)"><path id="l_d_65" stroke-linecap="butt" stroke-linejoin="miter" fill-opacity="0" stroke-miterlimit="4" stroke="rgb(34,34,34)" stroke-opacity="1" stroke-width="2" d=" M13,0 C13,0 -13,0 -13,0"></path></g></g></g></svg>