<svg id="l_d_557" xmlns="http://www.w3.org/2000/svg" xmlns:xlink="http://www.w3.org/1999/xlink" viewBox="0 0 45 45" width="45" height="45" preserveAspectRatio="xMidYMid meet" style="width: 100%; height: 100%; transform: translate3d(0px, 0px, 0px); content-visibility: visible;"><defs id="l_d_558"><clipPath id="__lottie_element_212"><rect id="l_d_561" width="45" height="45" x="0" y="0"></rect></clipPath><clipPath id="__lottie_element_254"><path id="l_d_656" d="M0,0 L80,0 L80,80 L0,80z"></path></clipPath><g id="__lottie_element_257"><g id="l_d_659" style="display: none;" transform="matrix(1,0,0,1,40,41)" opacity="1"><g id="l_d_664" opacity="1" transform="matrix(1,0,0,1,-1.2990000247955322,3.5290000438690186)"><path id="l_d_665" fill="rgb(255,255,255)" fill-opacity="1" d=" M3.325500011444092,-11.168000221252441 C3.325500011444092,-11.168000221252441 3.325500011444092,11.168000221252441 3.325500011444092,11.168000221252441 C3.325500011444092,11.168000221252441 -3.325500011444092,11.168000221252441 -3.325500011444092,11.168000221252441 C-3.325500011444092,11.168000221252441 -3.325500011444092,-11.168000221252441 -3.325500011444092,-11.168000221252441 C-3.325500011444092,-11.168000221252441 3.325500011444092,-11.168000221252441 3.325500011444092,-11.168000221252441z"></path></g></g></g><mask id="__lottie_element_257_1" mask-type="alpha"><use id="l_d_673" xlink:href="#__lottie_element_257"></use></mask><clipPath id="__lottie_element_264"><path id="l_d_676" fill="#ffffff" clip-rule="nonzero" d=" M41.37099838256836,34.875 C41.37099838256836,34.875 35,34.875 35,34.875 C35,34.875 35,57.104000091552734 35,57.104000091552734 C35,57.104000091552734 41.37099838256836,57.104000091552734 41.37099838256836,57.104000091552734 C41.37099838256836,57.104000091552734 41.37099838256836,34.875 41.37099838256836,34.875" fill-opacity="1"></path></clipPath><clipPath id="__lottie_element_267"><path id="l_d_685" d="M0,0 L80,0 L80,80 L0,80z"></path></clipPath><g id="__lottie_element_270"><g id="l_d_688" style="display: none;" transform="matrix(1,0,0,1,40,41)" opacity="1"><g id="l_d_693" opacity="1" transform="matrix(1,0,0,1,-1.2990000247955322,3.5290000438690186)"><path id="l_d_694" fill="rgb(255,255,255)" fill-opacity="1" d=" M3.325500011444092,-11.168000221252441 C3.325500011444092,-11.168000221252441 3.325500011444092,11.168000221252441 3.325500011444092,11.168000221252441 C3.325500011444092,11.168000221252441 -3.325500011444092,11.168000221252441 -3.325500011444092,11.168000221252441 C-3.325500011444092,11.168000221252441 -3.325500011444092,-11.168000221252441 -3.325500011444092,-11.168000221252441 C-3.325500011444092,-11.168000221252441 3.325500011444092,-11.168000221252441 3.325500011444092,-11.168000221252441z"></path></g></g></g><mask id="__lottie_element_270_1" mask-type="alpha"><use id="l_d_702" xlink:href="#__lottie_element_270"></use></mask><clipPath id="__lottie_element_277"><path id="l_d_705" fill="#ffffff" clip-rule="nonzero" d=" M41.37099838256836,34.875 C41.37099838256836,34.875 35,34.875 35,34.875 C35,34.875 35,57.104000091552734 35,57.104000091552734 C35,57.104000091552734 41.37099838256836,57.104000091552734 41.37099838256836,57.104000091552734 C41.37099838256836,57.104000091552734 41.37099838256836,34.875 41.37099838256836,34.875" fill-opacity="1"></path></clipPath><clipPath id="__lottie_element_280"><path id="l_d_714" d="M0,0 L80,0 L80,80 L0,80z"></path></clipPath><g id="__lottie_element_283"><g id="l_d_717" style="display: none;" transform="matrix(1,0,0,1,40,41)" opacity="1"><g id="l_d_722" opacity="1" transform="matrix(1,0,0,1,-1.2990000247955322,3.5290000438690186)"><path id="l_d_723" fill="rgb(255,255,255)" fill-opacity="1" d=" M3.325500011444092,-11.168000221252441 C3.325500011444092,-11.168000221252441 3.325500011444092,11.168000221252441 3.325500011444092,11.168000221252441 C3.325500011444092,11.168000221252441 -3.325500011444092,11.168000221252441 -3.325500011444092,11.168000221252441 C-3.325500011444092,11.168000221252441 -3.325500011444092,-11.168000221252441 -3.325500011444092,-11.168000221252441 C-3.325500011444092,-11.168000221252441 3.325500011444092,-11.168000221252441 3.325500011444092,-11.168000221252441z"></path></g></g></g><mask id="__lottie_element_283_1" mask-type="alpha"><use id="l_d_731" xlink:href="#__lottie_element_283"></use></mask><clipPath id="__lottie_element_290"><path id="l_d_734" fill="#ffffff" clip-rule="nonzero" d=" M41.37099838256836,34.875 C41.37099838256836,34.875 35,34.875 35,34.875 C35,34.875 35,57.104000091552734 35,57.104000091552734 C35,57.104000091552734 41.37099838256836,57.104000091552734 41.37099838256836,57.104000091552734 C41.37099838256836,57.104000091552734 41.37099838256836,34.875 41.37099838256836,34.875" fill-opacity="1"></path></clipPath></defs><g id="l_d_559" clip-path="url(#__lottie_element_212)"><g id="l_d_740" transform="matrix(1,0,0,1,-26,-17.25)" opacity="1" style="display: block;"><g id="l_d_744" opacity="1" transform="matrix(1,0,0,1,36.5,40.5)"><path id="l_d_745" stroke-linecap="butt" stroke-linejoin="miter" fill-opacity="0" stroke-miterlimit="4" stroke="rgb(34,34,34)" stroke-opacity="1" stroke-width="2" d=" M7.5,-10.5 C7.5,-10.5 7.5,-12.5 7.5,-12.5 C7.5,-13.604999542236328 6.605000019073486,-14.5 5.5,-14.5 C5.5,-14.5 -5.5,-14.5 -5.5,-14.5 C-6.605000019073486,-14.5 -7.5,-13.604999542236328 -7.5,-12.5 C-7.5,-12.5 -7.5,14.5 -7.5,14.5 C-7.5,14.5 -7.5,14.5 -7.5,14.5"></path></g><g id="l_d_746" opacity="1" transform="matrix(1,0,0,1,44,32)"><path id="l_d_747" stroke-linecap="butt" stroke-linejoin="round" fill-opacity="0" stroke="rgb(34,34,34)" stroke-opacity="1" stroke-width="2" d=" M6,-2 C6,-2 -6,-2 -6,-2 C-6,-2 -6,2 -6,2 C-6,2 6,2 6,2 C6,2 6,-2 6,-2z"></path></g><g id="l_d_748" opacity="1" transform="matrix(1,0,0,1,44,34)"><path id="l_d_749" stroke-linecap="butt" stroke-linejoin="round" fill-opacity="0" stroke="rgb(34,34,34)" stroke-opacity="1" stroke-width="2" d=" M-9,0 C-9,0 9,0 9,0"></path></g></g><g id="l_d_711" clip-path="url(#__lottie_element_280)" transform="matrix(1,0,0,1,-26,-17.25)" opacity="1" style="display: block;"><g id="l_d_732" clip-path="url(#__lottie_element_290)" transform="matrix(1,0,0,1,0,0)" opacity="1" style="display: block;"><g id="l_d_737" opacity="1" transform="matrix(1,0,0,1,0,0)"><g id="l_d_738" opacity="1" transform="matrix(1,0,0,1,39,54)"><path id="l_d_739" fill="rgb(34,34,34)" fill-opacity="1" d=" M5,-17 C4.447999954223633,-17 4,-16.552000045776367 4,-16 C4,-15.447999954223633 4.447999954223633,-15 5,-15 C5.552000045776367,-15 6,-15.447999954223633 6,-16 C6,-16.552000045776367 5.552000045776367,-17 5,-17z M0,-17 C-0.5519999861717224,-17 -1,-16.552000045776367 -1,-16 C-1,-15.447999954223633 -0.5519999861717224,-15 0,-15 C0.5519999861717224,-15 1,-15.447999954223633 1,-16 C1,-16.552000045776367 0.5519999861717224,-17 0,-17z M10,-17 C9.447999954223633,-17 9,-16.552000045776367 9,-16 C9,-15.447999954223633 9.447999954223633,-15 10,-15 C10.552000045776367,-15 11,-15.447999954223633 11,-16 C11,-16.552000045776367 10.552000045776367,-17 10,-17z M5,-13 C4.447999954223633,-13 4,-12.552000045776367 4,-12 C4,-11.447999954223633 4.447999954223633,-11 5,-11 C5.552000045776367,-11 6,-11.447999954223633 6,-12 C6,-12.552000045776367 5.552000045776367,-13 5,-13z M10,-13 C9.447999954223633,-13 9,-12.552000045776367 9,-12 C9,-11.447999954223633 9.447999954223633,-11 10,-11 C10.552000045776367,-11 11,-11.447999954223633 11,-12 C11,-12.552000045776367 10.552000045776367,-13 10,-13z M0,-13 C-0.5519999861717224,-13 -1,-12.552000045776367 -1,-12 C-1,-11.447999954223633 -0.5519999861717224,-11 0,-11 C0.5519999861717224,-11 1,-11.447999954223633 1,-12 C1,-12.552000045776367 0.5519999861717224,-13 0,-13z M5,-9 C4.447999954223633,-9 4,-8.552000045776367 4,-8 C4,-7.447999954223633 4.447999954223633,-7 5,-7 C5.552000045776367,-7 6,-7.447999954223633 6,-8 C6,-8.552000045776367 5.552000045776367,-9 5,-9z M10,-9 C9.447999954223633,-9 9,-8.552000045776367 9,-8 C9,-7.447999954223633 9.447999954223633,-7 10,-7 C10.552000045776367,-7 11,-7.447999954223633 11,-8 C11,-8.552000045776367 10.552000045776367,-9 10,-9z M0,-9 C-0.5519999861717224,-9 -1,-8.552000045776367 -1,-8 C-1,-7.447999954223633 -0.5519999861717224,-7 0,-7 C0.5519999861717224,-7 1,-7.447999954223633 1,-8 C1,-8.552000045776367 0.5519999861717224,-9 0,-9z M5,-5 C4.447999954223633,-5 4,-4.552000045776367 4,-4 C4,-3.447999954223633 4.447999954223633,-3 5,-3 C5.552000045776367,-3 6,-3.447999954223633 6,-4 C6,-4.552000045776367 5.552000045776367,-5 5,-5z M10,-5 C9.447999954223633,-5 9,-4.552000045776367 9,-4 C9,-3.447999954223633 9.447999954223633,-3 10,-3 C10.552000045776367,-3 11,-3.447999954223633 11,-4 C11,-4.552000045776367 10.552000045776367,-5 10,-5z M0,-5 C-0.5519999861717224,-5 -1,-4.552000045776367 -1,-4 C-1,-3.447999954223633 -0.5519999861717224,-3 0,-3 C0.5519999861717224,-3 1,-3.447999954223633 1,-4 C1,-4.552000045776367 0.5519999861717224,-5 0,-5z M5,-1 C4.447999954223633,-1 4,-0.5519999861717224 4,0 C4,0.5519999861717224 4.447999954223633,1 5,1 C5.552000045776367,1 6,0.5519999861717224 6,0 C6,-0.5519999861717224 5.552000045776367,-1 5,-1z M10,-1 C9.447999954223633,-1 9,-0.5519999861717224 9,0 C9,0.5519999861717224 9.447999954223633,1 10,1 C10.552000045776367,1 11,0.5519999861717224 11,0 C11,-0.5519999861717224 10.552000045776367,-1 10,-1z M0,-1 C-0.5519999861717224,-1 -1,-0.5519999861717224 -1,0 C-1,0.5519999861717224 -0.5519999861717224,1 0,1 C0.5519999861717224,1 1,0.5519999861717224 1,0 C1,-0.5519999861717224 0.5519999861717224,-1 0,-1z"></path></g></g></g><g id="l_d_725" mask="url(#__lottie_element_283_1)" style="display: block;"><g id="l_d_724" transform="matrix(1,0,0,1,40,64.91400146484375)" opacity="1"><g id="l_d_728" opacity="1" transform="matrix(1,0,0,1,0,0)"><path id="l_d_729" stroke-linecap="round" stroke-linejoin="miter" fill-opacity="0" stroke-miterlimit="4" stroke-dasharray=" 0.1 4" stroke-dashoffset="6" stroke="rgb(34,34,34)" stroke-opacity="1" stroke-width="2" d=" M-1.00600004196167,-29.00200080871582 C-1.00600004196167,-29.00200080871582 -1.0119999647140503,30.87299919128418 -1.0119999647140503,30.87299919128418"></path></g></g></g></g><g id="l_d_682" clip-path="url(#__lottie_element_267)" transform="matrix(1,0,0,1,-21,-17.25)" opacity="1" style="display: block;"><g id="l_d_703" clip-path="url(#__lottie_element_277)" transform="matrix(1,0,0,1,0,0)" opacity="1" style="display: block;"><g id="l_d_708" opacity="1" transform="matrix(1,0,0,1,0,0)"><g id="l_d_709" opacity="1" transform="matrix(1,0,0,1,39,54)"><path id="l_d_710" fill="rgb(34,34,34)" fill-opacity="1" d=" M5,-17 C4.447999954223633,-17 4,-16.552000045776367 4,-16 C4,-15.447999954223633 4.447999954223633,-15 5,-15 C5.552000045776367,-15 6,-15.447999954223633 6,-16 C6,-16.552000045776367 5.552000045776367,-17 5,-17z M0,-17 C-0.5519999861717224,-17 -1,-16.552000045776367 -1,-16 C-1,-15.447999954223633 -0.5519999861717224,-15 0,-15 C0.5519999861717224,-15 1,-15.447999954223633 1,-16 C1,-16.552000045776367 0.5519999861717224,-17 0,-17z M10,-17 C9.447999954223633,-17 9,-16.552000045776367 9,-16 C9,-15.447999954223633 9.447999954223633,-15 10,-15 C10.552000045776367,-15 11,-15.447999954223633 11,-16 C11,-16.552000045776367 10.552000045776367,-17 10,-17z M5,-13 C4.447999954223633,-13 4,-12.552000045776367 4,-12 C4,-11.447999954223633 4.447999954223633,-11 5,-11 C5.552000045776367,-11 6,-11.447999954223633 6,-12 C6,-12.552000045776367 5.552000045776367,-13 5,-13z M10,-13 C9.447999954223633,-13 9,-12.552000045776367 9,-12 C9,-11.447999954223633 9.447999954223633,-11 10,-11 C10.552000045776367,-11 11,-11.447999954223633 11,-12 C11,-12.552000045776367 10.552000045776367,-13 10,-13z M0,-13 C-0.5519999861717224,-13 -1,-12.552000045776367 -1,-12 C-1,-11.447999954223633 -0.5519999861717224,-11 0,-11 C0.5519999861717224,-11 1,-11.447999954223633 1,-12 C1,-12.552000045776367 0.5519999861717224,-13 0,-13z M5,-9 C4.447999954223633,-9 4,-8.552000045776367 4,-8 C4,-7.447999954223633 4.447999954223633,-7 5,-7 C5.552000045776367,-7 6,-7.447999954223633 6,-8 C6,-8.552000045776367 5.552000045776367,-9 5,-9z M10,-9 C9.447999954223633,-9 9,-8.552000045776367 9,-8 C9,-7.447999954223633 9.447999954223633,-7 10,-7 C10.552000045776367,-7 11,-7.447999954223633 11,-8 C11,-8.552000045776367 10.552000045776367,-9 10,-9z M0,-9 C-0.5519999861717224,-9 -1,-8.552000045776367 -1,-8 C-1,-7.447999954223633 -0.5519999861717224,-7 0,-7 C0.5519999861717224,-7 1,-7.447999954223633 1,-8 C1,-8.552000045776367 0.5519999861717224,-9 0,-9z M5,-5 C4.447999954223633,-5 4,-4.552000045776367 4,-4 C4,-3.447999954223633 4.447999954223633,-3 5,-3 C5.552000045776367,-3 6,-3.447999954223633 6,-4 C6,-4.552000045776367 5.552000045776367,-5 5,-5z M10,-5 C9.447999954223633,-5 9,-4.552000045776367 9,-4 C9,-3.447999954223633 9.447999954223633,-3 10,-3 C10.552000045776367,-3 11,-3.447999954223633 11,-4 C11,-4.552000045776367 10.552000045776367,-5 10,-5z M0,-5 C-0.5519999861717224,-5 -1,-4.552000045776367 -1,-4 C-1,-3.447999954223633 -0.5519999861717224,-3 0,-3 C0.5519999861717224,-3 1,-3.447999954223633 1,-4 C1,-4.552000045776367 0.5519999861717224,-5 0,-5z M5,-1 C4.447999954223633,-1 4,-0.5519999861717224 4,0 C4,0.5519999861717224 4.447999954223633,1 5,1 C5.552000045776367,1 6,0.5519999861717224 6,0 C6,-0.5519999861717224 5.552000045776367,-1 5,-1z M10,-1 C9.447999954223633,-1 9,-0.5519999861717224 9,0 C9,0.5519999861717224 9.447999954223633,1 10,1 C10.552000045776367,1 11,0.5519999861717224 11,0 C11,-0.5519999861717224 10.552000045776367,-1 10,-1z M0,-1 C-0.5519999861717224,-1 -1,-0.5519999861717224 -1,0 C-1,0.5519999861717224 -0.5519999861717224,1 0,1 C0.5519999861717224,1 1,0.5519999861717224 1,0 C1,-0.5519999861717224 0.5519999861717224,-1 0,-1z"></path></g></g></g><g id="l_d_696" mask="url(#__lottie_element_270_1)" style="display: block;"><g id="l_d_695" transform="matrix(1,0,0,1,40,64.91400146484375)" opacity="1"><g id="l_d_699" opacity="1" transform="matrix(1,0,0,1,0,0)"><path id="l_d_700" stroke-linecap="round" stroke-linejoin="miter" fill-opacity="0" stroke-miterlimit="4" stroke-dasharray=" 0.1 4" stroke-dashoffset="6" stroke="rgb(34,34,34)" stroke-opacity="1" stroke-width="2" d=" M-1.00600004196167,-29.00200080871582 C-1.00600004196167,-29.00200080871582 -1.0119999647140503,30.87299919128418 -1.0119999647140503,30.87299919128418"></path></g></g></g></g><g id="l_d_653" clip-path="url(#__lottie_element_254)" transform="matrix(1,0,0,1,-16.08300018310547,-17.25)" opacity="1" style="display: block;"><g id="l_d_674" clip-path="url(#__lottie_element_264)" transform="matrix(1,0,0,1,0,0)" opacity="1" style="display: block;"><g id="l_d_679" opacity="1" transform="matrix(1,0,0,1,0,0)"><g id="l_d_680" opacity="1" transform="matrix(1,0,0,1,39,54)"><path id="l_d_681" fill="rgb(34,34,34)" fill-opacity="1" d=" M5,-17 C4.447999954223633,-17 4,-16.552000045776367 4,-16 C4,-15.447999954223633 4.447999954223633,-15 5,-15 C5.552000045776367,-15 6,-15.447999954223633 6,-16 C6,-16.552000045776367 5.552000045776367,-17 5,-17z M0,-17 C-0.5519999861717224,-17 -1,-16.552000045776367 -1,-16 C-1,-15.447999954223633 -0.5519999861717224,-15 0,-15 C0.5519999861717224,-15 1,-15.447999954223633 1,-16 C1,-16.552000045776367 0.5519999861717224,-17 0,-17z M10,-17 C9.447999954223633,-17 9,-16.552000045776367 9,-16 C9,-15.447999954223633 9.447999954223633,-15 10,-15 C10.552000045776367,-15 11,-15.447999954223633 11,-16 C11,-16.552000045776367 10.552000045776367,-17 10,-17z M5,-13 C4.447999954223633,-13 4,-12.552000045776367 4,-12 C4,-11.447999954223633 4.447999954223633,-11 5,-11 C5.552000045776367,-11 6,-11.447999954223633 6,-12 C6,-12.552000045776367 5.552000045776367,-13 5,-13z M10,-13 C9.447999954223633,-13 9,-12.552000045776367 9,-12 C9,-11.447999954223633 9.447999954223633,-11 10,-11 C10.552000045776367,-11 11,-11.447999954223633 11,-12 C11,-12.552000045776367 10.552000045776367,-13 10,-13z M0,-13 C-0.5519999861717224,-13 -1,-12.552000045776367 -1,-12 C-1,-11.447999954223633 -0.5519999861717224,-11 0,-11 C0.5519999861717224,-11 1,-11.447999954223633 1,-12 C1,-12.552000045776367 0.5519999861717224,-13 0,-13z M5,-9 C4.447999954223633,-9 4,-8.552000045776367 4,-8 C4,-7.447999954223633 4.447999954223633,-7 5,-7 C5.552000045776367,-7 6,-7.447999954223633 6,-8 C6,-8.552000045776367 5.552000045776367,-9 5,-9z M10,-9 C9.447999954223633,-9 9,-8.552000045776367 9,-8 C9,-7.447999954223633 9.447999954223633,-7 10,-7 C10.552000045776367,-7 11,-7.447999954223633 11,-8 C11,-8.552000045776367 10.552000045776367,-9 10,-9z M0,-9 C-0.5519999861717224,-9 -1,-8.552000045776367 -1,-8 C-1,-7.447999954223633 -0.5519999861717224,-7 0,-7 C0.5519999861717224,-7 1,-7.447999954223633 1,-8 C1,-8.552000045776367 0.5519999861717224,-9 0,-9z M5,-5 C4.447999954223633,-5 4,-4.552000045776367 4,-4 C4,-3.447999954223633 4.447999954223633,-3 5,-3 C5.552000045776367,-3 6,-3.447999954223633 6,-4 C6,-4.552000045776367 5.552000045776367,-5 5,-5z M10,-5 C9.447999954223633,-5 9,-4.552000045776367 9,-4 C9,-3.447999954223633 9.447999954223633,-3 10,-3 C10.552000045776367,-3 11,-3.447999954223633 11,-4 C11,-4.552000045776367 10.552000045776367,-5 10,-5z M0,-5 C-0.5519999861717224,-5 -1,-4.552000045776367 -1,-4 C-1,-3.447999954223633 -0.5519999861717224,-3 0,-3 C0.5519999861717224,-3 1,-3.447999954223633 1,-4 C1,-4.552000045776367 0.5519999861717224,-5 0,-5z M5,-1 C4.447999954223633,-1 4,-0.5519999861717224 4,0 C4,0.5519999861717224 4.447999954223633,1 5,1 C5.552000045776367,1 6,0.5519999861717224 6,0 C6,-0.5519999861717224 5.552000045776367,-1 5,-1z M10,-1 C9.447999954223633,-1 9,-0.5519999861717224 9,0 C9,0.5519999861717224 9.447999954223633,1 10,1 C10.552000045776367,1 11,0.5519999861717224 11,0 C11,-0.5519999861717224 10.552000045776367,-1 10,-1z M0,-1 C-0.5519999861717224,-1 -1,-0.5519999861717224 -1,0 C-1,0.5519999861717224 -0.5519999861717224,1 0,1 C0.5519999861717224,1 1,0.5519999861717224 1,0 C1,-0.5519999861717224 0.5519999861717224,-1 0,-1z"></path></g></g></g><g id="l_d_667" mask="url(#__lottie_element_257_1)" style="display: block;"><g id="l_d_666" transform="matrix(1,0,0,1,40,64.91400146484375)" opacity="1"><g id="l_d_670" opacity="1" transform="matrix(1,0,0,1,0,0)"><path id="l_d_671" stroke-linecap="round" stroke-linejoin="miter" fill-opacity="0" stroke-miterlimit="4" stroke-dasharray=" 0.1 4" stroke-dashoffset="6" stroke="rgb(34,34,34)" stroke-opacity="1" stroke-width="2" d=" M-1.00600004196167,-29.00200080871582 C-1.00600004196167,-29.00200080871582 -1.0119999647140503,30.87299919128418 -1.0119999647140503,30.87299919128418"></path></g></g></g></g><g id="l_d_646" style="display: none;" transform="matrix(0,0,0,0,6.507830619812012,36.17959213256836)" opacity="1"><g id="l_d_650" opacity="1" transform="matrix(1,0,0,1,0,0)"><g id="l_d_651" opacity="1" transform="matrix(1,0,0,1,39,54)"><path id="l_d_652" fill="rgb(34,34,34)" fill-opacity="1" d=" M0,-1 C-0.5519999861717224,-1 -1,-0.5519999861717224 -1,0 C-1,0.5519999861717224 -0.5519999861717224,1 0,1 C0.5519999861717224,1 1,0.5519999861717224 1,0 C1,-0.5519999861717224 0.5519999861717224,-1 0,-1z"></path></g></g></g><g id="l_d_639" style="display: none;" transform="matrix(0,0,0,0,5.875,34)" opacity="1"><g id="l_d_643" opacity="1" transform="matrix(1,0,0,1,0,0)"><g id="l_d_644" opacity="1" transform="matrix(1,0,0,1,39,54)"><path id="l_d_645" fill="rgb(34,34,34)" fill-opacity="1" d=" M0,-1 C-0.5519999861717224,-1 -1,-0.5519999861717224 -1,0 C-1,0.5519999861717224 -0.5519999861717224,1 0,1 C0.5519999861717224,1 1,0.5519999861717224 1,0 C1,-0.5519999861717224 0.5519999861717224,-1 0,-1z"></path></g></g></g><g id="l_d_632" style="display: none;" transform="matrix(0,0,0,0,4.875,36.75)" opacity="1"><g id="l_d_636" opacity="1" transform="matrix(1,0,0,1,0,0)"><g id="l_d_637" opacity="1" transform="matrix(1,0,0,1,39,54)"><path id="l_d_638" fill="rgb(34,34,34)" fill-opacity="1" d=" M0,-1 C-0.5519999861717224,-1 -1,-0.5519999861717224 -1,0 C-1,0.5519999861717224 -0.5519999861717224,1 0,1 C0.5519999861717224,1 1,0.5519999861717224 1,0 C1,-0.5519999861717224 0.5519999861717224,-1 0,-1z"></path></g></g></g><g id="l_d_625" style="display: none;" transform="matrix(0,0,0,0,7.625,30.25)" opacity="1"><g id="l_d_629" opacity="1" transform="matrix(1,0,0,1,0,0)"><g id="l_d_630" opacity="1" transform="matrix(1,0,0,1,39,54)"><path id="l_d_631" fill="rgb(34,34,34)" fill-opacity="1" d=" M0,-1 C-0.5519999861717224,-1 -1,-0.5519999861717224 -1,0 C-1,0.5519999861717224 -0.5519999861717224,1 0,1 C0.5519999861717224,1 1,0.5519999861717224 1,0 C1,-0.5519999861717224 0.5519999861717224,-1 0,-1z"></path></g></g></g><g id="l_d_618" style="display: none;" transform="matrix(0.0002500000118743628,0,0,0.0002500000118743628,6.490779876708984,36.172576904296875)" opacity="1"><g id="l_d_622" opacity="1" transform="matrix(1,0,0,1,0,0)"><g id="l_d_623" opacity="1" transform="matrix(1,0,0,1,39,54)"><path id="l_d_624" fill="rgb(34,34,34)" fill-opacity="1" d=" M0,-1 C-0.5519999861717224,-1 -1,-0.5519999861717224 -1,0 C-1,0.5519999861717224 -0.5519999861717224,1 0,1 C0.5519999861717224,1 1,0.5519999861717224 1,0 C1,-0.5519999861717224 0.5519999861717224,-1 0,-1z"></path></g></g></g><g id="l_d_611" style="display: none;" transform="matrix(0,0,0,0,30.002971649169922,36.17959213256836)" opacity="1"><g id="l_d_615" opacity="1" transform="matrix(1,0,0,1,0,0)"><g id="l_d_616" opacity="1" transform="matrix(1,0,0,1,39,54)"><path id="l_d_617" fill="rgb(34,34,34)" fill-opacity="1" d=" M0,-1 C-0.5519999861717224,-1 -1,-0.5519999861717224 -1,0 C-1,0.5519999861717224 -0.5519999861717224,1 0,1 C0.5519999861717224,1 1,0.5519999861717224 1,0 C1,-0.5519999861717224 0.5519999861717224,-1 0,-1z"></path></g></g></g><g id="l_d_604" style="display: none;" transform="matrix(0,0,0,0,29.692001342773438,27.533000946044922)" opacity="1"><g id="l_d_608" opacity="1" transform="matrix(1,0,0,1,0,0)"><g id="l_d_609" opacity="1" transform="matrix(1,0,0,1,39,54)"><path id="l_d_610" fill="rgb(34,34,34)" fill-opacity="1" d=" M0,-1 C-0.5519999861717224,-1 -1,-0.5519999861717224 -1,0 C-1,0.5519999861717224 -0.5519999861717224,1 0,1 C0.5519999861717224,1 1,0.5519999861717224 1,0 C1,-0.5519999861717224 0.5519999861717224,-1 0,-1z"></path></g></g></g><g id="l_d_597" style="display: none;" transform="matrix(0,0,0,0,30.727996826171875,36.625)" opacity="1"><g id="l_d_601" opacity="1" transform="matrix(1,0,0,1,0,0)"><g id="l_d_602" opacity="1" transform="matrix(1,0,0,1,39,54)"><path id="l_d_603" fill="rgb(34,34,34)" fill-opacity="1" d=" M0,-1 C-0.5519999861717224,-1 -1,-0.5519999861717224 -1,0 C-1,0.5519999861717224 -0.5519999861717224,1 0,1 C0.5519999861717224,1 1,0.5519999861717224 1,0 C1,-0.5519999861717224 0.5519999861717224,-1 0,-1z"></path></g></g></g><g id="l_d_590" style="display: none;" transform="matrix(0,0,0,0,32.06199645996094,30.686996459960938)" opacity="1"><g id="l_d_594" opacity="1" transform="matrix(1,0,0,1,0,0)"><g id="l_d_595" opacity="1" transform="matrix(1,0,0,1,39,54)"><path id="l_d_596" fill="rgb(34,34,34)" fill-opacity="1" d=" M0,-1 C-0.5519999861717224,-1 -1,-0.5519999861717224 -1,0 C-1,0.5519999861717224 -0.5519999861717224,1 0,1 C0.5519999861717224,1 1,0.5519999861717224 1,0 C1,-0.5519999861717224 0.5519999861717224,-1 0,-1z"></path></g></g></g><g id="l_d_583" style="display: none;" transform="matrix(0.0002500000118743628,0,0,0.0002500000118743628,29.42613983154297,27.299362182617188)" opacity="1"><g id="l_d_587" opacity="1" transform="matrix(1,0,0,1,0,0)"><g id="l_d_588" opacity="1" transform="matrix(1,0,0,1,39,54)"><path id="l_d_589" fill="rgb(34,34,34)" fill-opacity="1" d=" M0,-1 C-0.5519999861717224,-1 -1,-0.5519999861717224 -1,0 C-1,0.5519999861717224 -0.5519999861717224,1 0,1 C0.5519999861717224,1 1,0.5519999861717224 1,0 C1,-0.5519999861717224 0.5519999861717224,-1 0,-1z"></path></g></g></g><g id="l_d_576" style="display: none;" transform="matrix(0,0,0,0,13.360203742980957,29.252269744873047)" opacity="1"><g id="l_d_580" opacity="1" transform="matrix(1,0,0,1,0,0)"><g id="l_d_581" opacity="1" transform="matrix(1,0,0,1,39,54)"><path id="l_d_582" fill="rgb(34,34,34)" fill-opacity="1" d=" M0,-1 C-0.5519999861717224,-1 -1,-0.5519999861717224 -1,0 C-1,0.5519999861717224 -0.5519999861717224,1 0,1 C0.5519999861717224,1 1,0.5519999861717224 1,0 C1,-0.5519999861717224 0.5519999861717224,-1 0,-1z"></path></g></g></g><g id="l_d_569" style="display: none;" transform="matrix(0,0,0,0,23.041000366210938,30.561996459960938)" opacity="1"><g id="l_d_573" opacity="1" transform="matrix(1,0,0,1,0,0)"><g id="l_d_574" opacity="1" transform="matrix(1,0,0,1,39,54)"><path id="l_d_575" fill="rgb(34,34,34)" fill-opacity="1" d=" M0,-1 C-0.5519999861717224,-1 -1,-0.5519999861717224 -1,0 C-1,0.5519999861717224 -0.5519999861717224,1 0,1 C0.5519999861717224,1 1,0.5519999861717224 1,0 C1,-0.5519999861717224 0.5519999861717224,-1 0,-1z"></path></g></g></g><g id="l_d_562" style="display: none;" transform="matrix(0,0,0,0,26.811996459960938,27.75)" opacity="1"><g id="l_d_566" opacity="1" transform="matrix(1,0,0,1,0,0)"><g id="l_d_567" opacity="1" transform="matrix(1,0,0,1,39,54)"><path id="l_d_568" fill="rgb(34,34,34)" fill-opacity="1" d=" M0,-1 C-0.5519999861717224,-1 -1,-0.5519999861717224 -1,0 C-1,0.5519999861717224 -0.5519999861717224,1 0,1 C0.5519999861717224,1 1,0.5519999861717224 1,0 C1,-0.5519999861717224 0.5519999861717224,-1 0,-1z"></path></g></g></g></g></svg>