<svg id="l_d_330" xmlns="http://www.w3.org/2000/svg" xmlns:xlink="http://www.w3.org/1999/xlink" viewBox="0 0 45 45" width="45" height="45" preserveAspectRatio="xMidYMid meet" style="width: 100%; height: 100%; transform: translate3d(0px, 0px, 0px); content-visibility: visible;"><defs id="l_d_331"><clipPath id="__lottie_element_120"><rect id="l_d_334" width="45" height="45" x="0" y="0"></rect></clipPath><g id="__lottie_element_121"><g id="l_d_335" transform="matrix(1,0,0,1,-24.875,-16.75)" opacity="1" style="display: none;"><g id="l_d_340" opacity="1" transform="matrix(1,0,0,1,40,38)"><path id="l_d_341" stroke-linecap="butt" stroke-linejoin="miter" fill-opacity="0" stroke-miterlimit="4" stroke="rgb(34,34,34)" stroke-opacity="1" stroke-width="2" d=" M0,-13 C6.626999855041504,-13 12,-7.138000011444092 12,-1.2760000228881836 C13.241999626159668,-24.229000091552734 7.079999923706055,-34.11000061035156 7.079999923706055,-34.11000061035156 C7.079999923706055,-34.11000061035156 -7.150000095367432,-34.11000061035156 -7.150000095367432,-34.11000061035156 C-7.150000095367432,-34.11000061035156 -15.02400016784668,-26.775999069213867 -12,-1.2760000228881836 C-12,-7.750999927520752 -6.626999855041504,-13 0,-13z"></path><path id="l_d_342" fill="rgb(0,0,0)" fill-opacity="1" d=" M0,-13 C6.626999855041504,-13 12,-7.138000011444092 12,-1.2760000228881836 C13.241999626159668,-24.229000091552734 7.079999923706055,-34.11000061035156 7.079999923706055,-34.11000061035156 C7.079999923706055,-34.11000061035156 -7.150000095367432,-34.11000061035156 -7.150000095367432,-34.11000061035156 C-7.150000095367432,-34.11000061035156 -15.02400016784668,-26.775999069213867 -12,-1.2760000228881836 C-12,-7.750999927520752 -6.626999855041504,-13 0,-13z"></path></g></g></g><mask id="__lottie_element_121_1" mask-type="alpha"><use id="l_d_350" xlink:href="#__lottie_element_121"></use></mask></defs><g id="l_d_332" clip-path="url(#__lottie_element_120)"><g id="l_d_351" transform="matrix(1,0,0,1,-24.875,-16.75)" opacity="1" style="display: block;"><g id="l_d_355" opacity="1" transform="matrix(1,0,0,1,40,40)"></g><g id="l_d_356" opacity="1" transform="matrix(1,0,0,1,40,38)"><path id="l_d_357" stroke-linecap="butt" stroke-linejoin="miter" fill-opacity="0" stroke-miterlimit="4" stroke="rgb(34,34,34)" stroke-opacity="1" stroke-width="2" d=" M0,-13 C6.626999855041504,-13 12,-7.138000011444092 12,-1.2760000228881836 C12,3.5199999809265137 10.371999740600586,8.279000282287598 7.114999771118164,13 C7.114999771118164,13 -7.114999771118164,13 -7.114999771118164,13 C-10.371999740600586,8.279000282287598 -12,3.5199999809265137 -12,-1.2760000228881836 C-12,-7.750999927520752 -6.626999855041504,-13 0,-13z"></path></g><g id="l_d_358" opacity="1" transform="matrix(1,0,0,1,40,44)"><path id="l_d_359" stroke-linecap="butt" stroke-linejoin="miter" fill-opacity="0" stroke-miterlimit="4" stroke="rgb(34,34,34)" stroke-opacity="1" stroke-width="2" d=" M0,-2.375 C1.312000036239624,-2.375 2.375,-1.312000036239624 2.375,0 C2.375,1.312000036239624 1.312000036239624,2.375 0,2.375 C-1.312000036239624,2.375 -2.375,1.312000036239624 -2.375,0 C-2.375,-1.312000036239624 -1.312000036239624,-2.375 0,-2.375z"></path></g><g id="l_d_360" opacity="1" transform="matrix(1,0,0,1,40,33)"><path id="l_d_361" stroke-linecap="butt" stroke-linejoin="miter" fill-opacity="0" stroke-miterlimit="4" stroke="rgb(34,34,34)" stroke-opacity="1" stroke-width="2" d=" M8,4 C8,-0.4180000126361847 4.418000221252441,-4 0,-4 C-4.418000221252441,-4 -8,-0.4180000126361847 -8,4 C2.6670000553131104,4 8,4 8,4z"></path></g><g id="l_d_362" opacity="1" transform="matrix(1,0,0,1,41.5,35)"><path id="l_d_363" stroke-linecap="butt" stroke-linejoin="round" fill-opacity="0" stroke="rgb(34,34,34)" stroke-opacity="1" stroke-width="2" d=" M-1.5,2 C-1.5,2 1.5,-2 1.5,-2"></path></g><g id="l_d_364" opacity="1" transform="matrix(1,0,0,1,40,54)"><path id="l_d_365" stroke-linecap="butt" stroke-linejoin="miter" fill-opacity="0" stroke-miterlimit="4" stroke="rgb(34,34,34)" stroke-opacity="1" stroke-width="2" d=" M0,-2 C0,-2 0,2 0,2"></path></g></g><g id="l_d_344" mask="url(#__lottie_element_121_1)" style="display: none;"><g id="l_d_343" transform="matrix(0.7400000095367432,0,0,0.7400000095367432,15.125,13.619499206542969)" opacity="1"><g id="l_d_347" opacity="1" transform="matrix(1,0,0,1,0,0)"><path id="l_d_348" stroke-linecap="butt" stroke-linejoin="miter" fill-opacity="0" stroke-miterlimit="4" stroke="rgb(34,34,34)" stroke-opacity="1" stroke-width="2" d=" M0,-2.4565000534057617 C1.355742335319519,-2.4565000534057617 2.4565000534057617,-1.355742335319519 2.4565000534057617,0 C2.4565000534057617,1.355742335319519 1.355742335319519,2.4565000534057617 0,2.4565000534057617 C-1.355742335319519,2.4565000534057617 -2.4565000534057617,1.355742335319519 -2.4565000534057617,0 C-2.4565000534057617,-1.355742335319519 -1.355742335319519,-2.4565000534057617 0,-2.4565000534057617z"></path></g></g></g></g></svg>