<svg id="l_d_804" xmlns="http://www.w3.org/2000/svg" xmlns:xlink="http://www.w3.org/1999/xlink" viewBox="0 0 45 45" width="45" height="45" preserveAspectRatio="xMidYMid meet" style="width: 100%; height: 100%; transform: translate3d(0px, 0px, 0px); content-visibility: visible;"><defs id="l_d_805"><clipPath id="__lottie_element_322"><rect id="l_d_808" width="45" height="45" x="0" y="0"></rect></clipPath><clipPath id="__lottie_element_328"><path id="l_d_833" d="M0,0 L80,0 L80,80 L0,80z"></path></clipPath><clipPath id="__lottie_element_335"><path id="l_d_846" d="M0,0 L80,0 L80,80 L0,80z"></path></clipPath></defs><g id="l_d_806" clip-path="url(#__lottie_element_322)"><g id="l_d_843" clip-path="url(#__lottie_element_335)" transform="matrix(1,0,0,1,-25,-17.625)" opacity="1" style="display: block;"><g id="l_d_849" transform="matrix(1,0,0,1,0,0)" opacity="1" style="display: block;"><g id="l_d_853" opacity="1" transform="matrix(1,0,0,1,0,0)"><g id="l_d_854" opacity="1" transform="matrix(1,0,0,1,40,35)"><path id="l_d_855" stroke-linecap="butt" stroke-linejoin="miter" fill-opacity="0" stroke-miterlimit="4" stroke="rgb(34,34,34)" stroke-opacity="1" stroke-width="2" d=" M0,-9 C4.418000221252441,-9 8,-5.418000221252441 8,-1 C8,-1 8,9 8,9 C8,9 0,9 0,9 C0,9 0,-5.875 0,-9z M-0.08299999684095383,1 C-0.08299999684095383,1 8,1 8,1 M0,-9.956999778747559 C0,-9.956999778747559 0,-8.454999923706055 0,-8.454999923706055 C0,-8.454999923706055 0,9 0,9"></path></g></g></g></g><g id="l_d_830" clip-path="url(#__lottie_element_328)" transform="matrix(-1,0,0,1,55,-17.625)" opacity="1" style="display: block;"><g id="l_d_836" transform="matrix(1,0,0,1,0,0)" opacity="1" style="display: block;"><g id="l_d_840" opacity="1" transform="matrix(1,0,0,1,0,0)"><g id="l_d_841" opacity="1" transform="matrix(1,0,0,1,40,35)"><path id="l_d_842" stroke-linecap="butt" stroke-linejoin="miter" fill-opacity="0" stroke-miterlimit="4" stroke="rgb(34,34,34)" stroke-opacity="1" stroke-width="2" d=" M0,-9 C4.418000221252441,-9 8,-5.418000221252441 8,-1 C8,-1 8,9 8,9 C8,9 0,9 0,9 C0,9 0,-5.875 0,-9z M-0.08299999684095383,1 C-0.08299999684095383,1 8,1 8,1 M0,-9.956999778747559 C0,-9.956999778747559 0,-8.454999923706055 0,-8.454999923706055 C0,-8.454999923706055 0,9 0,9"></path></g></g></g></g><g id="l_d_809" transform="matrix(1,0,0,1,-25,-17.625)" opacity="1" style="display: block;"><g id="l_d_813" opacity="1" transform="matrix(1,0,0,1,0,0)"><g id="l_d_814" opacity="1" transform="matrix(1,0,0,1,50,49)"><path id="l_d_815" stroke-linecap="butt" stroke-linejoin="miter" fill-opacity="0" stroke-miterlimit="4" stroke="rgb(34,34,34)" stroke-opacity="1" stroke-width="2" d=" M0,-5 C0,-5 0,5 0,5"></path></g><g id="l_d_816" opacity="1" transform="matrix(1,0,0,1,46,49)"><path id="l_d_817" stroke-linecap="butt" stroke-linejoin="miter" fill-opacity="0" stroke-miterlimit="4" stroke="rgb(34,34,34)" stroke-opacity="1" stroke-width="2" d=" M0,-5 C0,-5 0,5 0,5"></path></g><g id="l_d_818" opacity="1" transform="matrix(1,0,0,1,42,49)"><path id="l_d_819" stroke-linecap="butt" stroke-linejoin="miter" fill-opacity="0" stroke-miterlimit="4" stroke="rgb(34,34,34)" stroke-opacity="1" stroke-width="2" d=" M0,-5 C0,-5 0,5 0,5"></path></g><g id="l_d_820" opacity="1" transform="matrix(1,0,0,1,38,49)"><path id="l_d_821" stroke-linecap="butt" stroke-linejoin="miter" fill-opacity="0" stroke-miterlimit="4" stroke="rgb(34,34,34)" stroke-opacity="1" stroke-width="2" d=" M0,-5 C0,-5 0,5 0,5"></path></g><g id="l_d_822" opacity="1" transform="matrix(1,0,0,1,34,49)"><path id="l_d_823" stroke-linecap="butt" stroke-linejoin="miter" fill-opacity="0" stroke-miterlimit="4" stroke="rgb(34,34,34)" stroke-opacity="1" stroke-width="2" d=" M0,-5 C0,-5 0,5 0,5"></path></g><g id="l_d_824" opacity="1" transform="matrix(1,0,0,1,30,49)"><path id="l_d_825" stroke-linecap="butt" stroke-linejoin="miter" fill-opacity="0" stroke-miterlimit="4" stroke="rgb(34,34,34)" stroke-opacity="1" stroke-width="2" d=" M0,-5 C0,-5 0,5 0,5"></path></g><g id="l_d_826" opacity="1" transform="matrix(1,0,0,1,40,54)"><path id="l_d_827" stroke-linecap="butt" stroke-linejoin="miter" fill-opacity="0" stroke-miterlimit="4" stroke="rgb(34,34,34)" stroke-opacity="1" stroke-width="2" d=" M-13,0 C-13,0 13,0 13,0"></path></g><g id="l_d_828" opacity="1" transform="matrix(1,0,0,1,40,44)"><path id="l_d_829" stroke-linecap="butt" stroke-linejoin="miter" fill-opacity="0" stroke-miterlimit="4" stroke="rgb(34,34,34)" stroke-opacity="1" stroke-width="2" d=" M-13,0 C-13,0 13,0 13,0"></path></g></g></g></g></svg>