<svg id="l_d_180" xmlns="http://www.w3.org/2000/svg" viewBox="0 0 45 45" preserveAspectRatio="xMidYMid meet" style="width:100%;height:100%;content-visibility:visible"><defs id="l_d_181"><clipPath id="__lottie_element_68"><rect id="l_d_184" width="45" height="45" x="0" y="0"/></clipPath></defs><g id="l_d_182" clip-path="url(#__lottie_element_68)"><g id="l_d_185" transform="translate(-14.162 -7.695)scale(.75153)" opacity="1" display="block"><g id="l_d_189" opacity="1"><path id="l_d_190" fill-opacity="1" d="M40.983 25.161v4.03l4.026-2.325 1 1.733-5.026 2.901v6.928l6-3.464v-5.803h2v4.648l3.491-2.014 1 1.732-3.491 2.015 4.026 2.324-1 1.733-5.026-2.903-6 3.464 6.001 3.465 5.025-2.902 1 1.732-4.026 2.324 3.491 2.016-1 1.732-3.491-2.015v4.649h-2v-5.804l-6-3.465v6.929l5.026 2.902-1 1.732-4.026-2.325v4.031h-2V51.13l-4.026 2.325-1-1.732 5.026-2.902v-6.929l-6 3.464v5.805h-2v-4.65l-3.49 2.016-1-1.732 3.489-2.016-4.025-2.324 1-1.732 5.025 2.901 6-3.464-5.999-3.464-5.026 2.903-1-1.733 4.026-2.324-3.49-2.015 1-1.732 3.49 2.014v-4.648h2v5.803l6 3.464V31.5l-5.026-2.901 1-1.733 4.026 2.325v-4.03z"/></g></g></g></svg>