<svg id="l_d_1170" xmlns="http://www.w3.org/2000/svg" viewBox="0 0 45 45" preserveAspectRatio="xMidYMid meet" style="width:100%;height:100%;content-visibility:visible"><defs id="l_d_1171"><clipPath id="__lottie_element_481"><rect id="l_d_1174" width="45" height="45" x="0" y="0"/></clipPath><clipPath id="__lottie_element_500"><path id="l_d_1207" clip-rule="nonzero" d="M55.9 25.997H30.731l.019 9.878h25.169z" fill-opacity="1"/></clipPath></defs><g id="l_d_1172" clip-path="url(#__lottie_element_481)"><g id="l_d_1220" transform="translate(-24.75 -17.125)" opacity="1" display="block"><g id="l_d_1224" opacity="1" transform="translate(33.5 48.5)"><path id="l_d_1225" stroke-linecap="butt" stroke-linejoin="round" fill-opacity="0" stroke-opacity="1" stroke-width="2" d="m2.5-5.5-5 11"/></g><g id="l_d_1226" opacity="1" transform="translate(46.5 48.5)"><path id="l_d_1227" stroke-linecap="butt" stroke-linejoin="round" fill-opacity="0" stroke-opacity="1" stroke-width="2" d="m-2.5-5.5 5 11"/></g><g id="l_d_1228" opacity="1" transform="translate(40 48.5)"><path id="l_d_1229" stroke-linecap="butt" stroke-linejoin="round" fill-opacity="0" stroke-opacity="1" stroke-width="2" d="M0 5.5v-11"/></g><g id="l_d_1230" opacity="1" transform="translate(40 38.5)"><path id="l_d_1231" stroke-linecap="butt" stroke-linejoin="round" fill-opacity="0" stroke-opacity="1" stroke-width="2" d="M-11-5.5c0 6.075 4.925 11 11 11s11-4.925 11-11"/></g><g id="l_d_1232" opacity="1" transform="translate(40 49)"><path id="l_d_1233" stroke-linecap="butt" stroke-linejoin="round" fill-opacity="0" stroke-opacity="1" stroke-width="2" d="M7 0H-7"/></g><g id="l_d_1234" opacity="1" transform="translate(28 36)"><path id="l_d_1235" stroke-linecap="butt" stroke-linejoin="round" fill-opacity="0" stroke-opacity="1" stroke-width="2" d="M2 0h-4"/></g><g id="l_d_1236" opacity="1" transform="translate(52 36)"><path id="l_d_1237" stroke-linecap="butt" stroke-linejoin="round" fill-opacity="0" stroke-opacity="1" stroke-width="2" d="M2 0h-4"/></g></g><g id="l_d_1212" transform="translate(-24.75 -17.125)" opacity="1" display="block"><g id="l_d_1216" opacity="1" transform="translate(31.75 32)"><path id="l_d_1217" stroke-linecap="butt" stroke-linejoin="round" fill-opacity="0" stroke-opacity="1" stroke-width="2" d="M4.266 0H-3.75"/></g><g id="l_d_1218" opacity="1" transform="translate(48.75 32)"><path id="l_d_1219" stroke-linecap="butt" stroke-linejoin="round" fill-opacity="0" stroke-opacity="1" stroke-width="2" d="M3.25 0h-6.728"/></g></g><g id="l_d_1205" clip-path="url(#__lottie_element_500)" transform="translate(-24.75 -17.125)" opacity="1" display="block"><g id="l_d_1210" opacity="1" transform="translate(35.997 9.467)"><path id="l_d_1211" stroke-linecap="butt" stroke-linejoin="round" fill-opacity="0" stroke-opacity="1" stroke-width="2" d="M11.997-5.467c.005 4.833-3.994 6.083-3.994 11s3.999 6.167 3.994 11-3.994 6.167-3.994 11m-1.006-33c.005 4.833-3.994 6.083-3.994 11s3.999 6.167 3.994 11-3.994 6.167-3.994 11m-1.006-33c.005 4.833-3.994 6.083-3.994 11s3.999 6.167 3.994 11-3.994 6.167-3.994 11m13.994-55.066c.005 4.833-3.994 6.083-3.994 11s3.999 6.167 3.994 11v.066c.005 4.833-3.994 6.083-3.994 11s3.999 6.167 3.994 11-3.994 6.167-3.994 11M6.997-27.533c.005 4.833-3.994 6.083-3.994 11s3.999 6.167 3.994 11v.066c.005 4.833-3.994 6.083-3.994 11s3.999 6.167 3.994 11-3.994 6.167-3.994 11M1.997-27.533c.005 4.833-3.994 6.083-3.994 11s3.999 6.167 3.994 11v.066c.005 4.833-3.994 6.083-3.994 11s3.999 6.167 3.994 11-3.994 6.167-3.994 11"/></g></g><g id="l_d_1199" transform="matrix(0 0 0 0 22.836 -2.326)" opacity="1" display="none"><g id="l_d_1203" opacity="1" transform="translate(-5.414 2.674)"><path id="l_d_1204" fill-opacity="1" d="M0-1a1 1 0 1 1-.001 2.001A1 1 0 0 1 0-1"/></g></g><g id="l_d_1193" transform="matrix(0 0 0 0 12.461 -2.576)" opacity="1" display="block"><g id="l_d_1197" opacity="1" transform="translate(-5.414 2.674)"><path id="l_d_1198" fill-opacity="1" d="M0-1a1 1 0 1 1-.001 2.001A1 1 0 0 1 0-1"/></g></g><g id="l_d_1187" transform="matrix(0 0 0 0 9.836 -4.076)" opacity="1" display="none"><g id="l_d_1191" opacity="1" transform="translate(-5.414 2.674)"><path id="l_d_1192" fill-opacity="1" d="M0-.5a.5.5 0 1 1 0 1 .5.5 0 0 1 0-1"/></g></g><g id="l_d_1181" transform="matrix(0 0 0 0 22.961 -3.701)" opacity="1" display="none"><g id="l_d_1185" opacity="1" transform="translate(-5.414 2.674)"><path id="l_d_1186" fill-opacity="1" d="M0-1a1 1 0 1 1-.001 2.001A1 1 0 0 1 0-1"/></g></g><g id="l_d_1175" transform="matrix(0 0 0 0 25.086 -.076)" opacity="1" display="block"><g id="l_d_1179" opacity="1" transform="translate(-5.414 2.674)"><path id="l_d_1180" fill-opacity="1" d="M0-1a1 1 0 1 1-.001 2.001A1 1 0 0 1 0-1"/></g></g></g></svg>