<svg id="l_d_1393" xmlns="http://www.w3.org/2000/svg" xmlns:xlink="http://www.w3.org/1999/xlink" viewBox="0 0 45 45" preserveAspectRatio="xMidYMid meet" style="width:100%;height:100%;content-visibility:visible"><defs id="l_d_1394"><clipPath id="__lottie_element_562"><rect id="l_d_1397" width="45" height="45" x="0" y="0"/></clipPath><g id="__lottie_element_564"><g id="l_d_1398" clip-path="url(#__lottie_element_565)" transform="translate(-23.375 -17.5)" opacity="1" display="block"><rect id="l_d_1404" width="80" height="80"/></g></g><clipPath id="__lottie_element_565"><path id="l_d_1401" clip-rule="nonzero" d="M54.038 21.913H25.375l.038 40.912h28.662z" fill-opacity="1"/></clipPath><clipPath id="__lottie_element_568"><path id="l_d_1408" d="M0 0h80v80H0z"/></clipPath><mask id="__lottie_element_564_1" mask-type="alpha"><use id="l_d_1430" xlink:href="#__lottie_element_564"/></mask><g id="__lottie_element_581"><g id="l_d_1431" clip-path="url(#__lottie_element_582)" transform="translate(-23.375 -17.5)" opacity="1" display="block"><rect id="l_d_1437" width="80" height="80"/></g></g><clipPath id="__lottie_element_582"><path id="l_d_1434" clip-rule="nonzero" d="M54.038 21.913H25.375l.038 37.537h28.662z" fill-opacity="1"/></clipPath><clipPath id="__lottie_element_585"><path id="l_d_1441" d="M0 0h80v80H0z"/></clipPath><mask id="__lottie_element_581_1" mask-type="alpha"><use id="l_d_1463" xlink:href="#__lottie_element_581"/></mask></defs><g id="l_d_1395" clip-path="url(#__lottie_element_562)"><g id="l_d_1494" transform="translate(2.125 8)" opacity="1" display="block"><g id="l_d_1498" opacity="1" transform="translate(9 6.952)"><path id="l_d_1499" fill-opacity="1" d="M8.996 3.819C8.871.549 6.069-2.259.782-4.695L0-5.048l-.782.353C-6.192-2.202-9 .68-9 4.048v1l2-.001H7l2 .001v-1zm-15.861-.771.02-.071.062-.195C-6.132.894-4.008-.952-.306-2.71L0-2.853l.306.143.377.182C4.276-.764 6.296 1.087 6.845 2.977l.019.071z"/></g><g id="l_d_1500" opacity="1" transform="translate(8.997 13.998)"><path id="l_d_1501" stroke-linecap="round" stroke-linejoin="round" fill-opacity="0" stroke-opacity="1" stroke-width="2" d="M6.003 2.999H-6.003v-5.998H6.003z"/></g><g id="l_d_1502" opacity="1" transform="translate(9 15.375)"><path id="l_d_1503" fill-opacity="1" d="M1 1.375h-2v-2.75h2z"/></g></g><g id="l_d_1488" transform="translate(2.125 8)" opacity="1" display="block"><g id="l_d_1492" opacity="1" transform="translate(22 8.5)"><path id="l_d_1493" fill-opacity="1" d="M1.454-3.311C1.83-1.917 2-.377 2 1.5c0 2.346-.598 4.682-1.783 7l-2.28-.001C-.683 6.146 0 3.816 0 1.5 0-.425-.19-1.913-.607-3.241.312-5 1-5 1.454-3.311"/></g></g><g id="l_d_1482" transform="translate(2.125 8)" opacity="1" display="block"><g id="l_d_1486" opacity="1" transform="translate(22 8.5)"><path id="l_d_1487" fill-opacity="1" d="M1.1-5.46c2.134.284-1.29 3.547-1.707 2.219a2.5 2.5 0 0 0-1.388 2.077L-2-1h-2c0-1.95 1.24-3.609 2.974-4.235-.149-.686 2.383-.808 2.126-.225"/></g></g><g id="l_d_1476" transform="translate(2.125 8)" opacity="1" display="block"><g id="l_d_1480" opacity="1" transform="translate(22 8.5)"><path id="l_d_1481" fill-opacity="1" d="M1.1-5.46a4.5 4.5 0 0 1 3.895 4.248L5-1H3a2.5 2.5 0 0 0-1.546-2.311c-.646-.473-1.159-.736-2.48-1.924-.149-.686 2.383-.808 2.126-.225"/></g></g><g id="l_d_1470" transform="translate(2.125 8)" opacity="1" display="block"><g id="l_d_1474" opacity="1" transform="translate(22 8.5)"><path id="l_d_1475" fill-opacity="1" d="M1.1-5.46c-.192.09-1.289.521-2.126.225C-1.175-5.921-1.974-6.5-3-6.5c-1.084 0-1.913.646-1.994 1.383L-5-5h-2c0-1.977 1.827-3.5 4-3.5 1.182 0 2.262.451 3.001 1.18.738-.73 1.356 1.277 1.099 1.86"/></g></g><g id="l_d_1464" transform="translate(2.125 8)" opacity="1" display="block"><g id="l_d_1468" opacity="1" transform="translate(22 8.5)"><path id="l_d_1469" fill-opacity="1" d="M3-8.5c2.103 0 3.882 1.426 3.994 3.31L7-5H5c0-.784-.859-1.5-2-1.5-.911 0-1.643.457-1.9 1.04-.088.136-.869.145-2.126.225-.149-.686.288-2.814 1.027-2.085C.739-8.05 1.818-8.5 3-8.5"/></g></g><g id="l_d_1439" mask="url(#__lottie_element_581_1)" display="block"><g id="l_d_1438" clip-path="url(#__lottie_element_585)" transform="translate(-23.375 -17.5)" opacity="1"><g id="l_d_1456" transform="translate(-2.153 25.5)" opacity="1" display="block"><g id="l_d_1460" opacity="1" transform="translate(14 21.906)"><path id="l_d_1461" fill-opacity="1" d="M9.334-1.906A4.4 4.4 0 0 1 12.35-.73c.39.365.901.584 1.444.628L14-.094v2A4.4 4.4 0 0 1 10.983.73 2.4 2.4 0 0 0 9.334.094c-.62 0-1.212.225-1.65.636a4.4 4.4 0 0 1-3.017 1.176A4.4 4.4 0 0 1 1.829.889L1.65.73A2.4 2.4 0 0 0 0 .094c-.62 0-1.211.225-1.649.636a4.4 4.4 0 0 1-3.018 1.176A4.4 4.4 0 0 1-7.684.73 2.4 2.4 0 0 0-9.333.094c-.62 0-1.211.225-1.65.636a4.4 4.4 0 0 1-2.778 1.17l-.239.006v-2c.551 0 1.079-.178 1.498-.506l.152-.13a4.4 4.4 0 0 1 3.017-1.176A4.4 4.4 0 0 1-6.316-.73a2.4 2.4 0 0 0 1.649.636c.62 0 1.211-.224 1.65-.636A4.4 4.4 0 0 1 0-1.906 4.4 4.4 0 0 1 3.017-.73c.439.411 1.03.636 1.65.636S5.878-.319 6.316-.73a4.4 4.4 0 0 1 3.018-1.176"/></g></g><g id="l_d_1450" transform="translate(25.5 25.5)" opacity="1" display="block"><g id="l_d_1454" opacity="1" transform="translate(14 21.906)"><path id="l_d_1455" fill-opacity="1" d="M9.334-1.906A4.4 4.4 0 0 1 12.35-.73c.39.365.901.584 1.444.628L14-.094v2A4.4 4.4 0 0 1 10.983.73 2.4 2.4 0 0 0 9.334.094c-.62 0-1.212.225-1.65.636a4.4 4.4 0 0 1-3.017 1.176A4.4 4.4 0 0 1 1.829.889L1.65.73A2.4 2.4 0 0 0 0 .094c-.62 0-1.211.225-1.649.636a4.4 4.4 0 0 1-3.018 1.176A4.4 4.4 0 0 1-7.684.73 2.4 2.4 0 0 0-9.333.094c-.62 0-1.211.225-1.65.636a4.4 4.4 0 0 1-2.778 1.17l-.239.006v-2c.551 0 1.079-.178 1.498-.506l.152-.13a4.4 4.4 0 0 1 3.017-1.176A4.4 4.4 0 0 1-6.316-.73a2.4 2.4 0 0 0 1.649.636c.62 0 1.211-.224 1.65-.636A4.4 4.4 0 0 1 0-1.906 4.4 4.4 0 0 1 3.017-.73c.439.411 1.03.636 1.65.636S5.878-.319 6.316-.73a4.4 4.4 0 0 1 3.018-1.176"/></g></g><g id="l_d_1444" transform="translate(-30 25.5)" opacity="1" display="block"><g id="l_d_1448" opacity="1" transform="translate(14 21.906)"><path id="l_d_1449" fill-opacity="1" d="M9.334-1.906A4.4 4.4 0 0 1 12.35-.73c.39.365.901.584 1.444.628L14-.094v2A4.4 4.4 0 0 1 10.983.73 2.4 2.4 0 0 0 9.334.094c-.62 0-1.212.225-1.65.636a4.4 4.4 0 0 1-3.017 1.176A4.4 4.4 0 0 1 1.829.889L1.65.73A2.4 2.4 0 0 0 0 .094c-.62 0-1.211.225-1.649.636a4.4 4.4 0 0 1-3.018 1.176A4.4 4.4 0 0 1-7.684.73 2.4 2.4 0 0 0-9.333.094c-.62 0-1.211.225-1.65.636a4.4 4.4 0 0 1-2.778 1.17l-.239.006v-2c.551 0 1.079-.178 1.498-.506l.152-.13a4.4 4.4 0 0 1 3.017-1.176A4.4 4.4 0 0 1-6.316-.73a2.4 2.4 0 0 0 1.649.636c.62 0 1.211-.224 1.65-.636A4.4 4.4 0 0 1 0-1.906 4.4 4.4 0 0 1 3.017-.73c.439.411 1.03.636 1.65.636S5.878-.319 6.316-.73a4.4 4.4 0 0 1 3.018-1.176"/></g></g></g></g><g id="l_d_1406" mask="url(#__lottie_element_564_1)" display="block"><g id="l_d_1405" clip-path="url(#__lottie_element_568)" transform="translate(-23.375 -12.5)" opacity="1"><g id="l_d_1423" transform="translate(-2.153 25.5)" opacity="1" display="block"><g id="l_d_1427" opacity="1" transform="translate(14 21.906)"><path id="l_d_1428" fill-opacity="1" d="M9.334-1.906A4.4 4.4 0 0 1 12.35-.73c.39.365.901.584 1.444.628L14-.094v2A4.4 4.4 0 0 1 10.983.73 2.4 2.4 0 0 0 9.334.094c-.62 0-1.212.225-1.65.636a4.4 4.4 0 0 1-3.017 1.176A4.4 4.4 0 0 1 1.829.889L1.65.73A2.4 2.4 0 0 0 0 .094c-.62 0-1.211.225-1.649.636a4.4 4.4 0 0 1-3.018 1.176A4.4 4.4 0 0 1-7.684.73 2.4 2.4 0 0 0-9.333.094c-.62 0-1.211.225-1.65.636a4.4 4.4 0 0 1-2.778 1.17l-.239.006v-2c.551 0 1.079-.178 1.498-.506l.152-.13a4.4 4.4 0 0 1 3.017-1.176A4.4 4.4 0 0 1-6.316-.73a2.4 2.4 0 0 0 1.649.636c.62 0 1.211-.224 1.65-.636A4.4 4.4 0 0 1 0-1.906 4.4 4.4 0 0 1 3.017-.73c.439.411 1.03.636 1.65.636S5.878-.319 6.316-.73a4.4 4.4 0 0 1 3.018-1.176"/></g></g><g id="l_d_1417" transform="translate(25.5 25.5)" opacity="1" display="block"><g id="l_d_1421" opacity="1" transform="translate(14 21.906)"><path id="l_d_1422" fill-opacity="1" d="M9.334-1.906A4.4 4.4 0 0 1 12.35-.73c.39.365.901.584 1.444.628L14-.094v2A4.4 4.4 0 0 1 10.983.73 2.4 2.4 0 0 0 9.334.094c-.62 0-1.212.225-1.65.636a4.4 4.4 0 0 1-3.017 1.176A4.4 4.4 0 0 1 1.829.889L1.65.73A2.4 2.4 0 0 0 0 .094c-.62 0-1.211.225-1.649.636a4.4 4.4 0 0 1-3.018 1.176A4.4 4.4 0 0 1-7.684.73 2.4 2.4 0 0 0-9.333.094c-.62 0-1.211.225-1.65.636a4.4 4.4 0 0 1-2.778 1.17l-.239.006v-2c.551 0 1.079-.178 1.498-.506l.152-.13a4.4 4.4 0 0 1 3.017-1.176A4.4 4.4 0 0 1-6.316-.73a2.4 2.4 0 0 0 1.649.636c.62 0 1.211-.224 1.65-.636A4.4 4.4 0 0 1 0-1.906 4.4 4.4 0 0 1 3.017-.73c.439.411 1.03.636 1.65.636S5.878-.319 6.316-.73a4.4 4.4 0 0 1 3.018-1.176"/></g></g><g id="l_d_1411" transform="translate(-30 25.5)" opacity="1" display="block"><g id="l_d_1415" opacity="1" transform="translate(14 21.906)"><path id="l_d_1416" fill-opacity="1" d="M9.334-1.906A4.4 4.4 0 0 1 12.35-.73c.39.365.901.584 1.444.628L14-.094v2A4.4 4.4 0 0 1 10.983.73 2.4 2.4 0 0 0 9.334.094c-.62 0-1.212.225-1.65.636a4.4 4.4 0 0 1-3.017 1.176A4.4 4.4 0 0 1 1.829.889L1.65.73A2.4 2.4 0 0 0 0 .094c-.62 0-1.211.225-1.649.636a4.4 4.4 0 0 1-3.018 1.176A4.4 4.4 0 0 1-7.684.73 2.4 2.4 0 0 0-9.333.094c-.62 0-1.211.225-1.65.636a4.4 4.4 0 0 1-2.778 1.17l-.239.006v-2c.551 0 1.079-.178 1.498-.506l.152-.13a4.4 4.4 0 0 1 3.017-1.176A4.4 4.4 0 0 1-6.316-.73a2.4 2.4 0 0 0 1.649.636c.62 0 1.211-.224 1.65-.636A4.4 4.4 0 0 1 0-1.906 4.4 4.4 0 0 1 3.017-.73c.439.411 1.03.636 1.65.636S5.878-.319 6.316-.73a4.4 4.4 0 0 1 3.018-1.176"/></g></g></g></g></g></svg>