<svg id="l_d_215" xmlns="http://www.w3.org/2000/svg" viewBox="0 0 45 45" preserveAspectRatio="xMidYMid meet" style="width:100%;height:100%;content-visibility:visible"><defs id="l_d_216"><clipPath id="__lottie_element_83"><rect id="l_d_219" width="45" height="45" x="0" y="0"/></clipPath></defs><g id="l_d_217" clip-path="url(#__lottie_element_83)"><g id="l_d_220" transform="translate(-23 -18.625)" opacity="1" display="block"><g id="l_d_224" opacity="1"><g id="l_d_225" opacity="1" transform="translate(40 41)"><path id="l_d_226" stroke-linecap="butt" stroke-linejoin="round" fill-opacity="0" stroke-opacity="1" stroke-width="2" d="M-15 0h30"/></g><g id="l_d_227" opacity="1" transform="translate(28 48)"><path id="l_d_228" stroke-linecap="butt" stroke-linejoin="round" fill-opacity="0" stroke-opacity="1" stroke-width="2" d="M0 7V-7"/></g><g id="l_d_229" opacity="1" transform="translate(52 48)"><path id="l_d_230" stroke-linecap="butt" stroke-linejoin="round" fill-opacity="0" stroke-opacity="1" stroke-width="2" d="M0 7V-7"/></g></g><g id="l_d_231" opacity="1" transform="translate(40 46.5)"><path id="l_d_232" stroke-linecap="butt" stroke-linejoin="round" fill-opacity="0" stroke-opacity="1" stroke-width="2" d="M-12-5.5h24v8a3 3 0 0 1-3 3H-9a3 3 0 0 1-3-3z"/></g><g id="l_d_233" opacity="1" transform="translate(48 37)"><path id="l_d_234" stroke-linecap="butt" stroke-linejoin="round" fill-opacity="0" stroke-opacity="1" stroke-width="2" d="M0 3v-6"/></g><g id="l_d_235" opacity="1" transform="translate(48 31.5)"><path id="l_d_236" stroke-linecap="butt" stroke-linejoin="round" fill-opacity="0" stroke-opacity="1" stroke-width="2" d="M-2-3.5h4l2 7h-8z"/></g><g id="l_d_237" opacity="1" transform="translate(33.5 38.5)"><path id="l_d_238" stroke-linecap="butt" stroke-linejoin="round" fill-opacity="0" stroke-opacity="1" stroke-width="2" d="M-2.5-2.5h5v5h-5z"/></g><g id="l_d_239" opacity="1" transform="translate(31.896 34.014)"><path id="l_d_240" stroke-linecap="butt" stroke-linejoin="round" fill-opacity="0" stroke-opacity="1" stroke-width="2" d="M.896 2.014-.896-2.014"/></g></g></g></svg>