<svg id="l_d_1239" xmlns="http://www.w3.org/2000/svg" viewBox="0 0 45 45" preserveAspectRatio="xMidYMid meet" style="width:100%;height:100%;content-visibility:visible"><defs id="l_d_1240"><clipPath id="__lottie_element_509"><rect id="l_d_1243" width="45" height="45" x="0" y="0"/></clipPath></defs><g id="l_d_1241" clip-path="url(#__lottie_element_509)"><g id="l_d_1244" transform="translate(-22 -17.5)" opacity="1" display="block"><g id="l_d_1248" opacity="1" transform="translate(51 40)"><path id="l_d_1249" stroke-linecap="butt" stroke-linejoin="miter" fill-opacity="0" stroke-miterlimit="4" stroke-opacity="1" stroke-width="2" d="M-1-6h2a1 1 0 0 1 1 1V5a1 1 0 0 1-1 1h-2a1 1 0 0 1-1-1V-5a1 1 0 0 1 1-1z"/></g><g id="l_d_1250" opacity="1" transform="translate(47 40)"><path id="l_d_1251" stroke-linecap="butt" stroke-linejoin="miter" fill-opacity="0" stroke-miterlimit="4" stroke-opacity="1" stroke-width="2" d="M-1-10h2a1 1 0 0 1 1 1V9a1 1 0 0 1-1 1h-2a1 1 0 0 1-1-1V-9a1 1 0 0 1 1-1z"/></g><g id="l_d_1252" opacity="1" transform="translate(33 40)"><path id="l_d_1253" stroke-linecap="butt" stroke-linejoin="miter" fill-opacity="0" stroke-miterlimit="4" stroke-opacity="1" stroke-width="2" d="M-1-10h2a1 1 0 0 1 1 1V9a1 1 0 0 1-1 1h-2a1 1 0 0 1-1-1V-9a1 1 0 0 1 1-1z"/></g><g id="l_d_1254" opacity="1" transform="translate(29 40)"><path id="l_d_1255" stroke-linecap="butt" stroke-linejoin="miter" fill-opacity="0" stroke-miterlimit="4" stroke-opacity="1" stroke-width="2" d="M-1-6h2a1 1 0 0 1 1 1V5a1 1 0 0 1-1 1h-2a1 1 0 0 1-1-1V-5a1 1 0 0 1 1-1z"/></g><g id="l_d_1256" opacity="1" transform="translate(54.5 40)"><path id="l_d_1257" stroke-linecap="butt" stroke-linejoin="miter" fill-opacity="0" stroke-miterlimit="4" stroke-opacity="1" stroke-width="2" d="M-1.5 0h3"/></g><g id="l_d_1258" opacity="1" transform="translate(40 40)"><path id="l_d_1259" stroke-linecap="butt" stroke-linejoin="miter" fill-opacity="0" stroke-miterlimit="4" stroke-opacity="1" stroke-width="2" d="M-5 0H5"/></g><g id="l_d_1260" opacity="1" transform="translate(25.5 40)"><path id="l_d_1261" stroke-linecap="butt" stroke-linejoin="miter" fill-opacity="0" stroke-miterlimit="4" stroke-opacity="1" stroke-width="2" d="M-1.5 0h3"/></g></g></g></svg>