<svg id="l_d_898" xmlns="http://www.w3.org/2000/svg" xmlns:xlink="http://www.w3.org/1999/xlink" viewBox="0 0 45 45" preserveAspectRatio="xMidYMid meet" style="width:100%;height:100%;content-visibility:visible"><defs id="l_d_899"><clipPath id="__lottie_element_358"><rect id="l_d_902" width="45" height="45" x="0" y="0"/></clipPath><g id="__lottie_element_378"><g id="l_d_939" transform="translate(-23 -19.25)" opacity="1" display="block"><g id="l_d_944" opacity="1" transform="translate(40 44)"><path id="l_d_945" fill-opacity="1" d="M11.931 0h-23.862l-3.052-21.449 29.984.126z"/></g></g></g><mask id="__lottie_element_378_1" mask-type="alpha"><use id="l_d_954" xlink:href="#__lottie_element_378"/></mask><g id="__lottie_element_384"><g id="l_d_955" transform="translate(-23 -19.25)" opacity="1" display="block"><g id="l_d_960" opacity="1" transform="translate(40 44)"><path id="l_d_961" fill-opacity="1" d="M11.931 0h-23.862l-3.052-21.449 29.984.126z"/></g></g></g><mask id="__lottie_element_384_1" mask-type="alpha"><use id="l_d_970" xlink:href="#__lottie_element_384"/></mask><g id="__lottie_element_390"><g id="l_d_971" transform="translate(-13.014 -9.264)scale(.75036)" opacity="1" display="none"><g id="l_d_976" opacity="1" transform="translate(40 44)"><path id="l_d_977" fill-opacity="1" d="M-14.992 10.926-11.931 0h23.862l3.061 11.052"/></g></g></g><filter id="__lottie_element_396" filterUnits="objectBoundingBox" x="0%" y="0%" width="100%" height="100%"><feComponentTransfer id="l_d_988" in="SourceGraphic"><feFuncA id="l_d_989" type="table" tableValues="1.0 0.0"/></feComponentTransfer></filter><mask id="__lottie_element_390_2" mask-type="alpha"><g id="l_d_986" filter="url(#__lottie_element_396)"><rect id="l_d_990" width="45" height="45" x="0" y="0" opacity="0"/><use id="l_d_991" xlink:href="#__lottie_element_390"/></g></mask><g id="__lottie_element_397"><g id="l_d_992" transform="translate(-13.014 -9.264)scale(.75036)" opacity="1" display="none"><g id="l_d_997" opacity="1" transform="translate(40 44)"><path id="l_d_998" fill-opacity="1" d="M-14.992 10.926-11.931 0h23.862l3.061 11.052"/></g></g></g><filter id="__lottie_element_403" filterUnits="objectBoundingBox" x="0%" y="0%" width="100%" height="100%"><feComponentTransfer id="l_d_1009" in="SourceGraphic"><feFuncA id="l_d_1010" type="table" tableValues="1.0 0.0"/></feComponentTransfer></filter><mask id="__lottie_element_397_2" mask-type="alpha"><g id="l_d_1007" filter="url(#__lottie_element_403)"><rect id="l_d_1011" width="45" height="45" x="0" y="0" opacity="0"/><use id="l_d_1012" xlink:href="#__lottie_element_397"/></g></mask></defs><g id="l_d_900" clip-path="url(#__lottie_element_358)"><g id="l_d_1013" transform="translate(-23 -19.25)" opacity="1" display="block"><g id="l_d_1017" opacity="1" transform="translate(40 49)"><path id="l_d_1018" stroke-linecap="butt" stroke-linejoin="round" fill-opacity="0" stroke-opacity="1" stroke-width="2" d="M-12-5h24V5h-24z"/></g><g id="l_d_1019" opacity="1" transform="translate(40 44)"><path id="l_d_1020" stroke-linecap="butt" stroke-linejoin="round" fill-opacity="0" stroke-opacity="1" stroke-width="2" d="M-15 0h30"/></g></g><g id="l_d_1000" mask="url(#__lottie_element_397_2)" display="none"><g id="l_d_999" transform="translate(9.45 8.554)scale(.1794)" opacity="1"><g id="l_d_1003" opacity="1"><g id="l_d_1004" opacity="1" transform="translate(40 41.479)"><path id="l_d_1005" stroke-linecap="butt" stroke-linejoin="miter" fill-opacity="0" stroke-miterlimit="4" stroke-opacity="1" stroke-width="2" d="M0 3.245c1.237 0 2.25-1.069 2.25-2.164 0-1.19-1.589-2.628-3.089-4.322C-2.339-1.547-2.25-.11-2.25 1.08c0 1.095 1.013 2.164 2.25 2.164z"/></g></g></g></g><g id="l_d_979" mask="url(#__lottie_element_390_2)" display="none"><g id="l_d_978" transform="translate(9.6 7.88)scale(.1794)" opacity="1"><g id="l_d_982" opacity="1"><g id="l_d_983" opacity="1" transform="translate(40 36.919)"><path id="l_d_984" stroke-linecap="round" stroke-linejoin="miter" fill-opacity="0" stroke-miterlimit="4" stroke-opacity="1" stroke-width="2" d="M0-8.114C3.318-6.011 6-1.352 6 2.028c0 4.057-2.962 6.086-6 6.086-2.99 0-6-1.522-6-6.086q0-2.535 2.5-6.085L-2-3.043s.5-4.501 2-5.071z"/></g></g></g></g><g id="l_d_963" mask="url(#__lottie_element_384_1)" display="block"><g id="l_d_962" transform="translate(-23 -19.25)" opacity="1"><g id="l_d_966" opacity="1"><g id="l_d_967" opacity="1" transform="translate(40 41.479)"><path id="l_d_968" stroke-linecap="butt" stroke-linejoin="miter" fill-opacity="0" stroke-miterlimit="4" stroke-opacity="1" stroke-width="2" d="M0 3.245c1.237 0 2.25-1.069 2.25-2.164Q2.25-.704 0-3.245-2.25-.704-2.25 1.081c0 1.095 1.013 2.164 2.25 2.164z"/></g></g></g></g><g id="l_d_947" mask="url(#__lottie_element_378_1)" display="block"><g id="l_d_946" transform="translate(-23 -19.25)" opacity="1"><g id="l_d_950" opacity="1"><g id="l_d_951" opacity="1" transform="translate(40 36.919)"><path id="l_d_952" stroke-linecap="round" stroke-linejoin="miter" fill-opacity="0" stroke-miterlimit="4" stroke-opacity="1" stroke-width="2" d="M0-8.114C3.318-6.011 6-1.352 6 2.028c0 4.057-2.962 6.086-6 6.086-2.99 0-6-1.522-6-6.086q0-2.535 2.5-6.085L-2-3.043s.5-4.501 2-5.071z"/></g></g></g></g><g id="l_d_933" transform="matrix(0 0 0 0 18.086 -.451)" opacity="1" display="none"><g id="l_d_937" opacity="1" transform="translate(-5.414 2.674)"><path id="l_d_938" fill-opacity="1" d="M0-.5a.5.5 0 1 1 0 1 .5.5 0 0 1 0-1"/></g></g><g id="l_d_927" transform="matrix(0 0 0 0 10.086 -1.701)" opacity="1" display="none"><g id="l_d_931" opacity="1" transform="translate(-5.414 2.674)"><path id="l_d_932" fill-opacity="1" d="M0-1a1 1 0 1 1-.001 2.001A1 1 0 0 1 0-1"/></g></g><g id="l_d_921" transform="matrix(0 0 0 0 24.836 -.201)" opacity="1" display="none"><g id="l_d_925" opacity="1" transform="translate(-5.414 2.674)"><path id="l_d_926" fill-opacity="1" d="M0-1a1 1 0 1 1-.001 2.001A1 1 0 0 1 0-1"/></g></g><g id="l_d_915" transform="matrix(0 0 0 0 12.461 .674)" opacity="1" display="none"><g id="l_d_919" opacity="1" transform="translate(-5.414 2.674)"><path id="l_d_920" fill-opacity="1" d="M0-.5a.5.5 0 1 1 0 1 .5.5 0 0 1 0-1"/></g></g><g id="l_d_909" transform="matrix(0 0 0 0 14.086 -4.326)" opacity="1" display="block"><g id="l_d_913" opacity="1" transform="translate(-5.414 2.674)"><path id="l_d_914" fill-opacity="1" d="M0-1a1 1 0 1 1-.001 2.001A1 1 0 0 1 0-1"/></g></g><g id="l_d_903" transform="matrix(0 0 0 0 17.711 -5.201)" opacity="1" display="block"><g id="l_d_907" opacity="1" transform="translate(-5.414 2.674)"><path id="l_d_908" fill-opacity="1" d="M0-1a1 1 0 1 1-.001 2.001A1 1 0 0 1 0-1"/></g></g></g></svg>