<svg id="l_d_857" xmlns="http://www.w3.org/2000/svg" viewBox="0 0 45 45" preserveAspectRatio="xMidYMid meet" style="width:100%;height:100%;content-visibility:visible"><defs id="l_d_858"><clipPath id="__lottie_element_342"><rect id="l_d_861" width="45" height="45" x="0" y="0"/></clipPath></defs><g id="l_d_859" clip-path="url(#__lottie_element_342)"><g id="l_d_880" transform="translate(-26.75 -17.75)" opacity="1" display="block"><g id="l_d_884" opacity="1" transform="translate(40 44)"><path id="l_d_885" stroke-linecap="butt" stroke-linejoin="miter" fill-opacity="0" stroke-miterlimit="4" stroke-opacity="1" stroke-width="2" d="M0-11a6 6 0 0 1 6 6v15a1 1 0 0 1-1 1H-5a1 1 0 0 1-1-1V-5l.004-.225A6 6 0 0 1 0-11z"/></g><g id="l_d_886" opacity="1" transform="translate(33 47)"><path id="l_d_887" stroke-linecap="butt" stroke-linejoin="miter" fill-opacity="0" stroke-miterlimit="4" stroke-opacity="1" stroke-width="2" d="M-2 0h4z"/></g><g id="l_d_888" opacity="1" transform="translate(40 31)"><path id="l_d_889" stroke-linecap="butt" stroke-linejoin="miter" fill-opacity="0" stroke-miterlimit="4" stroke-opacity="1" stroke-width="2" d="M0-2v4z"/></g><g id="l_d_890" opacity="1" transform="translate(38.5 40.5)"><path id="l_d_891" stroke-linecap="butt" stroke-linejoin="miter" fill-opacity="0" stroke-miterlimit="4" stroke-opacity="1" stroke-width="2" d="M8.5-11.5h-7c-5.523 0-10 4.477-10 10v13"/></g><g id="l_d_892" opacity="1" transform="translate(42.5 27)"><path id="l_d_893" stroke-linecap="butt" stroke-linejoin="miter" fill-opacity="0" stroke-miterlimit="4" stroke-opacity="1" stroke-width="2" d="m-2.5 2 5-4z"/></g><g id="l_d_894" opacity="1" transform="translate(40 29)"><path id="l_d_895" fill-opacity="1" d="M0 2a2 2 0 1 0 .001-3.999A2 2 0 0 0 0 2"/><path id="l_d_896" stroke-linecap="butt" stroke-linejoin="miter" fill-opacity="0" stroke-miterlimit="4" stroke-opacity="1" stroke-width="2" d="M0 2a2 2 0 1 0 .001-3.999A2 2 0 0 0 0 2z"/></g></g><g id="l_d_874" transform="rotate(-10.1 117.874 -90.826)scale(.64)" opacity="1" display="none"><g id="l_d_878" opacity="1" transform="translate(13 -17.25)"><path id="l_d_879" stroke-linecap="butt" stroke-linejoin="miter" fill-opacity="0" stroke-miterlimit="4" stroke-opacity="1" stroke-width="0" d="M-6.552-6.552A9.24 9.24 0 0 1 0-9.269a9.28 9.28 0 0 1 8.412 5.375"/></g></g><g id="l_d_868" transform="rotate(-10.1 128.55 -114.58)scale(.64)" opacity="1" display="none"><g id="l_d_872" opacity="1" transform="translate(13 -17.25)"><path id="l_d_873" stroke-linecap="butt" stroke-linejoin="miter" fill-opacity="0" stroke-miterlimit="4" stroke-opacity="1" stroke-width="0" d="M.76-7.832C4.747-7.449 7.869-4.086 7.869 0c0 3.743-2.62 6.879-6.123 7.674"/></g></g><g id="l_d_862" transform="rotate(-10.1 154.045 -94.476)scale(.64)" opacity="1" display="none"><g id="l_d_866" opacity="1" transform="translate(13 -17.25)"><path id="l_d_867" stroke-linecap="butt" stroke-linejoin="miter" fill-opacity="0" stroke-miterlimit="4" stroke-opacity="1" stroke-width="0" d="M3.185-7.36A8.03 8.03 0 0 1 8.019 0 8.023 8.023 0 0 1-.704 7.988"/></g></g></g></svg>