<svg id="l_d_1263" xmlns="http://www.w3.org/2000/svg" xmlns:xlink="http://www.w3.org/1999/xlink" viewBox="0 0 45 45" preserveAspectRatio="xMidYMid meet" style="width:100%;height:100%;content-visibility:visible"><defs id="l_d_1264"><clipPath id="__lottie_element_515"><rect id="l_d_1267" width="45" height="45" x="0" y="0"/></clipPath><g id="__lottie_element_518"><g id="l_d_1268" transform="translate(-22.625 -17.5)" opacity="1" display="none"><g id="l_d_1273" opacity="1" transform="translate(40 40)"><path id="l_d_1274" fill-opacity="1" d="M-10.014-11.923h20.028c2.21 0 4 1.785 4 3.987l-.004-8.208a3.994 3.994 0 0 1-4 3.987h-20.026c-2.209 0-4-1.786-4-3.987l.002 8.208a3.994 3.994 0 0 1 4-3.987"/></g></g></g><mask id="__lottie_element_518_1" mask-type="alpha"><use id="l_d_1287" xlink:href="#__lottie_element_518"/></mask><g id="__lottie_element_533"><g id="l_d_1306" transform="translate(-22.625 -17.5)" opacity="1" display="none"><g id="l_d_1311" opacity="1" transform="translate(40 40)"><path id="l_d_1312" fill-opacity="1" d="M-10.014-11.923h20.028c2.21 0 4 1.785 4 3.987l-.004-8.208a3.994 3.994 0 0 1-4 3.987h-20.026c-2.209 0-4-1.786-4-3.987l.002 8.208a3.994 3.994 0 0 1 4-3.987"/></g></g></g><mask id="__lottie_element_533_1" mask-type="alpha"><use id="l_d_1320" xlink:href="#__lottie_element_533"/></mask></defs><g id="l_d_1265" clip-path="url(#__lottie_element_515)"><g id="l_d_1314" mask="url(#__lottie_element_533_1)" display="none"><g id="l_d_1313" transform="translate(-22.625 -17.5)" opacity="1"><g id="l_d_1317" opacity="1" transform="translate(40 40)"><path id="l_d_1318" stroke-linecap="butt" stroke-linejoin="miter" fill-opacity="0" stroke-miterlimit="4" stroke-opacity="1" stroke-width="2" d="M-10-12h20a4 4 0 0 1 4 4V8a4 4 0 0 1-4 4h-20a4 4 0 0 1-4-4V-8a4 4 0 0 1 4-4z"/></g></g></g><g id="l_d_1300" transform="translate(-22.625 -17.5)" opacity="1" display="block"><g id="l_d_1304" opacity="1" transform="translate(40 40)"><path id="l_d_1305" stroke-linecap="butt" stroke-linejoin="miter" fill-opacity="0" stroke-miterlimit="4" stroke-opacity="1" stroke-width="2" d="M-10-12h20a4 4 0 0 1 4 4V8a4 4 0 0 1-4 4h-20a4 4 0 0 1-4-4V-8a4 4 0 0 1 4-4z"/></g></g><g id="l_d_1294" transform="translate(-20.18 -15.056)scale(.9389)" opacity="1" display="none"><g id="l_d_1298" opacity="1" transform="translate(40 40)"><path id="l_d_1299" stroke-linecap="butt" stroke-linejoin="miter" fill-opacity="0" stroke-miterlimit="4" stroke-opacity="1" stroke-width="2" d="M-2 11.409v.236h4v-.236h4l.134-.237h-3.92l.135-.237H-2.35l.135.237h-3.92l.134.237z"/></g></g><g id="l_d_1288" transform="translate(-22.625 -17.5)" opacity="1" display="block"><g id="l_d_1292" opacity="1" transform="translate(40 40)"><path id="l_d_1293" stroke-linecap="butt" stroke-linejoin="miter" fill-opacity="0" stroke-miterlimit="4" stroke-opacity="1" stroke-width="2" d="M-2 2c-.062.875 0 4 0 4h4V2h4v-4H2v-4h-4v4h-4v4s3-.062 4 0z"/></g></g><g id="l_d_1276" mask="url(#__lottie_element_518_1)" display="none"><g id="l_d_1275" transform="translate(-62.625 -57.5)" opacity="1"><g id="l_d_1279" opacity="1"><g id="l_d_1280" opacity="1" transform="translate(80 80)"><path id="l_d_1281" stroke-linecap="butt" stroke-linejoin="round" fill-opacity="0" stroke-opacity="1" stroke-width="2" d="M-3-4h6v8h-6z"/></g><g id="l_d_1282" opacity="1" transform="translate(80 80)"><path id="l_d_1283" stroke-linecap="butt" stroke-linejoin="round" fill-opacity="0" stroke-opacity="1" stroke-width="2" d="M-11-4h22v8h-22z"/></g><g id="l_d_1284" opacity="1" transform="translate(80 80)"><path id="l_d_1285" fill-opacity="1" d="M-7-1a1 1 0 1 1 0 2 1 1 0 0 1 0-2M7-1a1 1 0 1 1 0 2 1 1 0 0 1 0-2"/></g></g></g></g></g></svg>