<svg id="l_d_242" xmlns="http://www.w3.org/2000/svg" viewBox="0 0 45 45" preserveAspectRatio="xMidYMid meet" style="width:100%;height:100%;content-visibility:visible"><defs id="l_d_243"><clipPath id="__lottie_element_89"><rect id="l_d_246" width="45" height="45" x="0" y="0"/></clipPath><clipPath id="__lottie_element_91"><path id="l_d_249" clip-rule="nonzero" d="M11.722 2.288h-22.694v3.795h22.694z" fill-opacity="1"/><path id="l_d_250" clip-rule="nonzero" d="M11.722 2.288h-22.694v3.795h22.694z" fill-opacity="1"/></clipPath><clipPath id="__lottie_element_94"><path id="l_d_257" clip-rule="nonzero" d="M11.722 2.288h-22.694v3.795h22.694z" fill-opacity="1"/><path id="l_d_258" clip-rule="nonzero" d="M11.722 2.288h-22.694v3.795h22.694z" fill-opacity="1"/></clipPath><clipPath id="__lottie_element_97"><path id="l_d_265" clip-rule="nonzero" d="M11.722 2.288h-22.694v3.795h22.694z" fill-opacity="1"/><path id="l_d_266" clip-rule="nonzero" d="M11.722 2.288h-22.694v3.795h22.694z" fill-opacity="1"/></clipPath><clipPath id="__lottie_element_100"><path id="l_d_273" clip-rule="nonzero" d="M11.722 2.288h-22.694v3.795h22.694z" fill-opacity="1"/><path id="l_d_274" clip-rule="nonzero" d="M11.722 2.288h-22.694v3.795h22.694z" fill-opacity="1"/></clipPath><clipPath id="__lottie_element_103"><path id="l_d_281" clip-rule="nonzero" d="M11.722 2.288h-22.694v3.795h22.694z" fill-opacity="1"/><path id="l_d_282" clip-rule="nonzero" d="M11.722 2.288h-22.694v3.795h22.694z" fill-opacity="1"/></clipPath><clipPath id="__lottie_element_106"><path id="l_d_289" clip-rule="nonzero" d="M11.722 2.288h-22.694v3.795h22.694z" fill-opacity="1"/><path id="l_d_290" clip-rule="nonzero" d="M11.722 2.288h-22.694v3.795h22.694z" fill-opacity="1"/></clipPath><clipPath id="__lottie_element_109"><path id="l_d_297" clip-rule="nonzero" d="M11.722 2.288h-22.694v3.795h22.694z" fill-opacity="1"/><path id="l_d_298" clip-rule="nonzero" d="M11.722 2.288h-22.694v3.795h22.694z" fill-opacity="1"/></clipPath></defs><g id="l_d_244" clip-path="url(#__lottie_element_89)"><g id="l_d_321" transform="translate(-24 -18.374)" opacity="1" display="block"><g id="l_d_325" opacity="1" transform="translate(51 50)"><path id="l_d_326" stroke-linecap="butt" stroke-linejoin="miter" fill-opacity="0" stroke-miterlimit="4" stroke-opacity="1" stroke-width="2" d="M-2-2h4v3a1 1 0 0 1-1 1h-2a1 1 0 0 1-1-1v-3z"/></g><g id="l_d_327" opacity="1" transform="translate(29 50)"><path id="l_d_328" stroke-linecap="butt" stroke-linejoin="miter" fill-opacity="0" stroke-miterlimit="4" stroke-opacity="1" stroke-width="2" d="M-2-2h4v3a1 1 0 0 1-1 1h-2a1 1 0 0 1-1-1v-3z"/></g></g><g id="l_d_303" transform="translate(-24 -19.109)" opacity="1" display="block"><g id="l_d_307" opacity="1" transform="translate(40 43)"><path id="l_d_308" stroke-linecap="butt" stroke-linejoin="miter" fill-opacity="0" stroke-miterlimit="4" stroke-opacity="1" stroke-width="2" d="M-9-5H9a4 4 0 0 1 4 4v5a1 1 0 0 1-1 1h-24a1 1 0 0 1-1-1v-5a4 4 0 0 1 4-4z"/></g><g id="l_d_309" opacity="1" transform="translate(49 43)"><path id="l_d_310" fill-opacity="1" d="M0-1a1 1 0 1 1 0 2 1 1 0 0 1 0-2"/></g><g id="l_d_311" opacity="1" transform="translate(31 43)"><path id="l_d_312" fill-opacity="1" d="M0-1a1 1 0 1 1 0 2 1 1 0 0 1 0-2"/></g><g id="l_d_313" opacity="1" transform="translate(40 34)"><path id="l_d_314" stroke-linecap="butt" stroke-linejoin="miter" fill-opacity="0" stroke-miterlimit="4" stroke-opacity="1" stroke-width="2" d="M-7.307-4H7.307a1 1 0 0 1 .936.649L11 4h-22l2.757-7.351A1 1 0 0 1-7.307-4z"/></g><g id="l_d_315" opacity="1" transform="translate(27.5 36)"><path id="l_d_316" fill-opacity="1" d="M-1.5-1h3v2h-3z"/></g><g id="l_d_317" opacity="1" transform="translate(52.5 36)"><path id="l_d_318" fill-opacity="1" d="M-1.5-1h3v2h-3z"/></g><g id="l_d_319" opacity="1" transform="translate(40 43)"><path id="l_d_320" stroke-linecap="butt" stroke-linejoin="miter" fill-opacity="0" stroke-miterlimit="4" stroke-opacity="1" stroke-width="2" d="M-6 0H6"/></g></g><g id="l_d_295" clip-path="url(#__lottie_element_109)" transform="translate(16 21.625)" opacity="1" display="none"><g id="l_d_301" opacity="1"><path id="l_d_302" fill-opacity="1" d="m-.847 8-2.57 12.75h6.5L.319 8.083"/></g></g><g id="l_d_287" clip-path="url(#__lottie_element_106)" transform="translate(16 21.625)" opacity="1" display="none"><g id="l_d_293" opacity="1"><path id="l_d_294" fill-opacity="1" d="m-.847 8-2.57 12.75h6.5L.319 8.083"/></g></g><g id="l_d_279" clip-path="url(#__lottie_element_103)" transform="translate(16 21.625)" opacity="1" display="none"><g id="l_d_285" opacity="1"><path id="l_d_286" fill-opacity="1" d="m-.847 8-2.57 12.75h6.5L.319 8.083"/></g></g><g id="l_d_271" clip-path="url(#__lottie_element_100)" transform="translate(16 21.625)" opacity="1" display="none"><g id="l_d_277" opacity="1"><path id="l_d_278" fill-opacity="1" d="m-.847 8-2.57 12.75h6.5L.319 8.083"/></g></g><g id="l_d_263" clip-path="url(#__lottie_element_97)" transform="translate(16 21.625)" opacity="1" display="none"><g id="l_d_269" opacity="1"><path id="l_d_270" fill-opacity="1" d="m-.847 8-2.57 12.75h6.5L.319 8.083"/></g></g><g id="l_d_255" clip-path="url(#__lottie_element_94)" transform="translate(16 21.625)" opacity="1" display="none"><g id="l_d_261" opacity="1"><path id="l_d_262" fill-opacity="1" d="m-.847 8-2.57 12.75h6.5L.319 8.083"/></g></g><g id="l_d_247" clip-path="url(#__lottie_element_91)" transform="translate(16 21.625)" opacity="1" display="none"><g id="l_d_253" opacity="1"><path id="l_d_254" fill-opacity="1" d="m-.847 8-2.57 12.75h6.5L.319 8.083"/></g></g></g></svg>