<svg id="l_d_407" xmlns="http://www.w3.org/2000/svg" viewBox="0 0 45 45" preserveAspectRatio="xMidYMid meet" style="width:100%;height:100%;content-visibility:visible"><defs id="l_d_408"><clipPath id="__lottie_element_146"><rect id="l_d_411" width="45" height="45" x="0" y="0"/></clipPath><clipPath id="__lottie_element_150"><path id="l_d_414" clip-rule="nonzero" d="M55.875 27.097H30.706l.069 10.078h25.169z" fill-opacity="1"/></clipPath><clipPath id="__lottie_element_153"><path id="l_d_421" clip-rule="nonzero" d="M55.9 25.997H30.731l.019 9.878h25.169z" fill-opacity="1"/></clipPath></defs><g id="l_d_409" clip-path="url(#__lottie_element_146)"><g id="l_d_444" transform="translate(-23 -17.5)" opacity="1" display="block"><g id="l_d_448" opacity="1" transform="translate(40 46)"><path id="l_d_449" stroke-linecap="butt" stroke-linejoin="miter" fill-opacity="0" stroke-miterlimit="4" stroke-opacity="1" stroke-width="2" d="M-12-8h24V7a1 1 0 0 1-1 1h-22a1 1 0 0 1-1-1V-8z"/></g><g id="l_d_450" opacity="1" transform="translate(53.5 38)"><path id="l_d_451" stroke-linecap="butt" stroke-linejoin="miter" fill-opacity="0" stroke-miterlimit="4" stroke-opacity="1" stroke-width="2" d="M1.5 0h-3"/></g><g id="l_d_452" opacity="1" transform="translate(26.5 38)"><path id="l_d_453" stroke-linecap="butt" stroke-linejoin="miter" fill-opacity="0" stroke-miterlimit="4" stroke-opacity="1" stroke-width="2" d="M1.5 0h-3"/></g></g><g id="l_d_426" transform="translate(-23 -17.5)" opacity="1" display="block"><g id="l_d_430" opacity="1" transform="translate(33.5 30.44)"><path id="l_d_431" fill-opacity="1" d="M0-4.44A4.505 4.505 0 0 0-4.5.06C-4.5 2.197-3 3.983-1 4.44V2.349A2.5 2.5 0 0 1-2.5.06c0-1.378 1.122-2.5 2.5-2.5S2.5-1.318 2.5.06A2.5 2.5 0 0 1 1 2.349V4.44C3 3.983 4.5 2.197 4.5.06c0-2.481-2.019-4.5-4.5-4.5"/></g></g><g id="l_d_438" transform="translate(7.217 18.5)" opacity="1" display="block"><g id="l_d_442" opacity="1"><path id="l_d_443" stroke-linecap="butt" stroke-linejoin="miter" fill-opacity="0" stroke-miterlimit="4" stroke-opacity="1" stroke-width="2" d="M-2.217 2a4 4 0 0 1 4-4H1.52h.697"/></g></g><g id="l_d_432" transform="translate(17.301 21)" opacity="1" display="block"><g id="l_d_436" opacity="1"><path id="l_d_437" stroke-linecap="butt" stroke-linejoin="miter" fill-opacity="0" stroke-miterlimit="4" stroke-opacity="1" stroke-width="2" d="M-5.699-4.5h.74A4 4 0 0 1-2.13-3.329L5.699 4.5"/></g></g><g id="l_d_419" clip-path="url(#__lottie_element_153)" transform="translate(-14.125 -18.375)" opacity="1" display="block"><g id="l_d_424" opacity="1" transform="translate(35.997 9.467)"><path id="l_d_425" stroke-linecap="butt" stroke-linejoin="round" fill-opacity="0" stroke-opacity="1" stroke-width="2" d="M6.997-5.467c.005 4.833-3.994 6.083-3.994 11s3.999 6.167 3.994 11-3.994 6.167-3.994 11m3.994-55.066c.005 4.833-3.994 6.083-3.994 11s3.999 6.167 3.994 11v.066c.005 4.833-3.994 6.083-3.994 11s3.999 6.167 3.994 11-3.994 6.167-3.994 11"/></g></g><g id="l_d_412" clip-path="url(#__lottie_element_150)" transform="translate(-13.325 -19.575)" opacity="1" display="block"><g id="l_d_417" opacity="1" transform="translate(35.997 9.467)"><path id="l_d_418" stroke-linecap="butt" stroke-linejoin="round" fill-opacity="0" stroke-opacity="1" stroke-width="2" d="M1.997-5.467c.005 4.833-3.994 6.083-3.994 11s3.999 6.167 3.994 11-3.994 6.167-3.994 11m3.994-55.066c.005 4.833-3.994 6.083-3.994 11s3.999 6.167 3.994 11v.066c.005 4.833-3.994 6.083-3.994 11s3.999 6.167 3.994 11-3.994 6.167-3.994 11"/></g></g></g></svg>