<svg id="l_d_518" xmlns="http://www.w3.org/2000/svg" viewBox="0 0 45 45" preserveAspectRatio="xMidYMid meet" style="width:100%;height:100%;content-visibility:visible"><defs id="l_d_519"><clipPath id="__lottie_element_194"><rect id="l_d_522" width="45" height="45" x="0" y="0"/></clipPath></defs><g id="l_d_520" clip-path="url(#__lottie_element_194)"><g id="l_d_545" transform="translate(-22.875 -16.75)" opacity="1" display="block"><g id="l_d_549" opacity="1"><g id="l_d_550" opacity="1" transform="translate(40 42)"><path id="l_d_551" stroke-linecap="butt" stroke-linejoin="miter" fill-opacity="0" stroke-miterlimit="4" stroke-opacity="1" stroke-width="2" d="M-8-4v15h-4v-22h24v22H8V-4a1 1 0 0 0-1-1H-7a1 1 0 0 0-1 1z"/></g><g id="l_d_552" opacity="1" transform="translate(40 31)"><path id="l_d_553" stroke-linecap="butt" stroke-linejoin="round" fill-opacity="0" stroke-opacity="1" stroke-width="2" d="M-15 0h30"/></g><g id="l_d_554" opacity="1" transform="translate(40 27)"><path id="l_d_555" stroke-linecap="butt" stroke-linejoin="round" fill-opacity="0" stroke-opacity="1" stroke-width="2" d="M-15 0h30"/></g></g></g><g id="l_d_538" transform="matrix(1.0333 0 0 .85822 -24.207 -9.236)" opacity="1" display="block"><g id="l_d_542" opacity="1"><g id="l_d_543" opacity="1" transform="translate(40 47.634)"><path id="l_d_544" stroke-linecap="butt" stroke-linejoin="miter" fill-opacity="0" stroke-miterlimit="4" stroke-opacity="1" stroke-width="2" d="M0-5.364q4 3.455 4 6.728a4 4 0 0 1-4 4c-2.209 0-4-1.818-4-4q0-3.273 4-6.728z"/></g></g></g><g id="l_d_532" transform="matrix(1.0333 0 0 .83875 -24.207 -8.204)" opacity="1" display="block"><g id="l_d_536" opacity="1" transform="translate(40 51)"><path id="l_d_537" stroke-linecap="butt" stroke-linejoin="round" fill-opacity="0" stroke-opacity="1" stroke-width="2" d="M.007-2.704a2.357 2.357 0 1 1 0 4.713 2.357 2.357 0 0 1 0-4.713z"/></g></g><g id="l_d_523" transform="translate(3.75 11.384)scale(.33436)" opacity="1" display="none"><g id="l_d_527" opacity="1"><g id="l_d_528" opacity="1" transform="translate(40 47.634)"><path id="l_d_529" stroke-linecap="butt" stroke-linejoin="miter" fill-opacity="0" stroke-miterlimit="4" stroke-opacity="1" stroke-width="2" d="M0-5.364q4 3.455 4 6.728a4 4 0 0 1-4 4c-2.209 0-4-1.818-4-4q0-3.273 4-6.728z"/></g></g><g id="l_d_530" opacity="1" transform="translate(40 51)"><path id="l_d_531" stroke-linecap="butt" stroke-linejoin="round" fill-opacity="0" stroke-opacity="1" stroke-width="2" d="M0-2.25a2.25 2.25 0 1 1 0 4.5 2.25 2.25 0 0 1 0-4.5z"/></g></g></g></svg>