<svg id="l_d_53" xmlns="http://www.w3.org/2000/svg" xmlns:xlink="http://www.w3.org/1999/xlink" viewBox="0 0 45 45" preserveAspectRatio="xMidYMid meet" style="width:100%;height:100%;content-visibility:visible"><defs id="l_d_54"><clipPath id="__lottie_element_26"><rect id="l_d_57" width="45" height="45" x="0" y="0"/></clipPath><g id="__lottie_element_37"><g id="l_d_91" transform="translate(-23.5 -17.5)" opacity="1" display="none"><g id="l_d_96" opacity="1" transform="translate(40 40)"><path id="l_d_97" fill-opacity="1" d="M-12-4.998h24a1 1 0 0 1 1 1v15.965a1 1 0 0 1-1 1h-24a1 1 0 0 1-1-1V-3.998a1 1 0 0 1 1-1"/></g></g></g><mask id="__lottie_element_37_1" mask-type="alpha"><use id="l_d_105" xlink:href="#__lottie_element_37"/></mask><g id="__lottie_element_43"><g id="l_d_106" transform="translate(-23.5 -17.5)" opacity="1" display="none"><g id="l_d_111" opacity="1" transform="translate(40 40)"><path id="l_d_112" fill-opacity="1" d="M-12.016-4.995h24.029a1 1 0 0 1 1 1v15.933a1 1 0 0 1-1 1h-24.036a1 1 0 0 1-1-1l.007-15.933a1 1 0 0 1 1-1"/></g></g></g><mask id="__lottie_element_43_1" mask-type="alpha"><use id="l_d_131" xlink:href="#__lottie_element_43"/></mask></defs><g id="l_d_55" clip-path="url(#__lottie_element_26)"><g id="l_d_132" transform="translate(-17.629 -11.629)scale(.85322)" opacity="1" display="none"><g id="l_d_137" opacity="1" transform="translate(40 40)"><path id="l_d_138" stroke-linecap="butt" stroke-linejoin="miter" fill-opacity="0" stroke-miterlimit="4" stroke-opacity="1" stroke-width="2" d="M-12-13h24a1 1 0 0 1 1 1v24a1 1 0 0 1-1 1h-24a1 1 0 0 1-1-1v-24a1 1 0 0 1 1-1z"/></g><g id="l_d_139" opacity="1" transform="translate(40 35)"><path id="l_d_140" stroke-linecap="butt" stroke-linejoin="miter" fill-opacity="0" stroke-miterlimit="4" stroke-opacity="1" stroke-width="2" d="M13 0h-26"/></g><g id="l_d_141" opacity="1" transform="translate(49 31)"><path id="l_d_142" fill-opacity="1" d="M0-1a1 1 0 1 1 0 2 1 1 0 0 1 0-2"/></g><g id="l_d_143" opacity="1" transform="translate(43 31)"><path id="l_d_144" fill-opacity="1" d="M0-1a1 1 0 1 1 0 2 1 1 0 0 1 0-2"/></g><g id="l_d_145" opacity="1" transform="translate(37 31)"><path id="l_d_146" fill-opacity="1" d="M0-1a1 1 0 1 1 0 2 1 1 0 0 1 0-2"/></g><g id="l_d_147" opacity="1" transform="translate(31 31)"><path id="l_d_148" fill-opacity="1" d="M0-1a1 1 0 1 1 0 2 1 1 0 0 1 0-2"/></g></g><g id="l_d_114" mask="url(#__lottie_element_43_1)" display="none"><g id="l_d_113" transform="translate(-23.5 -17.5)" opacity="1"><g id="l_d_118" opacity="1" transform="translate(40 40)"><path id="l_d_119" stroke-linecap="butt" stroke-linejoin="miter" fill-opacity="0" stroke-miterlimit="4" stroke-opacity="1" stroke-width="2" d="M-12-13h24a1 1 0 0 1 1 1v24a1 1 0 0 1-1 1h-24a1 1 0 0 1-1-1v-24a1 1 0 0 1 1-1z"/></g><g id="l_d_120" opacity="1" transform="translate(40 35)"><path id="l_d_121" stroke-linecap="butt" stroke-linejoin="miter" fill-opacity="0" stroke-miterlimit="4" stroke-opacity="1" stroke-width="2" d="M13 0h-26"/></g><g id="l_d_122" opacity="1" transform="translate(49 31)"><path id="l_d_123" fill-opacity="1" d="M0-1a1 1 0 1 1 0 2 1 1 0 0 1 0-2"/></g><g id="l_d_124" opacity="1" transform="translate(43 31)"><path id="l_d_125" fill-opacity="1" d="M0-1a1 1 0 1 1 0 2 1 1 0 0 1 0-2"/></g><g id="l_d_126" opacity="1" transform="translate(37 31)"><path id="l_d_127" fill-opacity="1" d="M0-1a1 1 0 1 1 0 2 1 1 0 0 1 0-2"/></g><g id="l_d_128" opacity="1" transform="translate(31 31)"><path id="l_d_129" fill-opacity="1" d="M0-1a1 1 0 1 1 0 2 1 1 0 0 1 0-2"/></g></g></g><g id="l_d_99" mask="url(#__lottie_element_37_1)" display="none"><g id="l_d_98" transform="translate(-23.5 -15.999)" opacity="1"><g id="l_d_102" opacity="1" transform="translate(33.5 43.5)"><path id="l_d_103" stroke-linecap="butt" stroke-linejoin="round" fill-opacity="0" stroke-opacity="1" stroke-width="2" d="M1.439-5.216h10.274a4.817 4.817 0 0 1 4.8 4.417l.102 1.227a2.946 2.946 0 0 1-2.934 3.189H-.529A2.944 2.944 0 0 1-3.463.428l.102-1.227a4.817 4.817 0 0 1 4.8-4.417zm3.665 0 2.208 3.681M9.52-5.216l2.208 3.681M.688-5.216l2.208 3.681"/></g></g></g><g id="l_d_74" transform="translate(-23.5 -17.5)" opacity="1" display="block"><g id="l_d_79" opacity="1" transform="translate(40 40)"><path id="l_d_80" stroke-linecap="butt" stroke-linejoin="miter" fill-opacity="0" stroke-miterlimit="4" stroke-opacity="1" stroke-width="2" d="M-12-13h24a1 1 0 0 1 1 1v24a1 1 0 0 1-1 1h-24a1 1 0 0 1-1-1v-24a1 1 0 0 1 1-1z"/></g><g id="l_d_81" opacity="1" transform="translate(40 35)"><path id="l_d_82" stroke-linecap="butt" stroke-linejoin="miter" fill-opacity="0" stroke-miterlimit="4" stroke-opacity="1" stroke-width="2" d="M13 0h-26"/></g><g id="l_d_83" opacity="1" transform="translate(49 31)"><path id="l_d_84" fill-opacity="1" d="M0-1a1 1 0 1 1 0 2 1 1 0 0 1 0-2"/></g><g id="l_d_85" opacity="1" transform="translate(43 31)"><path id="l_d_86" fill-opacity="1" d="M0-1a1 1 0 1 1 0 2 1 1 0 0 1 0-2"/></g><g id="l_d_87" opacity="1" transform="translate(37 31)"><path id="l_d_88" fill-opacity="1" d="M0-1a1 1 0 1 1 0 2 1 1 0 0 1 0-2"/></g><g id="l_d_89" opacity="1" transform="translate(31 31)"><path id="l_d_90" fill-opacity="1" d="M0-1a1 1 0 1 1 0 2 1 1 0 0 1 0-2"/></g></g><g id="l_d_66" transform="translate(-23.5 -17.5)" opacity="1" display="block"><g id="l_d_70" opacity="1" transform="translate(40 44)"><path id="l_d_71" stroke-linecap="butt" stroke-linejoin="miter" fill-opacity="0" stroke-miterlimit="4" stroke-opacity="1" stroke-width="2" d="M0 0"/></g><g id="l_d_72" opacity="1" transform="translate(40 40)"><path id="l_d_73" stroke-linecap="butt" stroke-linejoin="miter" fill-opacity="0" stroke-miterlimit="4" stroke-opacity="1" stroke-width="2" d="M-9-1H9V9H-9zm-3-3.997h24a1 1 0 0 1 1 1V12a1 1 0 0 1-1 1h-24a1 1 0 0 1-1-1V-3.997a1 1 0 0 1 1-1z"/></g></g><g id="l_d_58" transform="translate(-17.629 -11.629)scale(.85322)" opacity="1" display="none"><g id="l_d_62" opacity="1" transform="translate(40 44)"><path id="l_d_63" stroke-linecap="butt" stroke-linejoin="miter" fill-opacity="0" stroke-miterlimit="4" stroke-opacity="1" stroke-width="2" d="M-9-5H9V5H-9z"/></g><g id="l_d_64" opacity="1" transform="translate(40 35)"><path id="l_d_65" stroke-linecap="butt" stroke-linejoin="miter" fill-opacity="0" stroke-miterlimit="4" stroke-opacity="1" stroke-width="2" d="M13 0h-26"/></g></g></g></svg>