<svg id="l_d_1062" xmlns="http://www.w3.org/2000/svg" xmlns:xlink="http://www.w3.org/1999/xlink" viewBox="0 0 45 45" preserveAspectRatio="xMidYMid meet" style="width:100%;height:100%;content-visibility:visible"><defs id="l_d_1063"><clipPath id="__lottie_element_424"><rect id="l_d_1066" width="45" height="45" x="0" y="0"/></clipPath><g id="__lottie_element_426"><g id="l_d_1067" clip-path="url(#__lottie_element_427)" transform="translate(-23.5 -18)" opacity="1" display="block"><rect id="l_d_1073" width="80" height="80"/></g></g><clipPath id="__lottie_element_427"><path id="l_d_1070" clip-rule="nonzero" d="M54.038 21.913H25.375l.038 40.912h28.662z" fill-opacity="1"/></clipPath><clipPath id="__lottie_element_430"><path id="l_d_1077" d="M0 0h80v80H0z"/></clipPath><mask id="__lottie_element_426_1" mask-type="alpha"><use id="l_d_1099" xlink:href="#__lottie_element_426"/></mask><g id="__lottie_element_443"><g id="l_d_1100" clip-path="url(#__lottie_element_444)" transform="translate(-23.5 -18)" opacity="1" display="block"><rect id="l_d_1106" width="80" height="80"/></g></g><clipPath id="__lottie_element_444"><path id="l_d_1103" clip-rule="nonzero" d="M54.038 21.913H25.375l.038 37.537h28.662z" fill-opacity="1"/></clipPath><clipPath id="__lottie_element_447"><path id="l_d_1110" d="M0 0h80v80H0z"/></clipPath><mask id="__lottie_element_443_1" mask-type="alpha"><use id="l_d_1132" xlink:href="#__lottie_element_443"/></mask></defs><g id="l_d_1064" clip-path="url(#__lottie_element_424)"><g id="l_d_1163" transform="translate(1.5 7.818)" opacity="1" display="block"><g id="l_d_1167" opacity="1" transform="translate(15 9.262)"><path id="l_d_1168" fill-opacity="1" d="M14 6.421v2h-28v-10c0-.25.094-.491.26-.674l.09-.087 6.354-5.441a2 2 0 0 1 2.467-.106l.136.106 6.344 5.442c.19.163.311.39.341.635L2-1.579v8M-5.995-6.262-12-1.12v7.541h3v-5a1 1 0 0 1 .883-.993L-8 .421h4c.513 0 .936.385.993.882l.007.118v5h3V-1.12zM-5 2.421h-2v4h2z"/></g></g><g id="l_d_1133" transform="translate(24.249 8.25)" opacity="1" display="block"><g id="l_d_1137" opacity="1" transform="translate(1.263 7.831)"><path id="l_d_1138" fill-opacity="1" d="M-1.001 8.956h2.027L1.014-7.581h-2.028z"/></g></g><g id="l_d_1157" transform="translate(20.27 8.25)" opacity="1" display="block"><g id="l_d_1161" opacity="1" transform="translate(2.241 3.4)"><path id="l_d_1162" fill-opacity="1" d="M2.302 1.682c-.922.795-2.465 1.409-4.006 1.463l-.286.005v-2c2.314 0 3.543-1.278 3.933-3.211l.021-.129c.014-.108.022-.224.026-.336l-.004-.093.004-.272-.002-.259"/></g></g><g id="l_d_1151" transform="translate(25.476 9.118)" opacity="1" display="block"><g id="l_d_1155" opacity="1" transform="translate(2.629 2.966)"><path id="l_d_1156" fill-opacity="1" d="M-1.955 1.189C-.976 2.033.7 2.715 2.378 2.715v-2L2.143.712C-.019.628-1.179-.628-1.555-2.495l-.05-.22h-.773z"/></g></g><g id="l_d_1145" transform="translate(20.271 14.834)" opacity="1" display="block"><g id="l_d_1149" opacity="1" transform="translate(2.903 2.458)"><path id="l_d_1150" fill-opacity="1" d="m3.029-2.296-1.703.088-.03.184C.938-.712-.26.208-2.654.208v2l.306-.004c1.523-.045 2.75-.426 3.675-1.05L2.654-.133z"/></g></g><g id="l_d_1139" transform="translate(24.539 15.019)" opacity="1" display="block"><g id="l_d_1143" opacity="1" transform="translate(3.096 2.366)"><path id="l_d_1144" fill-opacity="1" d="M-1.135 1.061c.986.666 2.316 1.054 3.981 1.054v-2L2.585.111C.364.046-.768-.852-1.113-2.115l-.899.116-.834 1.907z"/></g></g><g id="l_d_1108" mask="url(#__lottie_element_443_1)" display="block"><g id="l_d_1107" clip-path="url(#__lottie_element_447)" transform="translate(-23.5 -22.625)" opacity="1"><g id="l_d_1125" transform="translate(26 25.5)" opacity="1" display="block"><g id="l_d_1129" opacity="1" transform="translate(14 26.906)"><path id="l_d_1130" fill-opacity="1" d="M9.334-1.906A4.4 4.4 0 0 1 12.35-.73c.39.365.901.584 1.444.628L14-.094v2A4.4 4.4 0 0 1 10.983.73 2.4 2.4 0 0 0 9.334.094c-.62 0-1.212.225-1.65.636a4.4 4.4 0 0 1-3.017 1.176A4.4 4.4 0 0 1 1.829.889L1.65.73A2.4 2.4 0 0 0 0 .094c-.62 0-1.211.225-1.649.636a4.4 4.4 0 0 1-3.018 1.176A4.4 4.4 0 0 1-7.684.73 2.4 2.4 0 0 0-9.333.094c-.62 0-1.211.225-1.65.636a4.4 4.4 0 0 1-2.778 1.17l-.239.006v-2c.551 0 1.079-.178 1.498-.506l.152-.13a4.4 4.4 0 0 1 3.017-1.176A4.4 4.4 0 0 1-6.316-.73a2.4 2.4 0 0 0 1.649.636c.62 0 1.211-.224 1.65-.636A4.4 4.4 0 0 1 0-1.906 4.4 4.4 0 0 1 3.017-.73c.439.411 1.03.636 1.65.636S5.878-.319 6.316-.73a4.4 4.4 0 0 1 3.018-1.176"/></g></g><g id="l_d_1119" transform="translate(53.125 25.5)" opacity="1" display="block"><g id="l_d_1123" opacity="1" transform="translate(14 26.906)"><path id="l_d_1124" fill-opacity="1" d="M9.334-1.906A4.4 4.4 0 0 1 12.35-.73c.39.365.901.584 1.444.628L14-.094v2A4.4 4.4 0 0 1 10.983.73 2.4 2.4 0 0 0 9.334.094c-.62 0-1.212.225-1.65.636a4.4 4.4 0 0 1-3.017 1.176A4.4 4.4 0 0 1 1.829.889L1.65.73A2.4 2.4 0 0 0 0 .094c-.62 0-1.211.225-1.649.636a4.4 4.4 0 0 1-3.018 1.176A4.4 4.4 0 0 1-7.684.73 2.4 2.4 0 0 0-9.333.094c-.62 0-1.211.225-1.65.636a4.4 4.4 0 0 1-2.778 1.17l-.239.006v-2c.551 0 1.079-.178 1.498-.506l.152-.13a4.4 4.4 0 0 1 3.017-1.176A4.4 4.4 0 0 1-6.316-.73a2.4 2.4 0 0 0 1.649.636c.62 0 1.211-.224 1.65-.636A4.4 4.4 0 0 1 0-1.906 4.4 4.4 0 0 1 3.017-.73c.439.411 1.03.636 1.65.636S5.878-.319 6.316-.73a4.4 4.4 0 0 1 3.018-1.176"/></g></g><g id="l_d_1113" transform="translate(80.625 25.5)" opacity="1" display="block"><g id="l_d_1117" opacity="1" transform="translate(14 26.906)"><path id="l_d_1118" fill-opacity="1" d="M9.334-1.906A4.4 4.4 0 0 1 12.35-.73c.39.365.901.584 1.444.628L14-.094v2A4.4 4.4 0 0 1 10.983.73 2.4 2.4 0 0 0 9.334.094c-.62 0-1.212.225-1.65.636a4.4 4.4 0 0 1-3.017 1.176A4.4 4.4 0 0 1 1.829.889L1.65.73A2.4 2.4 0 0 0 0 .094c-.62 0-1.211.225-1.649.636a4.4 4.4 0 0 1-3.018 1.176A4.4 4.4 0 0 1-7.684.73 2.4 2.4 0 0 0-9.333.094c-.62 0-1.211.225-1.65.636a4.4 4.4 0 0 1-2.778 1.17l-.239.006v-2c.551 0 1.079-.178 1.498-.506l.152-.13a4.4 4.4 0 0 1 3.017-1.176A4.4 4.4 0 0 1-6.316-.73a2.4 2.4 0 0 0 1.649.636c.62 0 1.211-.224 1.65-.636A4.4 4.4 0 0 1 0-1.906 4.4 4.4 0 0 1 3.017-.73c.439.411 1.03.636 1.65.636S5.878-.319 6.316-.73a4.4 4.4 0 0 1 3.018-1.176"/></g></g></g></g><g id="l_d_1075" mask="url(#__lottie_element_426_1)" display="block"><g id="l_d_1074" clip-path="url(#__lottie_element_430)" transform="translate(-23.5 -18)" opacity="1"><g id="l_d_1092" transform="translate(26 25.5)" opacity="1" display="block"><g id="l_d_1096" opacity="1" transform="translate(14 26.906)"><path id="l_d_1097" fill-opacity="1" d="M9.334-1.906A4.4 4.4 0 0 1 12.35-.73c.39.365.901.584 1.444.628L14-.094v2A4.4 4.4 0 0 1 10.983.73 2.4 2.4 0 0 0 9.334.094c-.62 0-1.212.225-1.65.636a4.4 4.4 0 0 1-3.017 1.176A4.4 4.4 0 0 1 1.829.889L1.65.73A2.4 2.4 0 0 0 0 .094c-.62 0-1.211.225-1.649.636a4.4 4.4 0 0 1-3.018 1.176A4.4 4.4 0 0 1-7.684.73 2.4 2.4 0 0 0-9.333.094c-.62 0-1.211.225-1.65.636a4.4 4.4 0 0 1-2.778 1.17l-.239.006v-2c.551 0 1.079-.178 1.498-.506l.152-.13a4.4 4.4 0 0 1 3.017-1.176A4.4 4.4 0 0 1-6.316-.73a2.4 2.4 0 0 0 1.649.636c.62 0 1.211-.224 1.65-.636A4.4 4.4 0 0 1 0-1.906 4.4 4.4 0 0 1 3.017-.73c.439.411 1.03.636 1.65.636S5.878-.319 6.316-.73a4.4 4.4 0 0 1 3.018-1.176"/></g></g><g id="l_d_1086" transform="translate(53.125 25.5)" opacity="1" display="block"><g id="l_d_1090" opacity="1" transform="translate(14 26.906)"><path id="l_d_1091" fill-opacity="1" d="M9.334-1.906A4.4 4.4 0 0 1 12.35-.73c.39.365.901.584 1.444.628L14-.094v2A4.4 4.4 0 0 1 10.983.73 2.4 2.4 0 0 0 9.334.094c-.62 0-1.212.225-1.65.636a4.4 4.4 0 0 1-3.017 1.176A4.4 4.4 0 0 1 1.829.889L1.65.73A2.4 2.4 0 0 0 0 .094c-.62 0-1.211.225-1.649.636a4.4 4.4 0 0 1-3.018 1.176A4.4 4.4 0 0 1-7.684.73 2.4 2.4 0 0 0-9.333.094c-.62 0-1.211.225-1.65.636a4.4 4.4 0 0 1-2.778 1.17l-.239.006v-2c.551 0 1.079-.178 1.498-.506l.152-.13a4.4 4.4 0 0 1 3.017-1.176A4.4 4.4 0 0 1-6.316-.73a2.4 2.4 0 0 0 1.649.636c.62 0 1.211-.224 1.65-.636A4.4 4.4 0 0 1 0-1.906 4.4 4.4 0 0 1 3.017-.73c.439.411 1.03.636 1.65.636S5.878-.319 6.316-.73a4.4 4.4 0 0 1 3.018-1.176"/></g></g><g id="l_d_1080" transform="translate(80.625 25.5)" opacity="1" display="block"><g id="l_d_1084" opacity="1" transform="translate(14 26.906)"><path id="l_d_1085" fill-opacity="1" d="M9.334-1.906A4.4 4.4 0 0 1 12.35-.73c.39.365.901.584 1.444.628L14-.094v2A4.4 4.4 0 0 1 10.983.73 2.4 2.4 0 0 0 9.334.094c-.62 0-1.212.225-1.65.636a4.4 4.4 0 0 1-3.017 1.176A4.4 4.4 0 0 1 1.829.889L1.65.73A2.4 2.4 0 0 0 0 .094c-.62 0-1.211.225-1.649.636a4.4 4.4 0 0 1-3.018 1.176A4.4 4.4 0 0 1-7.684.73 2.4 2.4 0 0 0-9.333.094c-.62 0-1.211.225-1.65.636a4.4 4.4 0 0 1-2.778 1.17l-.239.006v-2c.551 0 1.079-.178 1.498-.506l.152-.13a4.4 4.4 0 0 1 3.017-1.176A4.4 4.4 0 0 1-6.316-.73a2.4 2.4 0 0 0 1.649.636c.62 0 1.211-.224 1.65-.636A4.4 4.4 0 0 1 0-1.906 4.4 4.4 0 0 1 3.017-.73c.439.411 1.03.636 1.65.636S5.878-.319 6.316-.73a4.4 4.4 0 0 1 3.018-1.176"/></g></g></g></g></g></svg>