<svg id="l_d_557" xmlns="http://www.w3.org/2000/svg" xmlns:xlink="http://www.w3.org/1999/xlink" viewBox="0 0 45 45" preserveAspectRatio="xMidYMid meet" style="width:100%;height:100%;content-visibility:visible"><defs id="l_d_558"><clipPath id="__lottie_element_212"><rect id="l_d_561" width="45" height="45" x="0" y="0"/></clipPath><clipPath id="__lottie_element_254"><path id="l_d_656" d="M0 0h80v80H0z"/></clipPath><g id="__lottie_element_257"><g id="l_d_659" transform="translate(40 41)" opacity="1" display="none"><g id="l_d_664" opacity="1" transform="translate(-1.299 3.529)"><path id="l_d_665" fill-opacity="1" d="M3.326-11.168v22.336h-6.652v-22.336z"/></g></g></g><mask id="__lottie_element_257_1" mask-type="alpha"><use id="l_d_673" xlink:href="#__lottie_element_257"/></mask><clipPath id="__lottie_element_264"><path id="l_d_676" clip-rule="nonzero" d="M41.371 34.875H35v22.229h6.371z" fill-opacity="1"/></clipPath><clipPath id="__lottie_element_267"><path id="l_d_685" d="M0 0h80v80H0z"/></clipPath><g id="__lottie_element_270"><g id="l_d_688" transform="translate(40 41)" opacity="1" display="none"><g id="l_d_693" opacity="1" transform="translate(-1.299 3.529)"><path id="l_d_694" fill-opacity="1" d="M3.326-11.168v22.336h-6.652v-22.336z"/></g></g></g><mask id="__lottie_element_270_1" mask-type="alpha"><use id="l_d_702" xlink:href="#__lottie_element_270"/></mask><clipPath id="__lottie_element_277"><path id="l_d_705" clip-rule="nonzero" d="M41.371 34.875H35v22.229h6.371z" fill-opacity="1"/></clipPath><clipPath id="__lottie_element_280"><path id="l_d_714" d="M0 0h80v80H0z"/></clipPath><g id="__lottie_element_283"><g id="l_d_717" transform="translate(40 41)" opacity="1" display="none"><g id="l_d_722" opacity="1" transform="translate(-1.299 3.529)"><path id="l_d_723" fill-opacity="1" d="M3.326-11.168v22.336h-6.652v-22.336z"/></g></g></g><mask id="__lottie_element_283_1" mask-type="alpha"><use id="l_d_731" xlink:href="#__lottie_element_283"/></mask><clipPath id="__lottie_element_290"><path id="l_d_734" clip-rule="nonzero" d="M41.371 34.875H35v22.229h6.371z" fill-opacity="1"/></clipPath></defs><g id="l_d_559" clip-path="url(#__lottie_element_212)"><g id="l_d_740" transform="translate(-26 -17.25)" opacity="1" display="block"><g id="l_d_744" opacity="1" transform="translate(36.5 40.5)"><path id="l_d_745" stroke-linecap="butt" stroke-linejoin="miter" fill-opacity="0" stroke-miterlimit="4" stroke-opacity="1" stroke-width="2" d="M7.5-10.5v-2a2 2 0 0 0-2-2h-11a2 2 0 0 0-2 2v27"/></g><g id="l_d_746" opacity="1" transform="translate(44 32)"><path id="l_d_747" stroke-linecap="butt" stroke-linejoin="round" fill-opacity="0" stroke-opacity="1" stroke-width="2" d="M6-2H-6v4H6z"/></g><g id="l_d_748" opacity="1" transform="translate(44 34)"><path id="l_d_749" stroke-linecap="butt" stroke-linejoin="round" fill-opacity="0" stroke-opacity="1" stroke-width="2" d="M-9 0H9"/></g></g><g id="l_d_711" clip-path="url(#__lottie_element_280)" transform="translate(-26 -17.25)" opacity="1" display="block"><g id="l_d_732" clip-path="url(#__lottie_element_290)" opacity="1" display="block"><g id="l_d_737" opacity="1"><g id="l_d_738" opacity="1" transform="translate(39 54)"><path id="l_d_739" fill-opacity="1" d="M5-17a1 1 0 1 0 0 2 1 1 0 0 0 0-2m-5 0a1 1 0 1 0 0 2 1 1 0 0 0 0-2m10 0a1 1 0 1 0 0 2 1 1 0 0 0 0-2m-5 4a1 1 0 1 0 0 2 1 1 0 0 0 0-2m5 0a1 1 0 1 0 0 2 1 1 0 0 0 0-2M0-13a1 1 0 1 0 0 2 1 1 0 0 0 0-2m5 4a1 1 0 1 0 0 2 1 1 0 0 0 0-2m5 0a1 1 0 1 0 0 2 1 1 0 0 0 0-2M0-9a1 1 0 1 0 0 2 1 1 0 0 0 0-2m5 4a1 1 0 1 0 0 2 1 1 0 0 0 0-2m5 0a1 1 0 1 0 0 2 1 1 0 0 0 0-2M0-5a1 1 0 1 0 0 2 1 1 0 0 0 0-2m5 4a1 1 0 1 0 0 2 1 1 0 0 0 0-2m5 0a1 1 0 1 0 0 2 1 1 0 0 0 0-2M0-1a1 1 0 1 0 0 2 1 1 0 0 0 0-2"/></g></g></g><g id="l_d_725" mask="url(#__lottie_element_283_1)" display="block"><g id="l_d_724" transform="translate(40 64.914)" opacity="1"><g id="l_d_728" opacity="1"><path id="l_d_729" stroke-linecap="round" stroke-linejoin="miter" fill-opacity="0" stroke-miterlimit="4" stroke-dasharray="0.1 4" stroke-dashoffset="6" stroke-opacity="1" stroke-width="2" d="m-1.006-29.002-.006 59.875"/></g></g></g></g><g id="l_d_682" clip-path="url(#__lottie_element_267)" transform="translate(-21 -17.25)" opacity="1" display="block"><g id="l_d_703" clip-path="url(#__lottie_element_277)" opacity="1" display="block"><g id="l_d_708" opacity="1"><g id="l_d_709" opacity="1" transform="translate(39 54)"><path id="l_d_710" fill-opacity="1" d="M5-17a1 1 0 1 0 0 2 1 1 0 0 0 0-2m-5 0a1 1 0 1 0 0 2 1 1 0 0 0 0-2m10 0a1 1 0 1 0 0 2 1 1 0 0 0 0-2m-5 4a1 1 0 1 0 0 2 1 1 0 0 0 0-2m5 0a1 1 0 1 0 0 2 1 1 0 0 0 0-2M0-13a1 1 0 1 0 0 2 1 1 0 0 0 0-2m5 4a1 1 0 1 0 0 2 1 1 0 0 0 0-2m5 0a1 1 0 1 0 0 2 1 1 0 0 0 0-2M0-9a1 1 0 1 0 0 2 1 1 0 0 0 0-2m5 4a1 1 0 1 0 0 2 1 1 0 0 0 0-2m5 0a1 1 0 1 0 0 2 1 1 0 0 0 0-2M0-5a1 1 0 1 0 0 2 1 1 0 0 0 0-2m5 4a1 1 0 1 0 0 2 1 1 0 0 0 0-2m5 0a1 1 0 1 0 0 2 1 1 0 0 0 0-2M0-1a1 1 0 1 0 0 2 1 1 0 0 0 0-2"/></g></g></g><g id="l_d_696" mask="url(#__lottie_element_270_1)" display="block"><g id="l_d_695" transform="translate(40 64.914)" opacity="1"><g id="l_d_699" opacity="1"><path id="l_d_700" stroke-linecap="round" stroke-linejoin="miter" fill-opacity="0" stroke-miterlimit="4" stroke-dasharray="0.1 4" stroke-dashoffset="6" stroke-opacity="1" stroke-width="2" d="m-1.006-29.002-.006 59.875"/></g></g></g></g><g id="l_d_653" clip-path="url(#__lottie_element_254)" transform="translate(-16.083 -17.25)" opacity="1" display="block"><g id="l_d_674" clip-path="url(#__lottie_element_264)" opacity="1" display="block"><g id="l_d_679" opacity="1"><g id="l_d_680" opacity="1" transform="translate(39 54)"><path id="l_d_681" fill-opacity="1" d="M5-17a1 1 0 1 0 0 2 1 1 0 0 0 0-2m-5 0a1 1 0 1 0 0 2 1 1 0 0 0 0-2m10 0a1 1 0 1 0 0 2 1 1 0 0 0 0-2m-5 4a1 1 0 1 0 0 2 1 1 0 0 0 0-2m5 0a1 1 0 1 0 0 2 1 1 0 0 0 0-2M0-13a1 1 0 1 0 0 2 1 1 0 0 0 0-2m5 4a1 1 0 1 0 0 2 1 1 0 0 0 0-2m5 0a1 1 0 1 0 0 2 1 1 0 0 0 0-2M0-9a1 1 0 1 0 0 2 1 1 0 0 0 0-2m5 4a1 1 0 1 0 0 2 1 1 0 0 0 0-2m5 0a1 1 0 1 0 0 2 1 1 0 0 0 0-2M0-5a1 1 0 1 0 0 2 1 1 0 0 0 0-2m5 4a1 1 0 1 0 0 2 1 1 0 0 0 0-2m5 0a1 1 0 1 0 0 2 1 1 0 0 0 0-2M0-1a1 1 0 1 0 0 2 1 1 0 0 0 0-2"/></g></g></g><g id="l_d_667" mask="url(#__lottie_element_257_1)" display="block"><g id="l_d_666" transform="translate(40 64.914)" opacity="1"><g id="l_d_670" opacity="1"><path id="l_d_671" stroke-linecap="round" stroke-linejoin="miter" fill-opacity="0" stroke-miterlimit="4" stroke-dasharray="0.1 4" stroke-dashoffset="6" stroke-opacity="1" stroke-width="2" d="m-1.006-29.002-.006 59.875"/></g></g></g></g><g id="l_d_646" transform="matrix(0 0 0 0 6.508 36.18)" opacity="1" display="none"><g id="l_d_650" opacity="1"><g id="l_d_651" opacity="1" transform="translate(39 54)"><path id="l_d_652" fill-opacity="1" d="M0-1a1 1 0 1 0 0 2 1 1 0 0 0 0-2"/></g></g></g><g id="l_d_639" transform="matrix(0 0 0 0 5.875 34)" opacity="1" display="none"><g id="l_d_643" opacity="1"><g id="l_d_644" opacity="1" transform="translate(39 54)"><path id="l_d_645" fill-opacity="1" d="M0-1a1 1 0 1 0 0 2 1 1 0 0 0 0-2"/></g></g></g><g id="l_d_632" transform="matrix(0 0 0 0 4.875 36.75)" opacity="1" display="none"><g id="l_d_636" opacity="1"><g id="l_d_637" opacity="1" transform="translate(39 54)"><path id="l_d_638" fill-opacity="1" d="M0-1a1 1 0 1 0 0 2 1 1 0 0 0 0-2"/></g></g></g><g id="l_d_625" transform="matrix(0 0 0 0 7.625 30.25)" opacity="1" display="none"><g id="l_d_629" opacity="1"><g id="l_d_630" opacity="1" transform="translate(39 54)"><path id="l_d_631" fill-opacity="1" d="M0-1a1 1 0 1 0 0 2 1 1 0 0 0 0-2"/></g></g></g><g id="l_d_618" transform="translate(6.49 36.173)scale(.00025)" opacity="1" display="none"><g id="l_d_622" opacity="1"><g id="l_d_623" opacity="1" transform="translate(39 54)"><path id="l_d_624" fill-opacity="1" d="M0-1a1 1 0 1 0 0 2 1 1 0 0 0 0-2"/></g></g></g><g id="l_d_611" transform="matrix(0 0 0 0 30.003 36.18)" opacity="1" display="none"><g id="l_d_615" opacity="1"><g id="l_d_616" opacity="1" transform="translate(39 54)"><path id="l_d_617" fill-opacity="1" d="M0-1a1 1 0 1 0 0 2 1 1 0 0 0 0-2"/></g></g></g><g id="l_d_604" transform="matrix(0 0 0 0 29.692 27.533)" opacity="1" display="none"><g id="l_d_608" opacity="1"><g id="l_d_609" opacity="1" transform="translate(39 54)"><path id="l_d_610" fill-opacity="1" d="M0-1a1 1 0 1 0 0 2 1 1 0 0 0 0-2"/></g></g></g><g id="l_d_597" transform="matrix(0 0 0 0 30.728 36.625)" opacity="1" display="none"><g id="l_d_601" opacity="1"><g id="l_d_602" opacity="1" transform="translate(39 54)"><path id="l_d_603" fill-opacity="1" d="M0-1a1 1 0 1 0 0 2 1 1 0 0 0 0-2"/></g></g></g><g id="l_d_590" transform="matrix(0 0 0 0 32.062 30.687)" opacity="1" display="none"><g id="l_d_594" opacity="1"><g id="l_d_595" opacity="1" transform="translate(39 54)"><path id="l_d_596" fill-opacity="1" d="M0-1a1 1 0 1 0 0 2 1 1 0 0 0 0-2"/></g></g></g><g id="l_d_583" transform="translate(29.426 27.3)scale(.00025)" opacity="1" display="none"><g id="l_d_587" opacity="1"><g id="l_d_588" opacity="1" transform="translate(39 54)"><path id="l_d_589" fill-opacity="1" d="M0-1a1 1 0 1 0 0 2 1 1 0 0 0 0-2"/></g></g></g><g id="l_d_576" transform="matrix(0 0 0 0 13.36 29.252)" opacity="1" display="none"><g id="l_d_580" opacity="1"><g id="l_d_581" opacity="1" transform="translate(39 54)"><path id="l_d_582" fill-opacity="1" d="M0-1a1 1 0 1 0 0 2 1 1 0 0 0 0-2"/></g></g></g><g id="l_d_569" transform="matrix(0 0 0 0 23.041 30.562)" opacity="1" display="none"><g id="l_d_573" opacity="1"><g id="l_d_574" opacity="1" transform="translate(39 54)"><path id="l_d_575" fill-opacity="1" d="M0-1a1 1 0 1 0 0 2 1 1 0 0 0 0-2"/></g></g></g><g id="l_d_562" transform="matrix(0 0 0 0 26.812 27.75)" opacity="1" display="none"><g id="l_d_566" opacity="1"><g id="l_d_567" opacity="1" transform="translate(39 54)"><path id="l_d_568" fill-opacity="1" d="M0-1a1 1 0 1 0 0 2 1 1 0 0 0 0-2"/></g></g></g></g></svg>