<svg id="l_d_455" xmlns="http://www.w3.org/2000/svg" viewBox="0 0 45 45" preserveAspectRatio="xMidYMid meet" style="width:100%;height:100%;content-visibility:visible"><defs id="l_d_456"><clipPath id="__lottie_element_168"><rect id="l_d_459" width="45" height="45" x="0" y="0"/></clipPath></defs><g id="l_d_457" clip-path="url(#__lottie_element_168)"><g id="l_d_480" transform="translate(-25 -17.625)" opacity="1" display="block"><g id="l_d_484" opacity="1" transform="translate(40 30)"><path id="l_d_485" stroke-linecap="butt" stroke-linejoin="round" fill-opacity="0" stroke-opacity="1" stroke-width="2" d="M0-4C5.585-4 10.406-.73 12.653 4h-25.306C-10.406-.73-5.585-4 0-4z"/></g></g><g id="l_d_474" transform="translate(-25 -17.625)" opacity="1" display="block"><g id="l_d_478" opacity="1" transform="translate(40 44.5)"><path id="l_d_479" stroke-linecap="butt" stroke-linejoin="miter" fill-opacity="0" stroke-miterlimit="4" stroke-opacity="1" stroke-width="2" d="M0-10.5v21"/></g></g><g id="l_d_460" transform="translate(-25 -17.625)" opacity="1" display="block"><g id="l_d_464" opacity="1" transform="translate(52 47)"><path id="l_d_465" stroke-linecap="butt" stroke-linejoin="miter" fill-opacity="0" stroke-miterlimit="4" stroke-opacity="1" stroke-width="2" d="M0 8V-8"/></g><g id="l_d_466" opacity="1" transform="translate(48 51.5)"><path id="l_d_467" stroke-linecap="butt" stroke-linejoin="miter" fill-opacity="0" stroke-miterlimit="4" stroke-opacity="1" stroke-width="2" d="M4-3.5h-7a1 1 0 0 0-1 1v6"/></g><g id="l_d_468" opacity="1" transform="translate(28 47)"><path id="l_d_469" stroke-linecap="butt" stroke-linejoin="miter" fill-opacity="0" stroke-miterlimit="4" stroke-opacity="1" stroke-width="2" d="M0 8V-8"/></g><g id="l_d_470" opacity="1" transform="translate(32 51.5)"><path id="l_d_471" stroke-linecap="butt" stroke-linejoin="miter" fill-opacity="0" stroke-miterlimit="4" stroke-opacity="1" stroke-width="2" d="M-4-3.5h7a1 1 0 0 1 1 1v6"/></g><g id="l_d_472" opacity="1" transform="translate(40 44)"><path id="l_d_473" stroke-linecap="butt" stroke-linejoin="miter" fill-opacity="0" stroke-miterlimit="4" stroke-opacity="1" stroke-width="2" d="M-9 0H9"/></g></g></g></svg>