<svg id="l_d_330" xmlns="http://www.w3.org/2000/svg" xmlns:xlink="http://www.w3.org/1999/xlink" viewBox="0 0 45 45" preserveAspectRatio="xMidYMid meet" style="width:100%;height:100%;content-visibility:visible"><defs id="l_d_331"><clipPath id="__lottie_element_120"><rect id="l_d_334" width="45" height="45" x="0" y="0"/></clipPath><g id="__lottie_element_121"><g id="l_d_335" transform="translate(-24.875 -16.75)" opacity="1" display="none"><g id="l_d_340" opacity="1" transform="translate(40 38)"><path id="l_d_341" stroke-linecap="butt" stroke-linejoin="miter" fill-opacity="0" stroke-miterlimit="4" stroke-opacity="1" stroke-width="2" d="M0-13c6.627 0 12 5.862 12 11.724C13.242-24.229 7.08-34.11 7.08-34.11H-7.15S-15.024-26.776-12-1.276C-12-7.751-6.627-13 0-13z"/><path id="l_d_342" fill-opacity="1" d="M0-13c6.627 0 12 5.862 12 11.724C13.242-24.229 7.08-34.11 7.08-34.11H-7.15S-15.024-26.776-12-1.276C-12-7.751-6.627-13 0-13"/></g></g></g><mask id="__lottie_element_121_1" mask-type="alpha"><use id="l_d_350" xlink:href="#__lottie_element_121"/></mask></defs><g id="l_d_332" clip-path="url(#__lottie_element_120)"><g id="l_d_351" transform="translate(-24.875 -16.75)" opacity="1" display="block"><g id="l_d_356" opacity="1" transform="translate(40 38)"><path id="l_d_357" stroke-linecap="butt" stroke-linejoin="miter" fill-opacity="0" stroke-miterlimit="4" stroke-opacity="1" stroke-width="2" d="M0-13c6.627 0 12 5.862 12 11.724Q12 5.918 7.115 13h-14.23Q-12 5.918-12-1.276C-12-7.751-6.627-13 0-13z"/></g><g id="l_d_358" opacity="1" transform="translate(40 44)"><path id="l_d_359" stroke-linecap="butt" stroke-linejoin="miter" fill-opacity="0" stroke-miterlimit="4" stroke-opacity="1" stroke-width="2" d="M0-2.375a2.375 2.375 0 1 1 0 4.75 2.375 2.375 0 0 1 0-4.75z"/></g><g id="l_d_360" opacity="1" transform="translate(40 33)"><path id="l_d_361" stroke-linecap="butt" stroke-linejoin="miter" fill-opacity="0" stroke-miterlimit="4" stroke-opacity="1" stroke-width="2" d="M8 4A8 8 0 0 0-8 4z"/></g><g id="l_d_362" opacity="1" transform="translate(41.5 35)"><path id="l_d_363" stroke-linecap="butt" stroke-linejoin="round" fill-opacity="0" stroke-opacity="1" stroke-width="2" d="m-1.5 2 3-4"/></g><g id="l_d_364" opacity="1" transform="translate(40 54)"><path id="l_d_365" stroke-linecap="butt" stroke-linejoin="miter" fill-opacity="0" stroke-miterlimit="4" stroke-opacity="1" stroke-width="2" d="M0-2v4"/></g></g><g id="l_d_344" mask="url(#__lottie_element_121_1)" display="none"><g id="l_d_343" transform="matrix(.74 0 0 .74 15.125 13.62)" opacity="1"><g id="l_d_347" opacity="1"><path id="l_d_348" stroke-linecap="butt" stroke-linejoin="miter" fill-opacity="0" stroke-miterlimit="4" stroke-opacity="1" stroke-width="2" d="M0-2.457a2.458 2.458 0 0 1 0 4.914 2.458 2.458 0 0 1 0-4.914z"/></g></g></g></g></svg>