<svg id="l_d_804" xmlns="http://www.w3.org/2000/svg" viewBox="0 0 45 45" preserveAspectRatio="xMidYMid meet" style="width:100%;height:100%;content-visibility:visible"><defs id="l_d_805"><clipPath id="__lottie_element_322"><rect id="l_d_808" width="45" height="45" x="0" y="0"/></clipPath><clipPath id="__lottie_element_328"><path id="l_d_833" d="M0 0h80v80H0z"/></clipPath><clipPath id="__lottie_element_335"><path id="l_d_846" d="M0 0h80v80H0z"/></clipPath></defs><g id="l_d_806" clip-path="url(#__lottie_element_322)"><g id="l_d_843" clip-path="url(#__lottie_element_335)" transform="translate(-25 -17.625)" opacity="1" display="block"><g id="l_d_849" opacity="1" display="block"><g id="l_d_853" opacity="1"><g id="l_d_854" opacity="1" transform="translate(40 35)"><path id="l_d_855" stroke-linecap="butt" stroke-linejoin="miter" fill-opacity="0" stroke-miterlimit="4" stroke-opacity="1" stroke-width="2" d="M0-9a8 8 0 0 1 8 8V9H0zM-.083 1H8M0-9.957V9"/></g></g></g></g><g id="l_d_830" clip-path="url(#__lottie_element_328)" transform="matrix(-1 0 0 1 55 -17.625)" opacity="1" display="block"><g id="l_d_836" opacity="1" display="block"><g id="l_d_840" opacity="1"><g id="l_d_841" opacity="1" transform="translate(40 35)"><path id="l_d_842" stroke-linecap="butt" stroke-linejoin="miter" fill-opacity="0" stroke-miterlimit="4" stroke-opacity="1" stroke-width="2" d="M0-9a8 8 0 0 1 8 8V9H0zM-.083 1H8M0-9.957V9"/></g></g></g></g><g id="l_d_809" transform="translate(-25 -17.625)" opacity="1" display="block"><g id="l_d_813" opacity="1"><g id="l_d_814" opacity="1" transform="translate(50 49)"><path id="l_d_815" stroke-linecap="butt" stroke-linejoin="miter" fill-opacity="0" stroke-miterlimit="4" stroke-opacity="1" stroke-width="2" d="M0-5V5"/></g><g id="l_d_816" opacity="1" transform="translate(46 49)"><path id="l_d_817" stroke-linecap="butt" stroke-linejoin="miter" fill-opacity="0" stroke-miterlimit="4" stroke-opacity="1" stroke-width="2" d="M0-5V5"/></g><g id="l_d_818" opacity="1" transform="translate(42 49)"><path id="l_d_819" stroke-linecap="butt" stroke-linejoin="miter" fill-opacity="0" stroke-miterlimit="4" stroke-opacity="1" stroke-width="2" d="M0-5V5"/></g><g id="l_d_820" opacity="1" transform="translate(38 49)"><path id="l_d_821" stroke-linecap="butt" stroke-linejoin="miter" fill-opacity="0" stroke-miterlimit="4" stroke-opacity="1" stroke-width="2" d="M0-5V5"/></g><g id="l_d_822" opacity="1" transform="translate(34 49)"><path id="l_d_823" stroke-linecap="butt" stroke-linejoin="miter" fill-opacity="0" stroke-miterlimit="4" stroke-opacity="1" stroke-width="2" d="M0-5V5"/></g><g id="l_d_824" opacity="1" transform="translate(30 49)"><path id="l_d_825" stroke-linecap="butt" stroke-linejoin="miter" fill-opacity="0" stroke-miterlimit="4" stroke-opacity="1" stroke-width="2" d="M0-5V5"/></g><g id="l_d_826" opacity="1" transform="translate(40 54)"><path id="l_d_827" stroke-linecap="butt" stroke-linejoin="miter" fill-opacity="0" stroke-miterlimit="4" stroke-opacity="1" stroke-width="2" d="M-13 0h26"/></g><g id="l_d_828" opacity="1" transform="translate(40 44)"><path id="l_d_829" stroke-linecap="butt" stroke-linejoin="miter" fill-opacity="0" stroke-miterlimit="4" stroke-opacity="1" stroke-width="2" d="M-13 0h26"/></g></g></g></g></svg>