<svg id="l_d_751" xmlns="http://www.w3.org/2000/svg" viewBox="0 0 45 45" preserveAspectRatio="xMidYMid meet" style="width:100%;height:100%;content-visibility:visible"><defs id="l_d_752"><clipPath id="__lottie_element_296"><rect id="l_d_755" width="45" height="45" x="0" y="0"/></clipPath></defs><g id="l_d_753" clip-path="url(#__lottie_element_296)"><g id="l_d_797" transform="translate(2 7.5)" opacity="1" display="block"><g id="l_d_801" opacity="1" transform="translate(15 15)"><path id="l_d_802" fill-opacity="1" d="M-15-8a7 7 0 0 1 6.76-6.996L-8-15h2A7.005 7.005 0 0 1 .983-8.483l.013.24.01.42a3 3 0 0 0 2.818 2.818L4-5h3c2.078 0 4.075.809 5.568 2.255a8 8 0 0 1 2.428 5.495L15 3v8a1 1 0 0 1-.883.993L14 12h-1v3h-2v-3h-22v3h-2v-3h-1a1 1 0 0 1-.993-.883L-15 11zm4 12h-2v6h26V4h-2M-7 4h-2m6 0h-2m6 0h-2m6 0H3m6 0H7M-6-13h-2a5.003 5.003 0 0 0-4.995 4.783L-13-8V2h25.915l-.016-.102a6.004 6.004 0 0 0-5.425-4.88l-.25-.014L7-3H4C1.311-3-.882-5.122-.995-7.766l-.008-.422A5 5 0 0 0-6-13"/></g></g><g id="l_d_791" transform="translate(2 7.5)" opacity="1" display="block"><g id="l_d_795" opacity="1" transform="translate(4.997 20.217)"><path id="l_d_796" fill-opacity="1" d="M1.003 2.783h-2.006v-5.566h2.006z"/></g></g><g id="l_d_785" transform="translate(6 7.5)" opacity="1" display="block"><g id="l_d_789" opacity="1" transform="translate(4.997 20.217)"><path id="l_d_790" fill-opacity="1" d="M1.003 2.783h-2.006v-5.566h2.006z"/></g></g><g id="l_d_779" transform="translate(10 7.5)" opacity="1" display="block"><g id="l_d_783" opacity="1" transform="translate(4.997 20.217)"><path id="l_d_784" fill-opacity="1" d="M1.003 2.783h-2.006v-5.566h2.006z"/></g></g><g id="l_d_773" transform="translate(14 7.5)" opacity="1" display="block"><g id="l_d_777" opacity="1" transform="translate(4.997 20.217)"><path id="l_d_778" fill-opacity="1" d="M1.003 2.783h-2.006v-5.566h2.006z"/></g></g><g id="l_d_767" transform="translate(18 7.5)" opacity="1" display="block"><g id="l_d_771" opacity="1" transform="translate(4.997 20.217)"><path id="l_d_772" fill-opacity="1" d="M1.003 2.783h-2.006v-5.566h2.006z"/></g></g><g id="l_d_761" transform="translate(22 7.5)" opacity="1" display="block"><g id="l_d_765" opacity="1" transform="translate(4.997 20.217)"><path id="l_d_766" fill-opacity="1" d="M1.003 2.783h-2.006v-5.566h2.006z"/></g></g><g id="l_d_756" display="none"><rect id="l_d_760" width="120" height="120"/></g></g></svg>