<svg id="l_d_367" xmlns="http://www.w3.org/2000/svg" xmlns:xlink="http://www.w3.org/1999/xlink" viewBox="0 0 45 45" preserveAspectRatio="xMidYMid meet" style="width:100%;height:100%;content-visibility:visible"><defs id="l_d_368"><clipPath id="__lottie_element_132"><rect id="l_d_371" width="45" height="45" x="0" y="0"/></clipPath><g id="__lottie_element_136"><g id="l_d_377" transform="translate(22.125 22.375)" opacity="1" display="block"><g id="l_d_382" opacity="1" transform="translate(-.116 5.949)"><path id="l_d_383" fill-opacity="1" d="M20.009-10.073v20.146h-40.018v-20.146z"/></g></g></g><mask id="__lottie_element_136_1" mask-type="alpha"><use id="l_d_395" xlink:href="#__lottie_element_136"/></mask></defs><g id="l_d_369" clip-path="url(#__lottie_element_132)"><g id="l_d_396" transform="translate(-17.875 -17.625)" opacity="1" display="block"><g id="l_d_400" opacity="1" transform="translate(44 38)"><path id="l_d_401" stroke-linecap="butt" stroke-linejoin="miter" fill-opacity="0" stroke-miterlimit="4" stroke-opacity="1" stroke-width="2" d="M-3 0h6"/></g><g id="l_d_402" opacity="1" transform="translate(40 34)"><path id="l_d_403" stroke-linecap="butt" stroke-linejoin="miter" fill-opacity="0" stroke-miterlimit="4" stroke-opacity="1" stroke-width="2" d="M-12 0h24"/></g><g id="l_d_404" opacity="1" transform="translate(38 34.5)"><path id="l_d_405" stroke-linecap="butt" stroke-linejoin="miter" fill-opacity="0" stroke-miterlimit="4" stroke-opacity="1" stroke-width="2" d="M9 6.5v-10a3 3 0 1 0-6 0m0 10v-10a3 3 0 1 0-6 0"/></g></g><g id="l_d_385" mask="url(#__lottie_element_136_1)" display="block"><g id="l_d_384" transform="translate(-17.875 -17.625)" opacity="1"><g id="l_d_388" opacity="1" transform="translate(32 51.75)"><path id="l_d_389" stroke-linecap="butt" stroke-linejoin="miter" fill-opacity="0" stroke-miterlimit="4" stroke-opacity="1" stroke-width="2" d="M-11.989.727c-.724 0-1.448-.25-2-.75a2.98 2.98 0 0 0-2-.75c-.724 0-1.448.25-2 .75s-1.276.75-2 .75-1.448-.25-2-.75a2.98 2.98 0 0 0-2-.75c-.724 0-1.448.25-2 .75s-1.276.75-2 .75-1.448-.25-2-.75a2.98 2.98 0 0 0-2-.75c-.724 0-1.448.25-2 .75s-1.276.75-2 .75m71.988.014c-.724 0-1.448-.25-2-.75a2.98 2.98 0 0 0-2-.75c-.724 0-1.448.25-2 .75s-1.276.75-2 .75-1.448-.25-2-.75a2.98 2.98 0 0 0-2-.75c-.724 0-1.448.25-2 .75s-1.276.75-2 .75-1.448-.25-2-.75a2.98 2.98 0 0 0-2-.75c-.724 0-1.448.25-2 .75s-1.276.75-2 .75M12 .75c-.724 0-1.448-.25-2-.75a2.98 2.98 0 0 0-2-.75c-.724 0-1.448.25-2 .75S4.724.75 4 .75 2.552.5 2 0a2.98 2.98 0 0 0-2-.75c-.724 0-1.448.25-2 .75s-1.276.75-2 .75S-5.448.5-6 0a2.98 2.98 0 0 0-2-.75c-.724 0-1.448.25-2 .75s-1.276.75-2 .75"/></g><g id="l_d_390" opacity="1" transform="translate(48 46.75)"><path id="l_d_391" stroke-linecap="butt" stroke-linejoin="miter" fill-opacity="0" stroke-miterlimit="4" stroke-opacity="1" stroke-width="2" d="M-11.989.727c-.724 0-1.448-.25-2-.75a2.98 2.98 0 0 0-2-.75c-.724 0-1.448.25-2 .75s-1.276.75-2 .75-1.448-.25-2-.75a2.98 2.98 0 0 0-2-.75c-.724 0-1.448.25-2 .75s-1.276.75-2 .75-1.448-.25-2-.75a2.98 2.98 0 0 0-2-.75c-.724 0-1.448.25-2 .75s-1.276.75-2 .75m71.988.014c-.724 0-1.448-.25-2-.75a2.98 2.98 0 0 0-2-.75c-.724 0-1.448.25-2 .75s-1.276.75-2 .75-1.448-.25-2-.75a2.98 2.98 0 0 0-2-.75c-.724 0-1.448.25-2 .75s-1.276.75-2 .75-1.448-.25-2-.75a2.98 2.98 0 0 0-2-.75c-.724 0-1.448.25-2 .75s-1.276.75-2 .75M12 .75c-.724 0-1.448-.25-2-.75a2.98 2.98 0 0 0-2-.75c-.724 0-1.448.25-2 .75S4.724.75 4 .75 2.552.5 2 0a2.98 2.98 0 0 0-2-.75c-.724 0-1.448.25-2 .75s-1.276.75-2 .75S-5.448.5-6 0a2.98 2.98 0 0 0-2-.75c-.724 0-1.448.25-2 .75s-1.276.75-2 .75"/></g><g id="l_d_392" opacity="1" transform="translate(31.9 41.75)"><path id="l_d_393" stroke-linecap="butt" stroke-linejoin="miter" fill-opacity="0" stroke-miterlimit="4" stroke-opacity="1" stroke-width="2" d="M-11.989.727c-.724 0-1.448-.25-2-.75a2.98 2.98 0 0 0-2-.75c-.724 0-1.448.25-2 .75s-1.276.75-2 .75-1.448-.25-2-.75a2.98 2.98 0 0 0-2-.75c-.724 0-1.448.25-2 .75s-1.276.75-2 .75-1.448-.25-2-.75a2.98 2.98 0 0 0-2-.75c-.724 0-1.448.25-2 .75s-1.276.75-2 .75m71.988.014c-.724 0-1.448-.25-2-.75a2.98 2.98 0 0 0-2-.75c-.724 0-1.448.25-2 .75s-1.276.75-2 .75-1.448-.25-2-.75a2.98 2.98 0 0 0-2-.75c-.724 0-1.448.25-2 .75s-1.276.75-2 .75-1.448-.25-2-.75a2.98 2.98 0 0 0-2-.75c-.724 0-1.448.25-2 .75s-1.276.75-2 .75M12 .75c-.724 0-1.448-.25-2-.75a2.98 2.98 0 0 0-2-.75c-.724 0-1.448.25-2 .75S4.724.75 4 .75 2.552.5 2 0a2.98 2.98 0 0 0-2-.75c-.724 0-1.448.25-2 .75s-1.276.75-2 .75S-5.448.5-6 0a2.98 2.98 0 0 0-2-.75c-.724 0-1.448.25-2 .75s-1.276.75-2 .75"/></g></g></g><g id="l_d_372" display="none"><rect id="l_d_376" width="120" height="120"/></g></g></svg>