<svg id="l_d_1022" xmlns="http://www.w3.org/2000/svg" viewBox="0 0 45 45" preserveAspectRatio="xMidYMid meet" style="width:100%;height:100%;content-visibility:visible"><defs id="l_d_1023"><clipPath id="__lottie_element_409"><rect id="l_d_1026" width="45" height="45" x="0" y="0"/></clipPath></defs><g id="l_d_1024" clip-path="url(#__lottie_element_409)"><g id="l_d_1045" transform="translate(-23 -17.5)" opacity="1" display="block"><g id="l_d_1049" opacity="1" transform="translate(52 32)"><path id="l_d_1050" stroke-linecap="butt" stroke-linejoin="round" fill-opacity="0" stroke-opacity="1" stroke-width="2" d="M-.125-2a2.124 2.124 0 1 1 .001 4.249A2.124 2.124 0 0 1-.125-2z"/></g><g id="l_d_1051" opacity="1" transform="translate(52 48)"><path id="l_d_1052" stroke-linecap="butt" stroke-linejoin="round" fill-opacity="0" stroke-opacity="1" stroke-width="2" d="M-.125-2.25a2.124 2.124 0 1 1 .001 4.249A2.124 2.124 0 0 1-.125-2.25z"/></g><g id="l_d_1053" opacity="1" transform="translate(28 48)"><path id="l_d_1054" stroke-linecap="butt" stroke-linejoin="round" fill-opacity="0" stroke-opacity="1" stroke-width="2" d="M.312-2.625a2.314 2.314 0 1 1-.001 4.627 2.314 2.314 0 0 1 .001-4.627z"/></g><g id="l_d_1055" opacity="1" transform="translate(28 32)"><path id="l_d_1056" stroke-linecap="butt" stroke-linejoin="round" fill-opacity="0" stroke-opacity="1" stroke-width="2" d="M.312-2a2.313 2.313 0 1 1 0 4.625A2.313 2.313 0 0 1 .313-2z"/></g><g id="l_d_1057" opacity="1" transform="translate(40 48)"><path id="l_d_1058" stroke-linecap="butt" stroke-linejoin="round" fill-opacity="0" stroke-opacity="1" stroke-width="2" d="M2 2V0a2 2 0 1 0-4 0v2"/></g><g id="l_d_1059" opacity="1" transform="translate(40 32)"><path id="l_d_1060" stroke-linecap="butt" stroke-linejoin="round" fill-opacity="0" stroke-opacity="1" stroke-width="2" d="M2-2v2a2 2 0 1 1-4 0v-2"/></g></g><g id="l_d_1039" transform="translate(-23 -17.5)" opacity="1" display="block"><g id="l_d_1043" opacity="1" transform="translate(40 40)"><path id="l_d_1044" stroke-linecap="butt" stroke-linejoin="round" fill-opacity="0" stroke-opacity="1" stroke-width="2" d="M-14-10h28v20h-28z"/></g></g><g id="l_d_1033" transform="translate(-23 -17.5)" opacity="1" display="block"><g id="l_d_1037" opacity="1" transform="translate(45.341 47.024)"><path id="l_d_1038" stroke-linecap="butt" stroke-linejoin="round" fill-opacity="0" stroke-opacity="1" stroke-width="2" d="M-2.659-7.976 2.659 7.976"/></g></g><g id="l_d_1027" transform="translate(-22.812 -17.25)" opacity="1" display="block"><g id="l_d_1031" opacity="1" transform="translate(42 37)"><path id="l_d_1032" fill-opacity="1" d="M0-1a1 1 0 1 1 0 2 1 1 0 0 1 0-2"/></g></g></g></svg>