<svg id="l_d_487" xmlns="http://www.w3.org/2000/svg" viewBox="0 0 45 45" preserveAspectRatio="xMidYMid meet" style="width:100%;height:100%;content-visibility:visible"><defs id="l_d_488"><clipPath id="__lottie_element_180"><rect id="l_d_491" width="45" height="45" x="0" y="0"/></clipPath></defs><g id="l_d_489" clip-path="url(#__lottie_element_180)"><g id="l_d_510" transform="translate(1 7.5)" opacity="1" display="block"><g id="l_d_514" opacity="1" transform="translate(15.562 24.644)"><path id="l_d_515" fill-opacity="1" d="m3.945 1.489 5.123 1.865A3.5 3.5 0 0 0 13.35 1.72l.946.345A4.5 4.5 0 0 1 8.921 4.36l-.2-.068-6.756-2.458-.009-.004-.009-.004-16.243-5.912.342-.94z"/><path id="l_d_516" stroke-linecap="butt" stroke-linejoin="miter" fill-opacity="0" stroke-miterlimit="4" stroke-opacity="1" stroke-width="1" d="m3.945 1.489 5.123 1.865A3.5 3.5 0 0 0 13.35 1.72l.946.345A4.5 4.5 0 0 1 8.921 4.36l-.2-.068-6.756-2.458-.009-.004-.009-.004-16.243-5.912.342-.94z"/></g></g><g id="l_d_503" transform="translate(1 7.5)" opacity="1" display="block"><g id="l_d_507" opacity="1" transform="translate(19.815 12.911)"><path id="l_d_508" fill-opacity="1" d="M-1.685 12.322 2.72 6.37a1.5 1.5 0 0 0-.068-1.871l-.011-.013-.011-.011-.089-.09-.011-.011-.011-.011L-.15 1.96a.5.5 0 0 1-.118-.584l.045-.077 2.774-4.164 1.198.799v.011l.004.032.032.246.001.013q.019.12.041.22C4.059-.538 4.593.252 5.469.785c.816.495 1.891.745 3.216.794v1C5.722 2.472 3.883 1.395 3.112-.495l-.356-.872-.523.784-1.152 1.729-.24.359.321.291L3.188 3.62a2.5 2.5 0 0 1 .432 3.207l-.1.144-4.451 5.912m-5.016-2.086 3.223-4.216.29-.379-.365-.306L-5.8 3.363a2.22 2.22 0 0 1-.784-1.584l1.118.42q.07.144.177.268l.013.015.014.013.079.077.014.015.014.011 3.73 3.149a.5.5 0 0 1 .115.623l-.049.073-3.875 4.905m-3.64-15.067.383.143.216-.345.877-1.401q.242-.386.534-.735A6.5 6.5 0 0 1 .723-7.833l.833.366-.137-.898a3.501 3.501 0 1 1 6.46 1.28 3.5 3.5 0 0 1-1.952 1.537l-.161.051-.097.138-.465.657-.844-.562.759-1.134A2.5 2.5 0 0 0 7.021-7.6a2.5 2.5 0 0 0-.855-3.429 2.5 2.5 0 0 0-3.43.855 2.5 2.5 0 0 0-.174 2.229L1.514-6.201a5.5 5.5 0 0 0-7.923 1.194l-.007.01-.128.196-.006.009-.661 1.058-.325.517.573.216"/><path id="l_d_509" stroke-linecap="butt" stroke-linejoin="miter" fill-opacity="0" stroke-miterlimit="4" stroke-opacity="1" stroke-width="1" d="M-1.685 12.322 2.72 6.37a1.5 1.5 0 0 0-.068-1.871l-.011-.013-.011-.011-.089-.09-.011-.011-.011-.011L-.15 1.96a.5.5 0 0 1-.118-.584l.045-.077 2.774-4.164 1.198.799v.011l.004.032.032.246.001.013q.019.12.041.22C4.059-.538 4.593.252 5.469.785c.816.495 1.891.745 3.216.794v1C5.722 2.472 3.883 1.395 3.112-.495l-.356-.872-.523.784-1.152 1.729-.24.359.321.291L3.188 3.62a2.5 2.5 0 0 1 .432 3.207l-.1.144-4.451 5.912m-5.016-2.086 3.223-4.216.29-.379-.365-.306L-5.8 3.363a2.22 2.22 0 0 1-.784-1.584l1.118.42q.07.144.177.268l.013.015.014.013.079.077.014.015.014.011 3.73 3.149a.5.5 0 0 1 .115.623l-.049.073-3.875 4.905m-3.64-15.067.383.143.216-.345.877-1.401q.242-.386.534-.735A6.5 6.5 0 0 1 .723-7.833l.833.366-.137-.898a3.501 3.501 0 1 1 6.46 1.28 3.5 3.5 0 0 1-1.952 1.537l-.161.051-.097.138-.465.657-.844-.562.759-1.134A2.5 2.5 0 0 0 7.021-7.6a2.5 2.5 0 0 0-.855-3.429 2.5 2.5 0 0 0-3.43.855 2.5 2.5 0 0 0-.174 2.229L1.514-6.201a5.5 5.5 0 0 0-7.923 1.194l-.007.01-.128.196-.006.009-.661 1.058-.325.517.573.216"/></g></g><g id="l_d_497" transform="translate(1.563 7.687)" opacity="1" display="block"><g id="l_d_501" opacity="1" transform="translate(9.002 9.001)"><path id="l_d_502" stroke-linecap="butt" stroke-linejoin="miter" fill-opacity="0" stroke-miterlimit="4" stroke-opacity="1" stroke-width="2" d="M-8.003-3.002 8.003 3.002"/></g></g><g id="l_d_492" display="none"><rect id="l_d_496" width="120" height="120"/></g></g></svg>