<svg id="l_d_1358" xmlns="http://www.w3.org/2000/svg" viewBox="0 0 45 45" preserveAspectRatio="xMidYMid meet" style="width:100%;height:100%;content-visibility:visible"><defs id="l_d_1359"><clipPath id="__lottie_element_551"><rect id="l_d_1362" width="45" height="45" x="0" y="0"/></clipPath></defs><g id="l_d_1360" clip-path="url(#__lottie_element_551)"><g id="l_d_1386" transform="translate(-23 -17.25)" opacity="1" display="block"><g id="l_d_1390" opacity="1" transform="translate(47 33)"><path id="l_d_1391" fill-opacity="1" d="M0-1a1 1 0 1 1 0 2 1 1 0 0 1 0-2"/></g></g><g id="l_d_1368" transform="translate(-23 -17.25)" opacity="1" display="block"><g id="l_d_1372" opacity="1" transform="translate(40 40)"><path id="l_d_1373" stroke-linecap="butt" stroke-linejoin="miter" fill-opacity="0" stroke-miterlimit="4" stroke-opacity="1" stroke-width="2" d="M0-14c7.732 0 14 6.268 14 14S7.732 14 0 14-14 7.732-14 0s6.268-14 14-14z"/></g><g id="l_d_1375" opacity="1"><g id="l_d_1376" opacity="1" transform="translate(43.958 43.961)"><path id="l_d_1377" fill-opacity="1" d="M.931-2.961A5 5 0 0 1-2.958.933v2.028c.089-.013.178-.021.266-.037a7.01 7.01 0 0 0 5.635-5.706c.01-.059.007-.12.015-.179z"/></g><g id="l_d_1378" opacity="1" transform="translate(43.959 36.041)"><path id="l_d_1379" fill-opacity="1" d="M2.945 2.79a6.99 6.99 0 0 0-5.757-5.738c-.048-.008-.099-.004-.147-.011V-.93a4.98 4.98 0 0 1 3.89 3.889h2.028c-.008-.056-.005-.114-.014-.169"/></g><g id="l_d_1380" opacity="1" transform="translate(36.043 43.959)"><path id="l_d_1381" fill-opacity="1" d="M2.957.93a4.98 4.98 0 0 1-3.89-3.889h-2.024c.009.065.006.132.017.197a7 7 0 0 0 5.743 5.708c.05.008.103.006.154.013z"/></g><g id="l_d_1382" opacity="1" transform="translate(36.038 36.045)"><path id="l_d_1383" fill-opacity="1" d="M-.925 2.955A4.99 4.99 0 0 1 2.962-.939v-2.016c-.092.013-.189.01-.28.027a7 7 0 0 0-5.638 5.806c-.004.025-.002.051-.006.077z"/></g></g><g id="l_d_1384" opacity="1" transform="translate(40 40)"><path id="l_d_1385" stroke-linecap="butt" stroke-linejoin="miter" fill-opacity="0" stroke-miterlimit="4" stroke-opacity="1" stroke-width="2" d="M0-2a2 2 0 1 1 .001 3.999A2 2 0 0 1 0-2z"/></g></g><g id="l_d_1363" display="none"><rect id="l_d_1367" width="120" height="120"/></g></g></svg>