<svg id="l_d_150" xmlns="http://www.w3.org/2000/svg" viewBox="0 0 45 45" preserveAspectRatio="xMidYMid meet" style="width:100%;height:100%;content-visibility:visible"><defs id="l_d_151"><clipPath id="__lottie_element_53"><rect id="l_d_154" width="45" height="45" x="0" y="0"/></clipPath></defs><g id="l_d_152" clip-path="url(#__lottie_element_53)"><g id="l_d_155" transform="translate(16.875 22.625)scale(1.318)" opacity="1" display="block"><g id="l_d_159" opacity="1"><path id="l_d_160" fill-opacity="1" d="M-2.25 6.75h4.5v1.5h-4.5zm-3 1.5v1.5h10.5v-1.5h-1.5v-1.5l.812-.003.163-.004c1.996-.085 1.887-.906-.13-.906l-9.412.007c-1.996.085-1.888.906.129.906h.938v1.5z"/></g></g><g id="l_d_173" transform="translate(16.875 22.625)scale(1.06404)" opacity="1" display="none"><g id="l_d_177" opacity="1"><path id="l_d_178" fill-opacity="1" d="M-7.814-8.694H7.892l.132.004a2.25 2.25 0 0 1 2.118 2.246v9.705l-.004.133a2.25 2.25 0 0 1-2.246 2.117H-7.814l-.132-.003a2.25 2.25 0 0 1-2.118-2.247v-9.705l.004-.132a2.25 2.25 0 0 1 2.246-2.118"/></g></g><g id="l_d_167" transform="translate(16.875 22.625)scale(1.318)" opacity="1" display="none"><g id="l_d_171" opacity="1"><path id="l_d_172" fill-opacity="1" d="M-7.5-8.25a2.25 2.25 0 0 0-2.246 2.118L-9.75-6v9a2.25 2.25 0 0 0 2.118 2.246l.132.004h15a2.25 2.25 0 0 0 2.246-2.118L9.75 3v-9a2.25 2.25 0 0 0-2.118-2.246L7.5-8.25l-6.927.009h-1.782zm-.375-.179 15.713-.012.133.003c1.181.068 2.117 1.085 2.117 2.283l-.023 9.709-.004.132a2.25 2.25 0 0 1-2.246 2.118l-15.714.012-.132-.004a2.25 2.25 0 0 1-2.118-2.246l.024-9.709.004-.168a2.25 2.25 0 0 1 2.246-2.118"/></g></g><g id="l_d_161" transform="translate(16.875 22.625)scale(1.318)" opacity="1" display="block"><g id="l_d_165" opacity="1"><path id="l_d_166" fill-opacity="1" d="M-7.5-8.25h15l.132.004A2.25 2.25 0 0 1 9.75-6v9l-.004.132A2.25 2.25 0 0 1 7.5 5.25h-15l-.132-.004A2.25 2.25 0 0 1-9.75 3v-9l.004-.132A2.25 2.25 0 0 1-7.5-8.25m11.25 15H7.5l.163-.003A3.75 3.75 0 0 0 11.25 3v-9l-.003-.163A3.75 3.75 0 0 0 7.5-9.75h-15l-.163.003A3.75 3.75 0 0 0-11.25-6v9l.003.163A3.75 3.75 0 0 0-7.5 6.75H3.75"/></g></g></g></svg>