<svg id="l_d_192" xmlns="http://www.w3.org/2000/svg" viewBox="0 0 45 45" preserveAspectRatio="xMidYMid meet" style="width:100%;height:100%;content-visibility:visible"><defs id="l_d_193"><clipPath id="__lottie_element_74"><rect id="l_d_196" width="45" height="45" x="0" y="0"/></clipPath><clipPath id="__lottie_element_80"><path id="l_d_209" clip-rule="nonzero" d="M.127-9.54A8.664 8.664 0 0 0-8.538-.875a8.665 8.665 0 1 0 17.33 0A8.664 8.664 0 0 0 .127-9.54" fill-opacity="1"/></clipPath></defs><g id="l_d_194" clip-path="url(#__lottie_element_74)"><g id="l_d_207" clip-path="url(#__lottie_element_80)" transform="translate(16 23.875)" opacity="1" display="block"><g id="l_d_212" opacity="1" transform="translate(.286 15.517)"><path id="l_d_213" stroke-linecap="butt" stroke-linejoin="miter" fill-opacity="0" stroke-miterlimit="4" stroke-opacity="1" stroke-width="2" d="M-32.286-19.517c-.346 3.418-.96 10.824-1.305 17.797-.346 6.973-.423 13.514.305 15.203.255.591 1.329 1.33 2.552 2.051s2.596 1.425 3.448 1.949c2.862 1.758 4.469 3.061 7 3 4.801-.116 7.688-6.163 13-6 1.994.061 4.14 1.937 6 3 2.614 1.494 4.128 3.113 7 3 4.709-.185 7.279-5.981 12-6 6.534-.027 7.728 7.977 15 6v-17c0-5.985 1.774-15.089 0-18-.32-.525-4.296.196-5 0-2.062-.575-4.264-3.235-6-4-7.987-3.521-11.216 4.318-18 4-1.456-.068-2.086-.471-3-1-3.455-2-5.331-4.059-9-4-4.943.08-7.549 5.172-13 5-5.759-.182-5.459-5.362-11-5z"/></g></g><g id="l_d_197" transform="translate(-24 -16.125)" opacity="1" display="block"><g id="l_d_201" opacity="1" transform="translate(40 39)"><path id="l_d_202" stroke-linecap="butt" stroke-linejoin="miter" fill-opacity="0" stroke-miterlimit="4" stroke-opacity="1" stroke-width="2" d="M-12-13h24a1 1 0 0 1 1 1v24a1 1 0 0 1-1 1h-24a1 1 0 0 1-1-1v-24a1 1 0 0 1 1-1z"/></g><g id="l_d_203" opacity="1" transform="translate(40 39)"><path id="l_d_204" stroke-linecap="butt" stroke-linejoin="miter" fill-opacity="0" stroke-miterlimit="4" stroke-opacity="1" stroke-width="2" d="M0-8A8 8 0 1 1 0 8 8 8 0 0 1 0-8z"/></g><g id="l_d_205" opacity="1" transform="translate(31 30)"><path id="l_d_206" fill-opacity="1" d="M0-1a1 1 0 1 1 0 2 1 1 0 0 1 0-2"/></g></g></g></svg>