<svg id="l_d_5" xmlns="http://www.w3.org/2000/svg" viewBox="0 0 45 45" preserveAspectRatio="xMidYMid meet" style="width:100%;height:100%;content-visibility:visible"><defs id="l_d_6"><clipPath id="__lottie_element_2"><rect id="l_d_9" width="45" height="45" x="0" y="0"/></clipPath></defs><g id="l_d_7" clip-path="url(#__lottie_element_2)"><g id="l_d_10" transform="translate(17.437 22.589)scale(.701)" opacity="1" display="block"><g id="l_d_14" opacity="1" transform="scale(2)"><path id="l_d_15" fill-opacity="1" d="M-1.438 5.391a1.438 1.438 0 1 1 2.876 0 1.438 1.438 0 0 1-2.876 0m4.313 0a2.875 2.875 0 1 0-5.75 0 2.875 2.875 0 0 0 5.75 0"/></g></g><g id="l_d_46" transform="translate(17.51 17.322)scale(.68817)" opacity="0" display="none"><g id="l_d_50" opacity="1" transform="scale(2)"><path id="l_d_51" fill-opacity="1" d="M5.781 2.485A6.47 6.47 0 0 0 0-1.078a6.47 6.47 0 0 0-5.781 3.563l1.088 1.088a5.034 5.034 0 0 1 9.386 0z"/></g></g><g id="l_d_40" transform="translate(17.594 17.47)scale(.6738)" opacity="0" display="none"><g id="l_d_44" opacity="1" transform="scale(2)"><path id="l_d_45" fill-opacity="1" d="M8.407-.141A10.05 10.05 0 0 0 0-4.672 10.06 10.06 0 0 0-8.407-.141L-7.365.9A8.62 8.62 0 0 1 0-3.234 8.62 8.62 0 0 1 7.366.901z"/></g></g><g id="l_d_34" transform="translate(17.684 17.632)scale(.65812)" opacity="0" display="none"><g id="l_d_38" opacity="1" transform="scale(2)"><path id="l_d_39" fill-opacity="1" d="M10.987-2.721A13.64 13.64 0 0 0 0-8.266c-4.504 0-8.5 2.182-10.987 5.545l1.03 1.028A12.2 12.2 0 0 1 0-6.828c4.108 0 7.743 2.027 9.958 5.136z"/></g></g><g id="l_d_28" transform="translate(17.437 22.589)scale(.701)" opacity="1" display="block"><g id="l_d_32" opacity="1" transform="scale(2)"><path id="l_d_33" fill-opacity="1" d="M5.781 2.485A6.47 6.47 0 0 0 0-1.078a6.47 6.47 0 0 0-5.781 3.563l1.088 1.088a5.034 5.034 0 0 1 9.386 0z"/></g></g><g id="l_d_22" transform="translate(17.437 22.589)scale(.701)" opacity="1" display="block"><g id="l_d_26" opacity="1" transform="scale(2)"><path id="l_d_27" fill-opacity="1" d="M8.407-.141A10.05 10.05 0 0 0 0-4.672 10.06 10.06 0 0 0-8.407-.141L-7.365.9A8.62 8.62 0 0 1 0-3.234 8.62 8.62 0 0 1 7.366.901z"/></g></g><g id="l_d_16" transform="translate(17.437 22.589)scale(.701)" opacity="1" display="block"><g id="l_d_20" opacity="1" transform="scale(2)"><path id="l_d_21" fill-opacity="1" d="M10.987-2.721A13.64 13.64 0 0 0 0-8.266c-4.504 0-8.5 2.182-10.987 5.545l1.03 1.028A12.2 12.2 0 0 1 0-6.828c4.108 0 7.743 2.027 9.958 5.136z"/></g></g></g></svg>